# Blender 3.3.1
# www.blender.org
o Cube
v 1.000000 -0.897433 0.897433
v 0.897433 -0.897433 1.000000
v 0.897433 -1.000000 0.897433
v 0.897433 -0.897433 -1.000000
v 1.000000 -0.897433 -0.897433
v 0.897433 -1.000000 -0.897433
v -0.897433 -1.000000 0.897433
v -0.897433 -0.897433 1.000000
v -1.000000 -0.897433 0.897433
v -0.897433 -1.000000 -0.897433
v -1.000000 -0.897433 -0.897433
v -0.897433 -0.897433 -1.000000
v 1.000000 0.897433 0.897433
v 0.897433 1.000000 0.897433
v 0.897433 0.897433 1.000000
v 0.897433 1.000000 -0.897433
v 1.000000 0.897433 -0.897433
v 0.897433 0.897433 -1.000000
v -0.897433 1.000000 0.897433
v -1.000000 0.897433 0.897433
v -0.897433 0.897433 1.000000
v -0.897433 0.897433 -1.000000
v -1.000000 0.897433 -0.897433
v -0.897433 1.000000 -0.897433
vn -0.0000 -0.0000 -1.0000
vn -0.0000 1.0000 -0.0000
vn -1.0000 -0.0000 -0.0000
vn -0.0000 -0.0000 1.0000
vn -0.0000 -1.0000 -0.0000
vn 0.5774 -0.5774 0.5774
vn 0.5774 -0.5774 -0.5774
vn -0.5774 -0.5774 0.5774
vn -0.5774 -0.5774 -0.5774
vn 0.5774 0.5774 0.5774
vn 0.5774 0.5774 -0.5774
vn -0.5774 0.5774 0.5774
vn -0.5774 0.5774 -0.5774
vn -0.0000 0.7071 -0.7071
vn 0.7071 -0.0000 -0.7071
vn 0.7071 -0.7071 -0.0000
vn -0.7071 0.7071 -0.0000
vn -0.7071 -0.7071 -0.0000
vn 0.7071 0.7071 -0.0000
vn -0.7071 -0.0000 0.7071
vn -0.0000 -0.7071 0.7071
vn -0.7071 -0.0000 -0.7071
vn -0.0000 0.7071 0.7071
vn 0.7071 -0.0000 0.7071
vn -0.0000 -0.7071 -0.7071
vn 1.0000 -0.0000 -0.0000
vt 0.612179 0.487179
vt 0.637821 0.512821
vt 0.625000 0.487179
vt 0.612179 0.500000
vt 0.612179 0.512821
vt 0.362179 0.512821
vt 0.362179 0.500000
vt 0.387821 0.487179
vt 0.375000 0.512821
vt 0.387821 0.512821
vt 0.612179 0.750000
vt 0.612179 0.737179
vt 0.625000 0.762821
vt 0.637821 0.737179
vt 0.612179 0.762821
vt 0.375000 0.737179
vt 0.387821 0.737179
vt 0.387821 0.762821
vt 0.362179 0.750000
vt 0.362179 0.737179
vt 0.612179 0.250000
vt 0.612179 0.262821
vt 0.612179 0.237179
vt 0.625000 0.262821
vt 0.862179 0.512821
vt 0.625000 0.237179
vt 0.125000 0.512821
vt 0.387821 0.237179
vt 0.137821 0.500000
vt 0.387821 0.262821
vt 0.137821 0.512821
vt 0.612179 0.012821
vt 0.612179 0.000000
vt 0.612179 0.987179
vt 0.625000 0.012821
vt 0.862179 0.737179
vt 0.625000 0.987179
vt 0.137821 0.737179
vt 0.387821 0.000000
vt 0.387821 0.987179
vt 0.137821 0.750000
vt 0.125000 0.737179
vt 0.387821 0.012821
s 0
g off
f 4/6/1 22/38/1 18/31/1
f 19/32/2 16/28/2 24/43/2
f 9/15/3 23/40/3 11/18/3
f 15/25/4 8/14/4 2/2/4
f 3/5/5 10/17/5 6/10/5
f 1/1/6 2/3/6 3/4/6
f 4/6/7 5/7/7 6/9/7
f 7/11/8 8/13/8 9/15/8
f 10/16/9 11/19/9 12/20/9
f 13/21/10 14/23/10 15/26/10
f 16/27/11 17/29/11 18/31/11
f 19/32/12 20/33/12 21/35/12
f 22/38/13 23/41/13 24/42/13
f 22/38/14 16/27/14 18/31/14
f 18/31/15 5/7/15 4/6/15
f 6/10/16 1/1/16 3/5/16
f 20/33/17 24/43/17 23/39/17
f 11/18/18 7/12/18 9/15/18
f 17/30/19 14/23/19 13/22/19
f 21/37/20 9/15/20 8/13/20
f 8/14/21 3/5/21 2/2/21
f 12/20/22 23/41/22 22/38/22
f 15/26/23 19/32/23 21/35/23
f 2/3/24 13/22/24 15/24/24
f 4/6/25 10/17/25 12/20/25
f 13/22/26 5/8/26 17/30/26
f 4/6/1 12/20/1 22/38/1
f 19/32/2 14/23/2 16/28/2
f 9/15/3 20/34/3 23/40/3
f 15/25/4 21/36/4 8/14/4
f 3/5/5 7/12/5 10/17/5
f 22/38/14 24/42/14 16/27/14
f 18/31/15 17/29/15 5/7/15
f 6/10/16 5/8/16 1/1/16
f 20/33/17 19/32/17 24/43/17
f 11/18/18 10/17/18 7/12/18
f 17/30/19 16/28/19 14/23/19
f 21/37/20 20/34/20 9/15/20
f 8/14/21 7/12/21 3/5/21
f 12/20/22 11/19/22 23/41/22
f 15/26/23 14/23/23 19/32/23
f 2/3/24 1/1/24 13/22/24
f 4/6/25 6/10/25 10/17/25
f 13/22/26 1/1/26 5/8/26
