# Blender 3.3.1
# www.blender.org
o Cube
v -0.357521 6.357105 -0.174531
v -0.357521 -1.154219 13.415653
v 0.357521 6.357105 -0.174531
v 0.357521 -1.154219 13.415653
v -0.357521 5.731225 -0.520455
v -0.357521 -1.780098 13.069729
v 0.357521 5.731225 -0.520455
v 0.357521 -1.780098 13.069729
vn -0.0000 0.8752 0.4837
vn 1.0000 -0.0000 -0.0000
vn -0.0000 -0.8752 -0.4837
vn -1.0000 -0.0000 -0.0000
vn -0.0000 0.4837 -0.8752
vn -0.0000 -0.4837 0.8752
vt 0.375000 0.000000
vt 0.375000 1.000000
vt 0.125000 0.750000
vt 0.625000 0.000000
vt 0.625000 1.000000
vt 0.875000 0.750000
vt 0.125000 0.500000
vt 0.375000 0.250000
vt 0.625000 0.250000
vt 0.875000 0.500000
vt 0.375000 0.750000
vt 0.625000 0.750000
vt 0.375000 0.500000
vt 0.625000 0.500000
s 0
g off
f 2/4/1 3/8/1 1/1/1
f 4/9/2 7/13/2 3/8/2
f 8/14/3 5/11/3 7/13/3
f 6/12/4 1/2/4 5/11/4
f 7/13/5 1/3/5 3/7/5
f 4/10/6 6/12/6 8/14/6
f 2/4/1 4/9/1 3/8/1
f 4/9/2 8/14/2 7/13/2
f 8/14/3 6/12/3 5/11/3
f 6/12/4 2/5/4 1/2/4
f 7/13/5 5/11/5 1/3/5
f 4/10/6 2/6/6 6/12/6
o Cube.001
v -0.343186 -5.897948 -0.888704
v -0.343186 1.036955 16.456482
v 0.343186 -5.897948 -0.888704
v 0.343186 1.036955 16.456482
v -0.343186 -6.546930 -0.629230
v -0.343186 0.387973 16.715956
v 0.343186 -6.546930 -0.629230
v 0.343186 0.387973 16.715956
vn -0.0000 0.9285 -0.3712
vn 1.0000 -0.0000 -0.0000
vn -0.0000 -0.9285 0.3712
vn -1.0000 -0.0000 -0.0000
vn -0.0000 -0.3712 -0.9285
vn -0.0000 0.3712 0.9285
vt 0.375000 0.000000
vt 0.375000 1.000000
vt 0.125000 0.750000
vt 0.625000 0.000000
vt 0.625000 1.000000
vt 0.875000 0.750000
vt 0.125000 0.500000
vt 0.375000 0.250000
vt 0.625000 0.250000
vt 0.875000 0.500000
vt 0.375000 0.750000
vt 0.625000 0.750000
vt 0.375000 0.500000
vt 0.625000 0.500000
s 0
g off
f 10/18/7 11/22/7 9/15/7
f 12/23/8 15/27/8 11/22/8
f 16/28/9 13/25/9 15/27/9
f 14/26/10 9/16/10 13/25/10
f 15/27/11 9/17/11 11/21/11
f 12/24/12 14/26/12 16/28/12
f 10/18/7 12/23/7 11/22/7
f 12/23/8 16/28/8 15/27/8
f 16/28/9 14/26/9 13/25/9
f 14/26/10 10/19/10 9/16/10
f 15/27/11 13/25/11 9/17/11
f 12/24/12 10/20/12 14/26/12
