# 3ds Max Wavefront OBJ Exporter v0.99 - (c)2007 guruware
# File Created: 23.02.2022 14:40:35

#
# object Cup_00
#

v  -0.0000 1.2000 0.0000
v  0.4104 1.1276 3.0000
v  0.4104 1.1276 0.0000
v  -0.0000 1.2000 3.0000
v  0.3420 0.9397 3.0000
v  -0.0000 1.0000 3.0000
v  0.3420 0.9397 0.0000
v  -0.0000 1.0000 0.0000
v  0.7713 0.9193 3.0000
v  0.7713 0.9193 0.0000
v  0.6428 0.7660 3.0000
v  0.6428 0.7660 0.0000
v  1.0392 0.6000 3.0000
v  1.0392 0.6000 0.0000
v  0.8660 0.5000 3.0000
v  0.8660 0.5000 0.0000
v  1.1818 0.2084 3.0000
v  1.1818 0.2084 0.0000
v  0.9848 0.1736 3.0000
v  0.9848 0.1736 0.0000
v  1.1818 -0.2084 3.0000
v  1.1818 -0.2084 0.0000
v  0.9848 -0.1736 3.0000
v  0.9848 -0.1736 0.0000
v  1.0392 -0.6000 3.0000
v  1.0392 -0.6000 0.0000
v  0.8660 -0.5000 3.0000
v  0.8660 -0.5000 0.0000
v  0.7713 -0.9193 3.0000
v  0.7713 -0.9193 0.0000
v  0.6428 -0.7660 3.0000
v  0.6428 -0.7660 0.0000
v  0.4104 -1.1276 3.0000
v  0.4104 -1.1276 0.0000
v  0.3420 -0.9397 3.0000
v  0.3420 -0.9397 0.0000
v  -0.0000 -1.2000 3.0000
v  -0.0000 -1.2000 0.0000
v  -0.0000 -1.0000 3.0000
v  -0.0000 -1.0000 0.0000
v  -0.4104 -1.1276 3.0000
v  -0.4104 -1.1276 0.0000
v  -0.3420 -0.9397 3.0000
v  -0.3420 -0.9397 0.0000
v  -0.7713 -0.9193 3.0000
v  -0.7713 -0.9193 0.0000
v  -0.6428 -0.7660 3.0000
v  -0.6428 -0.7660 0.0000
v  -1.0392 -0.6000 3.0000
v  -1.0392 -0.6000 0.0000
v  -0.8660 -0.5000 3.0000
v  -0.8660 -0.5000 0.0000
v  -1.1818 -0.2084 3.0000
v  -1.1818 -0.2084 0.0000
v  -0.9848 -0.1736 3.0000
v  -0.9848 -0.1736 0.0000
v  -1.1818 0.2084 3.0000
v  -1.1818 0.2084 0.0000
v  -0.9848 0.1736 3.0000
v  -0.9848 0.1736 0.0000
v  -1.0392 0.6000 3.0000
v  -1.0392 0.6000 0.0000
v  -0.8660 0.5000 3.0000
v  -0.8660 0.5000 0.0000
v  -0.7713 0.9193 3.0000
v  -0.7713 0.9193 0.0000
v  -0.6428 0.7660 3.0000
v  -0.6428 0.7660 0.0000
v  -0.4104 1.1276 3.0000
v  -0.4104 1.1276 0.0000
v  -0.3420 0.9397 3.0000
v  -0.3420 0.9397 0.0000
v  1.1700 0.1250 2.7502
v  1.5976 -0.1250 2.6748
v  1.5976 0.1250 2.6748
v  1.1700 -0.1250 2.7502
v  1.5120 -0.1250 2.4397
v  1.1700 -0.1250 2.5000
v  1.5120 0.1250 2.4397
v  1.1700 0.1250 2.5000
v  1.9736 -0.1250 2.4577
v  1.9736 0.1250 2.4577
v  1.8128 -0.1250 2.2660
v  1.8128 0.1250 2.2660
v  2.2527 -0.1250 2.1251
v  2.2527 0.1250 2.1251
v  2.0360 -0.1250 2.0000
v  2.0360 0.1250 2.0000
v  2.4012 -0.1250 1.7171
v  2.4012 0.1250 1.7171
v  2.1548 -0.1250 1.6736
v  2.1548 0.1250 1.6736
v  2.4012 -0.1250 1.2829
v  2.4012 0.1250 1.2829
v  2.1548 -0.1250 1.3264
v  2.1548 0.1250 1.3264
v  2.2527 -0.1250 0.8749
v  2.2527 0.1250 0.8749
v  2.0360 -0.1250 1.0000
v  2.0360 0.1250 1.0000
v  1.9736 -0.1250 0.5423
v  1.9736 0.1250 0.5423
v  1.8128 -0.1250 0.7340
v  1.8128 0.1250 0.7340
v  1.5976 -0.1250 0.3252
v  1.5976 0.1250 0.3252
v  1.5120 -0.1250 0.5603
v  1.5120 0.1250 0.5603
v  1.1700 -0.1250 0.2498
v  1.1700 0.1250 0.2498
v  1.1700 -0.1250 0.5000
v  1.1700 0.1250 0.5000
# 112 vertices

vn 0.0000 1.0000 0.0000
vn 0.3420 0.9397 0.0000
vn 0.0000 0.0000 1.0000
vn -0.0000 -1.0000 0.0000
vn -0.3420 -0.9397 0.0000
vn 0.0000 0.0000 -1.0000
vn 0.6428 0.7660 0.0000
vn -0.6428 -0.7660 0.0000
vn 0.8660 0.5000 0.0000
vn -0.8660 -0.5000 0.0000
vn 0.9848 0.1736 0.0000
vn -0.9848 -0.1736 0.0000
vn 0.9848 -0.1736 0.0000
vn -0.9848 0.1736 0.0000
vn 0.8660 -0.5000 0.0000
vn -0.8660 0.5000 0.0000
vn 0.6428 -0.7660 0.0000
vn -0.6428 0.7660 0.0000
vn 0.3420 -0.9397 0.0000
vn -0.3420 0.9397 0.0000
vn 0.1736 0.0000 0.9848
vn 0.3420 0.0000 0.9397
vn -0.0000 -1.0000 -0.0000
vn 0.0000 -1.0000 -0.0000
vn -0.1736 0.0000 -0.9848
vn -0.3420 0.0000 -0.9397
vn -0.0000 1.0000 0.0000
vn 0.6428 0.0000 0.7660
vn 0.6428 -0.0000 0.7660
vn -0.6428 0.0000 -0.7660
vn 0.8660 -0.0000 0.5000
vn -0.8660 0.0000 -0.5000
vn 0.9848 -0.0000 0.1736
vn 0.9848 0.0000 0.1736
vn -0.9848 0.0000 -0.1736
vn 0.9848 0.0000 -0.1736
vn -0.9848 -0.0000 0.1736
vn 0.8660 0.0000 -0.5000
vn -0.8660 -0.0000 0.5000
vn 0.6428 0.0000 -0.7660
vn -0.6428 -0.0000 0.7660
vn 0.3420 0.0000 -0.9397
vn -0.3420 -0.0000 0.9397
vn 0.1736 0.0000 -0.9848
vn -0.1736 -0.0000 0.9848
vn -0.1736 0.0000 0.9848
# 46 vertex normals

vt 0.7032 0.0000 0.9000
vt 0.5664 1.0000 0.8759
vt 0.5664 0.0000 0.8759
vt 0.7032 1.0000 0.9000
vt 0.2968 0.9000 1.0000
vt 0.4108 0.8132 1.0000
vt 0.4336 0.8759 1.0000
vt 0.2968 0.8333 1.0000
vt 0.2968 1.0000 0.8333
vt 0.4108 0.0000 0.8132
vt 0.4108 1.0000 0.8132
vt 0.2968 0.0000 0.8333
vt 0.7032 0.8333 0.0000
vt 0.5664 0.8759 0.0000
vt 0.5892 0.8132 0.0000
vt 0.7032 0.9000 0.0000
vt 0.4461 1.0000 0.8064
vt 0.4461 0.0000 0.8064
vt 0.5110 0.7553 1.0000
vt 0.5539 0.8064 1.0000
vt 0.5110 0.0000 0.7553
vt 0.5110 1.0000 0.7553
vt 0.4461 0.8064 0.0000
vt 0.4890 0.7553 0.0000
vt 0.8064 0.0000 0.5539
vt 0.7000 1.0000 0.6432
vt 0.7000 0.0000 0.6432
vt 0.8064 1.0000 0.5539
vt 0.5854 0.6667 1.0000
vt 0.6432 0.7000 1.0000
vt 0.2447 1.0000 0.5110
vt 0.3333 0.0000 0.5854
vt 0.3333 1.0000 0.5854
vt 0.2447 0.0000 0.5110
vt 0.3568 0.7000 0.0000
vt 0.4146 0.6667 0.0000
vt 0.5695 1.0000 0.6907
vt 0.5695 0.0000 0.6907
vt 0.6250 0.5579 1.0000
vt 0.6907 0.5695 1.0000
vt 0.4421 0.0000 0.6250
vt 0.4421 1.0000 0.6250
vt 0.3093 0.5695 0.0000
vt 0.3750 0.5579 0.0000
vt 0.4305 1.0000 0.6907
vt 0.4305 0.0000 0.6907
vt 0.6250 0.4421 1.0000
vt 0.6907 0.4305 1.0000
vt 0.5579 0.0000 0.6250
vt 0.5579 1.0000 0.6250
vt 0.3093 0.4305 0.0000
vt 0.3750 0.4421 0.0000
vt 0.3000 1.0000 0.6432
vt 0.3000 0.0000 0.6432
vt 0.5854 0.3333 1.0000
vt 0.6432 0.3000 1.0000
vt 0.6667 0.0000 0.5854
vt 0.6667 1.0000 0.5854
vt 0.3568 0.3000 0.0000
vt 0.4146 0.3333 0.0000
vt 0.1936 1.0000 0.5539
vt 0.1936 0.0000 0.5539
vt 0.5110 0.2447 1.0000
vt 0.5539 0.1936 1.0000
vt 0.7553 0.0000 0.5110
vt 0.7553 1.0000 0.5110
vt 0.4461 0.1936 0.0000
vt 0.4890 0.2447 0.0000
vt 0.5539 0.0000 0.1936
vt 0.4336 1.0000 0.1241
vt 0.4336 0.0000 0.1241
vt 0.5539 1.0000 0.1936
vt 0.4108 0.1868 1.0000
vt 0.4336 0.1241 1.0000
vt 0.4890 1.0000 0.2447
vt 0.5892 0.0000 0.1868
vt 0.5892 1.0000 0.1868
vt 0.4890 0.0000 0.2447
vt 0.5664 0.1241 0.0000
vt 0.5892 0.1868 0.0000
vt 0.2968 1.0000 0.1000
vt 0.2968 0.0000 0.1000
vt 0.2968 0.1667 1.0000
vt 0.2968 0.1000 1.0000
vt 0.7032 0.0000 0.1667
vt 0.7032 1.0000 0.1667
vt 0.7032 0.1000 0.0000
vt 0.7032 0.1667 0.0000
vt 0.1600 1.0000 0.1241
vt 0.1600 0.0000 0.1241
vt 0.1828 0.1868 1.0000
vt 0.1600 0.1241 1.0000
vt 0.8172 0.0000 0.1868
vt 0.8172 1.0000 0.1868
vt 0.8400 0.1241 0.0000
vt 0.8172 0.1868 0.0000
vt 0.0396 1.0000 0.1936
vt 0.0396 0.0000 0.1936
vt 0.0825 0.2447 1.0000
vt 0.0396 0.1936 1.0000
vt 0.9175 0.0000 0.2447
vt 0.9175 1.0000 0.2447
vt 0.9604 0.1936 0.0000
vt 0.9175 0.2447 0.0000
vt 0.8064 0.0000 0.0396
vt 0.7000 1.0000 -0.0496
vt 0.7000 0.0000 -0.0496
vt 0.8064 1.0000 0.0396
vt 0.0081 0.3333 1.0000
vt -0.0496 0.3000 1.0000
vt 0.2447 1.0000 0.0825
vt 0.3333 0.0000 0.0081
vt 0.3333 1.0000 0.0081
vt 0.2447 0.0000 0.0825
vt 1.0496 0.3000 0.0000
vt 0.9919 0.3333 0.0000
vt 0.5695 1.0000 -0.0972
vt 0.5695 0.0000 -0.0972
vt -0.0315 0.4421 1.0000
vt -0.0972 0.4305 1.0000
vt 0.4421 0.0000 -0.0315
vt 0.4421 1.0000 -0.0315
vt 1.0972 0.4305 0.0000
vt 1.0315 0.4421 0.0000
vt 0.4305 1.0000 -0.0972
vt 0.4305 0.0000 -0.0972
vt -0.0315 0.5579 1.0000
vt -0.0972 0.5695 1.0000
vt 0.5579 0.0000 -0.0315
vt 0.5579 1.0000 -0.0315
vt 1.0972 0.5695 0.0000
vt 1.0315 0.5579 0.0000
vt 0.3000 1.0000 -0.0496
vt 0.3000 0.0000 -0.0496
vt 0.0081 0.6667 1.0000
vt -0.0496 0.7000 1.0000
vt 0.6667 0.0000 0.0081
vt 0.6667 1.0000 0.0081
vt 1.0496 0.7000 0.0000
vt 0.9919 0.6667 0.0000
vt 0.1936 1.0000 0.0397
vt 0.1936 0.0000 0.0397
vt 0.0825 0.7553 1.0000
vt 0.0397 0.8064 1.0000
vt 0.7553 0.0000 0.0825
vt 0.7553 1.0000 0.0825
vt 0.9603 0.8064 0.0000
vt 0.9175 0.7553 0.0000
vt 0.9603 0.0000 0.8064
vt 0.8400 1.0000 0.8759
vt 0.8400 0.0000 0.8759
vt 0.9603 1.0000 0.8064
vt 0.1828 0.8132 1.0000
vt 0.1600 0.8759 1.0000
vt 0.0825 1.0000 0.7553
vt 0.1828 0.0000 0.8132
vt 0.1828 1.0000 0.8132
vt 0.0825 0.0000 0.7553
vt 0.8400 0.8759 0.0000
vt 0.8172 0.8132 0.0000
vt 0.6868 0.5417 0.9167
vt 0.8293 0.4583 0.8916
vt 0.8293 0.5417 0.8916
vt 0.6868 0.4583 0.9167
vt 0.6868 0.9167 0.4583
vt 0.8008 0.8132 0.4583
vt 0.8293 0.8916 0.4583
vt 0.6868 0.8333 0.4583
vt 0.3132 0.4583 0.8333
vt 0.1992 0.5417 0.8132
vt 0.1992 0.4583 0.8132
vt 0.3132 0.5417 0.8333
vt 0.3132 0.8333 0.5417
vt 0.1707 0.8916 0.5417
vt 0.1992 0.8132 0.5417
vt 0.3132 0.9167 0.5417
vt 0.9546 0.4583 0.8192
vt 0.9546 0.5417 0.8192
vt 0.9010 0.7553 0.4583
vt 0.9546 0.8192 0.4583
vt 0.0990 0.5417 0.7553
vt 0.0990 0.4583 0.7553
vt 0.0454 0.8192 0.5417
vt 0.0990 0.7553 0.5417
vt 0.5417 0.8192 0.9546
vt 0.4583 0.7084 1.0477
vt 0.5417 0.7084 1.0477
vt 0.4583 0.8192 0.9546
vt 0.9754 0.6667 0.4583
vt 1.0477 0.7084 0.4583
vt 0.5417 0.7553 0.9010
vt 0.4583 0.6667 0.9754
vt 0.5417 0.6667 0.9754
vt 0.4583 0.7553 0.9010
vt -0.0477 0.7084 0.5417
vt 0.0246 0.6667 0.5417
vt 0.4583 0.5724 1.0972
vt 0.5417 0.5724 1.0972
vt 1.0150 0.5579 0.4583
vt 1.0972 0.5724 0.4583
vt 0.4583 0.5579 1.0150
vt 0.5417 0.5579 1.0150
vt -0.0972 0.5724 0.5417
vt -0.0150 0.5579 0.5417
vt 0.4583 0.4276 1.0972
vt 0.5417 0.4276 1.0972
vt 1.0150 0.4421 0.4583
vt 1.0972 0.4276 0.4583
vt 0.4583 0.4421 1.0150
vt 0.5417 0.4421 1.0150
vt -0.0972 0.4276 0.5417
vt -0.0150 0.4421 0.5417
vt 0.4583 0.2916 1.0477
vt 0.5417 0.2916 1.0477
vt 0.9754 0.3333 0.4583
vt 1.0477 0.2916 0.4583
vt 0.4583 0.3333 0.9754
vt 0.5417 0.3333 0.9754
vt -0.0477 0.2916 0.5417
vt 0.0246 0.3333 0.5417
vt 0.4583 0.1808 0.9546
vt 0.5417 0.1808 0.9546
vt 0.9010 0.2447 0.4583
vt 0.9546 0.1808 0.4583
vt 0.4583 0.2447 0.9010
vt 0.5417 0.2447 0.9010
vt 0.0454 0.1808 0.5417
vt 0.0990 0.2447 0.5417
vt 0.0454 0.5417 0.1808
vt 0.1707 0.4583 0.1084
vt 0.1707 0.5417 0.1084
vt 0.0454 0.4583 0.1808
vt 0.8008 0.1868 0.4583
vt 0.8293 0.1084 0.4583
vt 0.9010 0.4583 0.2447
vt 0.8008 0.5417 0.1868
vt 0.8008 0.4583 0.1868
vt 0.9010 0.5417 0.2447
vt 0.1707 0.1084 0.5417
vt 0.1992 0.1868 0.5417
vt 0.3132 0.4583 0.0833
vt 0.3132 0.5417 0.0833
vt 0.6868 0.1667 0.4583
vt 0.6868 0.0833 0.4583
vt 0.6868 0.5417 0.1667
vt 0.6868 0.4583 0.1667
vt 0.3132 0.0833 0.5417
vt 0.3132 0.1667 0.5417
# 248 texture coords

o Cup_00
g Cup_00
s 2
f 1/1/1 2/2/2 3/3/2 
f 1/1/1 4/4/1 2/2/2 
s 4
f 4/5/3 5/6/3 2/7/3 
f 4/5/3 6/8/3 5/6/3 
s 2
f 6/9/4 7/10/5 5/11/5 
f 6/9/4 8/12/4 7/10/5 
s 4
f 8/13/6 3/14/6 7/15/6 
f 8/13/6 1/16/6 3/14/6 
s 2
f 3/3/2 9/17/7 10/18/7 
f 3/3/2 2/2/2 9/17/7 
s 4
f 2/7/3 11/19/3 9/20/3 
f 2/7/3 5/6/3 11/19/3 
s 2
f 5/11/5 12/21/8 11/22/8 
f 5/11/5 7/10/5 12/21/8 
s 4
f 7/15/6 10/23/6 12/24/6 
f 7/15/6 3/14/6 10/23/6 
s 2
f 10/25/7 13/26/9 14/27/9 
f 10/25/7 9/28/7 13/26/9 
s 4
f 9/20/3 15/29/3 13/30/3 
f 9/20/3 11/19/3 15/29/3 
s 2
f 11/31/8 16/32/10 15/33/10 
f 11/31/8 12/34/8 16/32/10 
s 4
f 12/24/6 14/35/6 16/36/6 
f 12/24/6 10/23/6 14/35/6 
s 2
f 14/27/9 17/37/11 18/38/11 
f 14/27/9 13/26/9 17/37/11 
s 4
f 13/30/3 19/39/3 17/40/3 
f 13/30/3 15/29/3 19/39/3 
s 2
f 15/33/10 20/41/12 19/42/12 
f 15/33/10 16/32/10 20/41/12 
s 4
f 16/36/6 18/43/6 20/44/6 
f 16/36/6 14/35/6 18/43/6 
s 2
f 18/38/11 21/45/13 22/46/13 
f 18/38/11 17/37/11 21/45/13 
s 4
f 17/40/3 23/47/3 21/48/3 
f 17/40/3 19/39/3 23/47/3 
s 2
f 19/42/12 24/49/14 23/50/14 
f 19/42/12 20/41/12 24/49/14 
s 4
f 20/44/6 22/51/6 24/52/6 
f 20/44/6 18/43/6 22/51/6 
s 2
f 22/46/13 25/53/15 26/54/15 
f 22/46/13 21/45/13 25/53/15 
s 4
f 21/48/3 27/55/3 25/56/3 
f 21/48/3 23/47/3 27/55/3 
s 2
f 23/50/14 28/57/16 27/58/16 
f 23/50/14 24/49/14 28/57/16 
s 4
f 24/52/6 26/59/6 28/60/6 
f 24/52/6 22/51/6 26/59/6 
s 2
f 26/54/15 29/61/17 30/62/17 
f 26/54/15 25/53/15 29/61/17 
s 4
f 25/56/3 31/63/3 29/64/3 
f 25/56/3 27/55/3 31/63/3 
s 2
f 27/58/16 32/65/18 31/66/18 
f 27/58/16 28/57/16 32/65/18 
s 4
f 28/60/6 30/67/6 32/68/6 
f 28/60/6 26/59/6 30/67/6 
s 2
f 30/69/17 33/70/19 34/71/19 
f 30/69/17 29/72/17 33/70/19 
s 4
f 29/64/3 35/73/3 33/74/3 
f 29/64/3 31/63/3 35/73/3 
s 2
f 31/75/18 36/76/20 35/77/20 
f 31/75/18 32/78/18 36/76/20 
s 4
f 32/68/6 34/79/6 36/80/6 
f 32/68/6 30/67/6 34/79/6 
s 2
f 34/71/19 37/81/4 38/82/4 
f 34/71/19 33/70/19 37/81/4 
s 4
f 33/74/3 39/83/3 37/84/3 
f 33/74/3 35/73/3 39/83/3 
s 2
f 35/77/20 40/85/1 39/86/1 
f 35/77/20 36/76/20 40/85/1 
s 4
f 36/80/6 38/87/6 40/88/6 
f 36/80/6 34/79/6 38/87/6 
s 2
f 38/82/4 41/89/5 42/90/5 
f 38/82/4 37/81/4 41/89/5 
s 4
f 37/84/3 43/91/3 41/92/3 
f 37/84/3 39/83/3 43/91/3 
s 2
f 39/86/1 44/93/2 43/94/2 
f 39/86/1 40/85/1 44/93/2 
s 4
f 40/88/6 42/95/6 44/96/6 
f 40/88/6 38/87/6 42/95/6 
s 2
f 42/90/5 45/97/8 46/98/8 
f 42/90/5 41/89/5 45/97/8 
s 4
f 41/92/3 47/99/3 45/100/3 
f 41/92/3 43/91/3 47/99/3 
s 2
f 43/94/2 48/101/7 47/102/7 
f 43/94/2 44/93/2 48/101/7 
s 4
f 44/96/6 46/103/6 48/104/6 
f 44/96/6 42/95/6 46/103/6 
s 2
f 46/105/8 49/106/10 50/107/10 
f 46/105/8 45/108/8 49/106/10 
s 4
f 45/100/3 51/109/3 49/110/3 
f 45/100/3 47/99/3 51/109/3 
s 2
f 47/111/7 52/112/9 51/113/9 
f 47/111/7 48/114/7 52/112/9 
s 4
f 48/104/6 50/115/6 52/116/6 
f 48/104/6 46/103/6 50/115/6 
s 2
f 50/107/10 53/117/12 54/118/12 
f 50/107/10 49/106/10 53/117/12 
s 4
f 49/110/3 55/119/3 53/120/3 
f 49/110/3 51/109/3 55/119/3 
s 2
f 51/113/9 56/121/11 55/122/11 
f 51/113/9 52/112/9 56/121/11 
s 4
f 52/116/6 54/123/6 56/124/6 
f 52/116/6 50/115/6 54/123/6 
s 2
f 54/118/12 57/125/14 58/126/14 
f 54/118/12 53/117/12 57/125/14 
s 4
f 53/120/3 59/127/3 57/128/3 
f 53/120/3 55/119/3 59/127/3 
s 2
f 55/122/11 60/129/13 59/130/13 
f 55/122/11 56/121/11 60/129/13 
s 4
f 56/124/6 58/131/6 60/132/6 
f 56/124/6 54/123/6 58/131/6 
s 2
f 58/126/14 61/133/16 62/134/16 
f 58/126/14 57/125/14 61/133/16 
s 4
f 57/128/3 63/135/3 61/136/3 
f 57/128/3 59/127/3 63/135/3 
s 2
f 59/130/13 64/137/15 63/138/15 
f 59/130/13 60/129/13 64/137/15 
s 4
f 60/132/6 62/139/6 64/140/6 
f 60/132/6 58/131/6 62/139/6 
s 2
f 62/134/16 65/141/18 66/142/18 
f 62/134/16 61/133/16 65/141/18 
s 4
f 61/136/3 67/143/3 65/144/3 
f 61/136/3 63/135/3 67/143/3 
s 2
f 63/138/15 68/145/17 67/146/17 
f 63/138/15 64/137/15 68/145/17 
s 4
f 64/140/6 66/147/6 68/148/6 
f 64/140/6 62/139/6 66/147/6 
s 2
f 66/149/18 69/150/20 70/151/20 
f 66/149/18 65/152/18 69/150/20 
s 4
f 65/144/3 71/153/3 69/154/3 
f 65/144/3 67/143/3 71/153/3 
s 2
f 67/155/17 72/156/19 71/157/19 
f 67/155/17 68/158/17 72/156/19 
s 4
f 68/148/6 70/159/6 72/160/6 
f 68/148/6 66/147/6 70/159/6 
s 2
f 70/151/20 4/4/1 1/1/1 
f 70/151/20 69/150/20 4/4/1 
s 4
f 69/154/3 6/8/3 4/5/3 
f 69/154/3 71/153/3 6/8/3 
s 2
f 71/157/19 8/12/4 6/9/4 
f 71/157/19 72/156/19 8/12/4 
s 4
f 72/160/6 1/16/6 8/13/6 
f 72/160/6 70/159/6 1/16/6 
s 2
f 73/161/21 74/162/22 75/163/22 
f 73/161/21 76/164/21 74/162/22 
s 4
f 76/165/23 77/166/24 74/167/24 
f 76/165/23 78/168/23 77/166/24 
s 2
f 78/169/25 79/170/26 77/171/26 
f 78/169/25 80/172/25 79/170/26 
s 4
f 80/173/1 75/174/1 79/175/27 
f 80/173/1 73/176/1 75/174/1 
s 2
f 75/163/22 81/177/28 82/178/29 
f 75/163/22 74/162/22 81/177/28 
s 4
f 74/167/24 83/179/23 81/180/24 
f 74/167/24 77/166/24 83/179/23 
s 2
f 77/171/26 84/181/30 83/182/30 
f 77/171/26 79/170/26 84/181/30 
s 4
f 79/175/27 82/183/27 84/184/27 
f 79/175/27 75/174/1 82/183/27 
s 2
f 82/185/29 85/186/31 86/187/31 
f 82/185/29 81/188/28 85/186/31 
s 4
f 81/180/24 87/189/24 85/190/24 
f 81/180/24 83/179/23 87/189/24 
s 2
f 83/191/30 88/192/32 87/193/32 
f 83/191/30 84/194/30 88/192/32 
s 4
f 84/184/27 86/195/1 88/196/1 
f 84/184/27 82/183/27 86/195/1 
s 2
f 86/187/31 89/197/33 90/198/34 
f 86/187/31 85/186/31 89/197/33 
s 4
f 85/190/24 91/199/24 89/200/24 
f 85/190/24 87/189/24 91/199/24 
s 2
f 87/193/32 92/201/35 91/202/35 
f 87/193/32 88/192/32 92/201/35 
s 4
f 88/196/1 90/203/1 92/204/1 
f 88/196/1 86/195/1 90/203/1 
s 2
f 90/198/34 93/205/36 94/206/36 
f 90/198/34 89/197/33 93/205/36 
s 4
f 89/200/24 95/207/23 93/208/23 
f 89/200/24 91/199/24 95/207/23 
s 2
f 91/202/35 96/209/37 95/210/37 
f 91/202/35 92/201/35 96/209/37 
s 4
f 92/204/1 94/211/1 96/212/1 
f 92/204/1 90/203/1 94/211/1 
s 2
f 94/206/36 97/213/38 98/214/38 
f 94/206/36 93/205/36 97/213/38 
s 4
f 93/208/23 99/215/24 97/216/24 
f 93/208/23 95/207/23 99/215/24 
s 2
f 95/210/37 100/217/39 99/218/39 
f 95/210/37 96/209/37 100/217/39 
s 4
f 96/212/1 98/219/27 100/220/27 
f 96/212/1 94/211/1 98/219/27 
s 2
f 98/214/38 101/221/40 102/222/40 
f 98/214/38 97/213/38 101/221/40 
s 4
f 97/216/24 103/223/24 101/224/24 
f 97/216/24 99/215/24 103/223/24 
s 2
f 99/218/39 104/225/41 103/226/41 
f 99/218/39 100/217/39 104/225/41 
s 4
f 100/220/27 102/227/1 104/228/1 
f 100/220/27 98/219/27 102/227/1 
s 2
f 102/229/40 105/230/42 106/231/42 
f 102/229/40 101/232/40 105/230/42 
s 4
f 101/224/24 107/233/23 105/234/23 
f 101/224/24 103/223/24 107/233/23 
s 2
f 103/235/41 108/236/43 107/237/43 
f 103/235/41 104/238/41 108/236/43 
s 4
f 104/228/1 106/239/1 108/240/27 
f 104/228/1 102/227/1 106/239/1 
s 2
f 106/231/42 109/241/44 110/242/44 
f 106/231/42 105/230/42 109/241/44 
s 4
f 105/234/23 111/243/23 109/244/23 
f 105/234/23 107/233/23 111/243/23 
s 2
f 107/237/43 112/245/45 111/246/46 
f 107/237/43 108/236/43 112/245/45 
s 4
f 108/240/27 110/247/1 112/248/1 
f 108/240/27 106/239/1 110/247/1 
# 216 faces

