# 3ds Max Wavefront OBJ Exporter v0.99 - (c)2007 guruware
# File Created: 23.02.2022 22:32:35

#
# object Monitor_00
#

v  5.0000 -5.0000 0.0000
v  -5.0000 -5.0000 0.0000
v  -5.0000 5.0000 0.0000
v  5.0000 5.0000 0.0000
v  5.0000 -5.0000 1.0000
v  5.0000 5.0000 1.0000
v  -5.0000 5.0000 1.0000
v  -5.0000 -5.0000 1.0000
v  1.2500 -3.7500 1.0000
v  -1.2500 -3.7500 1.0000
v  -1.2500 3.7500 1.0000
v  1.2500 3.7500 1.0000
v  1.2500 -3.7500 3.5000
v  1.2500 3.7500 3.5000
v  -1.2500 3.7500 3.5000
v  -1.2500 -3.7500 3.5000
v  1.2500 -15.0000 3.5000
v  -1.2500 -15.0000 3.5000
v  -1.2500 15.0000 3.5000
v  1.2500 15.0000 3.5000
v  1.2500 -15.0000 23.5000
v  1.2500 15.0000 23.5000
v  -1.2500 15.0000 23.5000
v  -1.2500 -15.0000 23.5000
# 24 vertices

vn 0.0000 0.0000 -1.0000
vn 0.0000 0.0000 1.0000
vn 1.0000 0.0000 0.0000
vn -0.0000 1.0000 0.0000
vn -1.0000 -0.0000 0.0000
vn 0.0000 -1.0000 0.0000
# 6 vertex normals

vt 0.7000 0.3000 0.0300
vt 0.7000 0.7000 0.0300
vt 0.3000 0.7000 0.0300
vt 0.3000 0.3000 0.0300
vt 0.3000 0.3000 0.0700
vt 0.7000 0.3000 0.0700
vt 0.7000 0.7000 0.0700
vt 0.3000 0.7000 0.0700
vt 0.3000 0.0300 0.3000
vt 0.7000 0.0300 0.3000
vt 0.7000 0.0700 0.3000
vt 0.3000 0.0700 0.3000
vt 0.3000 0.0300 0.7000
vt 0.7000 0.0300 0.7000
vt 0.7000 0.0700 0.7000
vt 0.3000 0.0700 0.7000
vt 0.6500 0.4500 0.0700
vt 0.6500 0.5500 0.0700
vt 0.3500 0.5500 0.0700
vt 0.3500 0.4500 0.0700
vt 0.3500 0.4500 0.1700
vt 0.6500 0.4500 0.1700
vt 0.6500 0.5500 0.1700
vt 0.3500 0.5500 0.1700
vt 0.3500 0.0700 0.4500
vt 0.6500 0.0700 0.4500
vt 0.6500 0.1700 0.4500
vt 0.3500 0.1700 0.4500
vt 0.4500 0.0700 0.6500
vt 0.5500 0.0700 0.6500
vt 0.5500 0.1700 0.6500
vt 0.4500 0.1700 0.6500
vt 0.3500 0.0700 0.5500
vt 0.6500 0.0700 0.5500
vt 0.6500 0.1700 0.5500
vt 0.3500 0.1700 0.5500
vt 0.4500 0.0700 0.3500
vt 0.5500 0.0700 0.3500
vt 0.5500 0.1700 0.3500
vt 0.4500 0.1700 0.3500
vt 1.1000 0.4500 0.1700
vt 1.1000 0.5500 0.1700
vt -0.1000 0.5500 0.1700
vt -0.1000 0.4500 0.1700
vt -0.1000 0.4500 0.9700
vt 1.1000 0.4500 0.9700
vt 1.1000 0.5500 0.9700
vt -0.1000 0.5500 0.9700
vt -0.1000 0.1700 0.4500
vt 1.1000 0.1700 0.4500
vt 1.1000 0.9700 0.4500
vt -0.1000 0.9700 0.4500
vt 0.4500 0.1700 1.1000
vt 0.5500 0.1700 1.1000
vt 0.5500 0.9700 1.1000
vt 0.4500 0.9700 1.1000
vt -0.1000 0.1700 0.5500
vt 1.1000 0.1700 0.5500
vt 1.1000 0.9700 0.5500
vt -0.1000 0.9700 0.5500
vt 0.4500 0.1700 -0.1000
vt 0.5500 0.1700 -0.1000
vt 0.5500 0.9700 -0.1000
vt 0.4500 0.9700 -0.1000
# 64 texture coords

o Monitor_00
g Monitor_00
s 2
f 1/1/1 2/2/1 3/3/1 
f 3/3/1 4/4/1 1/1/1 
s 4
f 5/5/2 6/6/2 7/7/2 
f 7/7/2 8/8/2 5/5/2 
s 8
f 1/9/3 4/10/3 6/11/3 
f 6/11/3 5/12/3 1/9/3 
s 16
f 4/13/4 3/14/4 7/15/4 
f 7/15/4 6/16/4 4/13/4 
s 32
f 3/13/5 2/14/5 8/15/5 
f 8/15/5 7/16/5 3/13/5 
s 64
f 2/9/6 1/10/6 5/11/6 
f 5/11/6 8/12/6 2/9/6 
s 2
f 9/17/1 10/18/1 11/19/1 
f 11/19/1 12/20/1 9/17/1 
s 4
f 13/21/2 14/22/2 15/23/2 
f 15/23/2 16/24/2 13/21/2 
s 8
f 9/25/3 12/26/3 14/27/3 
f 14/27/3 13/28/3 9/25/3 
s 16
f 12/29/4 11/30/4 15/31/4 
f 15/31/4 14/32/4 12/29/4 
s 32
f 11/33/5 10/34/5 16/35/5 
f 16/35/5 15/36/5 11/33/5 
s 64
f 10/37/6 9/38/6 13/39/6 
f 13/39/6 16/40/6 10/37/6 
s 2
f 17/41/1 18/42/1 19/43/1 
f 19/43/1 20/44/1 17/41/1 
s 4
f 21/45/2 22/46/2 23/47/2 
f 23/47/2 24/48/2 21/45/2 
s 8
f 17/49/3 20/50/3 22/51/3 
f 22/51/3 21/52/3 17/49/3 
s 16
f 20/53/4 19/54/4 23/55/4 
f 23/55/4 22/56/4 20/53/4 
s 32
f 19/57/5 18/58/5 24/59/5 
f 24/59/5 23/60/5 19/57/5 
s 64
f 18/61/6 17/62/6 21/63/6 
f 21/63/6 24/64/6 18/61/6 
# 36 faces

