# 3ds Max Wavefront OBJ Exporter v0.99 - (c)2007 guruware
# File Created: 06.08.2022 20:48:34

#
# object Divan
#

v  67.868 -97.150 0.000
v  -70.650 -97.150 0.000
v  -70.650 91.310 0.000
v  -67.868 97.150 0.000
v  70.650 97.150 0.000
v  70.650 -91.310 0.000
v  70.650 -91.310 45.000
v  70.650 97.150 45.000
v  -67.868 97.150 45.000
v  -70.650 91.310 45.000
v  -70.650 -97.150 45.000
v  67.868 -97.150 45.000
v  73.500 -74.350 2.850
v  73.500 97.150 2.850
v  73.500 97.150 41.438
v  73.500 74.350 42.150
v  73.500 -97.150 42.150
v  73.500 -97.150 3.563
v  54.454 100.000 2.850
v  -70.650 100.000 2.850
v  -70.650 100.000 41.147
v  -54.454 100.000 42.150
v  70.650 100.000 42.150
v  70.650 100.000 3.853
v  -73.500 74.350 2.850
v  -73.500 -97.150 2.850
v  -73.500 -97.150 41.438
v  -73.500 -74.350 42.150
v  -73.500 97.150 42.150
v  -73.500 97.150 3.563
v  -54.454 -100.000 2.850
v  70.650 -100.000 2.850
v  70.650 -100.000 41.147
v  54.454 -100.000 42.150
v  -70.650 -100.000 42.150
v  -70.650 -100.000 3.853
v  -19.365 102.900 0.000
v  -70.369 102.900 0.000
v  -70.369 109.553 0.000
v  -34.373 109.900 0.000
v  16.631 109.900 0.000
v  16.631 103.247 0.000
v  16.631 103.247 63.000
v  16.631 109.900 63.000
v  -34.373 109.900 63.000
v  -70.369 109.553 63.000
v  -70.369 102.900 63.000
v  -19.365 102.900 63.000
v  19.131 103.421 2.500
v  19.131 109.900 2.500
v  19.131 109.900 36.514
v  19.131 109.379 60.500
v  19.131 102.900 60.500
v  19.131 102.900 26.486
v  11.056 112.400 2.500
v  -70.369 112.400 2.500
v  -70.369 112.400 58.258
v  -64.793 112.400 60.500
v  16.631 112.400 60.500
v  16.631 112.400 4.742
v  -72.869 109.379 2.500
v  -72.869 102.900 2.500
v  -72.869 102.900 36.514
v  -72.869 103.421 60.500
v  -72.869 109.900 60.500
v  -72.869 109.900 26.486
v  -64.793 100.400 2.500
v  16.631 100.400 2.500
v  16.631 100.400 58.258
v  11.056 100.400 60.500
v  -70.369 100.400 60.500
v  -70.369 100.400 4.742
v  -19.365 -109.900 0.000
v  -70.369 -109.900 0.000
v  -70.369 -103.247 0.000
v  -34.373 -102.900 0.000
v  16.631 -102.900 0.000
v  16.631 -109.553 0.000
v  16.631 -109.553 63.000
v  16.631 -102.900 63.000
v  -34.373 -102.900 63.000
v  -70.369 -103.247 63.000
v  -70.369 -109.900 63.000
v  -19.365 -109.900 63.000
v  19.131 -109.379 2.500
v  19.131 -102.900 2.500
v  19.131 -102.900 36.514
v  19.131 -103.421 60.500
v  19.131 -109.900 60.500
v  19.131 -109.900 26.486
v  11.056 -100.400 2.500
v  -70.369 -100.400 2.500
v  -70.369 -100.400 58.258
v  -64.793 -100.400 60.500
v  16.631 -100.400 60.500
v  16.631 -100.400 4.742
v  -72.869 -103.421 2.500
v  -72.869 -109.900 2.500
v  -72.869 -109.900 36.514
v  -72.869 -109.379 60.500
v  -72.869 -102.900 60.500
v  -72.869 -102.900 26.486
v  -64.793 -112.400 2.500
v  16.631 -112.400 2.500
v  16.631 -112.400 58.258
v  11.056 -112.400 60.500
v  -70.369 -112.400 60.500
v  -70.369 -112.400 4.742
# 108 vertices

vn 0.000 0.000 -1.000
vn 0.000 0.000 1.000
vn 1.000 0.000 0.000
vn -0.000 1.000 0.000
vn -1.000 -0.000 0.000
vn 0.000 -1.000 0.000
vn 0.467 -0.222 0.856
vn 0.534 -0.026 -0.845
vn 0.509 -0.308 -0.804
vn 0.057 0.382 -0.922
vn 0.146 0.978 -0.146
vn -0.057 -0.382 -0.922
vn -0.146 -0.978 -0.146
vn -0.271 0.030 -0.962
vn -0.675 0.075 -0.734
vn -0.467 0.222 0.856
vn 0.229 -0.109 -0.967
vn 0.057 -0.405 0.913
vn 0.083 -0.404 0.911
vn 0.271 0.030 0.962
vn 0.988 0.110 0.110
vn -0.271 -0.030 0.962
vn -0.988 -0.110 0.110
vn -0.057 0.382 0.922
vn -0.062 0.413 0.909
vn -0.229 0.109 -0.967
vn 0.000 -0.707 -0.707
vn -0.707 -0.000 -0.707
vn -0.000 0.707 -0.707
vn 0.707 0.000 -0.707
vn 0.707 0.000 0.707
vn -0.000 0.707 0.707
vn -0.707 -0.000 0.707
vn 0.000 -0.707 0.707
vn 0.707 0.707 0.000
vn 0.707 -0.707 0.000
vn -0.707 0.707 0.000
vn -0.707 -0.707 0.000
vn 0.010 -0.998 0.060
vn 0.015 -1.000 -0.022
vn 0.077 0.991 -0.111
vn 0.238 0.770 -0.592
vn 0.284 0.916 -0.284
vn -0.238 -0.770 -0.592
vn -0.284 -0.916 -0.284
vn -0.770 0.637 -0.014
vn -0.065 0.054 -0.996
vn -0.010 0.998 0.060
vn 0.006 -0.667 0.745
vn 0.203 -0.840 0.504
vn 0.368 -0.797 0.479
vn 0.770 0.637 0.014
vn 0.650 0.538 0.538
vn -0.770 -0.637 0.014
vn -0.650 -0.538 0.538
vn -0.238 0.770 0.592
vn -0.272 0.878 0.394
vn -0.006 0.667 0.745
# 58 vertex normals

vt 0.932 0.038 0.000
vt 0.932 0.981 0.000
vt 0.094 0.981 0.000
vt 0.068 0.962 0.000
vt 0.068 0.019 0.000
vt 0.906 0.019 0.000
vt 0.094 0.019 0.714
vt 0.932 0.019 0.714
vt 0.932 0.962 0.714
vt 0.906 0.981 0.714
vt 0.068 0.981 0.714
vt 0.068 0.038 0.714
vt 0.169 0.045 0.000
vt 0.932 0.045 0.000
vt 0.932 0.658 0.000
vt 0.831 0.669 0.000
vt 0.068 0.669 0.000
vt 0.068 0.057 0.000
vt 0.130 0.045 0.945
vt 0.981 0.045 0.945
vt 0.981 0.653 0.945
vt 0.870 0.669 0.945
vt 0.019 0.669 0.945
vt 0.019 0.061 0.945
vt 0.169 0.045 1.000
vt 0.932 0.045 1.000
vt 0.932 0.658 1.000
vt 0.831 0.669 1.000
vt 0.068 0.669 1.000
vt 0.068 0.057 1.000
vt 0.130 0.045 0.055
vt 0.981 0.045 0.055
vt 0.981 0.653 0.055
vt 0.870 0.669 0.055
vt 0.019 0.669 0.055
vt 0.019 0.061 0.055
vt 0.068 0.038 0.000
vt 0.094 0.019 0.000
vt 0.169 0.000 0.045
vt 0.831 0.000 0.045
vt 0.932 0.000 0.057
vt 0.945 0.019 0.045
vt 0.055 0.130 0.045
vt 0.055 0.019 0.061
vt 0.068 0.000 0.045
vt 0.000 0.045 0.932
vt 0.019 0.000 0.932
vt 0.945 0.870 0.045
vt 0.945 0.981 0.061
vt 0.932 1.000 0.045
vt 0.000 0.045 0.068
vt 0.019 0.000 0.068
vt 0.169 1.000 0.045
vt 0.068 1.000 0.057
vt 0.055 0.981 0.045
vt 0.831 1.000 0.045
vt 0.932 0.962 0.000
vt 0.906 0.981 0.000
vt 0.906 0.019 0.714
vt 0.932 0.038 0.714
vt 0.945 0.130 0.669
vt 0.055 0.130 0.669
vt 0.055 0.019 0.653
vt 0.068 0.000 0.669
vt 0.831 0.000 0.669
vt 0.932 0.000 0.658
vt 0.945 0.019 0.669
vt 0.945 0.669 0.019
vt 0.932 0.714 0.019
vt 0.169 1.000 0.669
vt 0.068 1.000 0.658
vt 0.055 0.981 0.669
vt 0.945 0.669 0.981
vt 0.932 0.714 0.981
vt 0.945 0.870 0.669
vt 0.945 0.981 0.653
vt 0.932 1.000 0.669
vt 0.055 0.870 0.669
vt 0.094 0.981 0.714
vt 0.068 0.962 0.714
vt 0.945 0.061 0.019
vt 0.055 0.045 0.019
vt 0.055 0.653 0.019
vt 0.055 0.045 0.981
vt 0.055 0.653 0.981
vt 0.945 0.061 0.981
vt 0.042 0.632 0.000
vt 0.042 0.979 0.000
vt 0.013 0.979 0.000
vt 0.011 0.734 0.000
vt 0.011 0.387 0.000
vt 0.041 0.387 0.000
vt 0.959 0.387 1.000
vt 0.989 0.387 1.000
vt 0.989 0.734 1.000
vt 0.987 0.979 1.000
vt 0.958 0.979 1.000
vt 0.958 0.632 1.000
vt 0.960 0.040 0.370
vt 0.989 0.040 0.370
vt 0.989 0.580 0.370
vt 0.987 0.960 0.370
vt 0.958 0.960 0.370
vt 0.958 0.420 0.370
vt 0.425 0.040 1.000
vt 0.979 0.040 1.000
vt 0.979 0.925 1.000
vt 0.941 0.960 1.000
vt 0.387 0.960 1.000
vt 0.387 0.075 1.000
vt 0.013 0.040 0.996
vt 0.042 0.040 0.996
vt 0.042 0.580 0.996
vt 0.040 0.960 0.996
vt 0.011 0.960 0.996
vt 0.011 0.420 0.996
vt 0.059 0.040 0.947
vt 0.613 0.040 0.947
vt 0.613 0.925 0.947
vt 0.575 0.960 0.947
vt 0.021 0.960 0.947
vt 0.021 0.075 0.947
vt 0.368 0.000 0.958
vt 0.613 0.000 0.959
vt 0.630 0.040 0.960
vt 0.630 0.420 0.958
vt 0.632 0.000 0.958
vt 0.370 0.420 0.958
vt 0.387 0.040 0.947
vt 0.000 0.425 0.040
vt 0.000 0.387 0.075
vt 0.011 0.370 0.040
vt 0.053 0.941 0.040
vt 0.053 0.979 0.075
vt 0.042 0.996 0.040
vt 0.000 0.040 0.979
vt 0.013 0.996 0.040
vt 0.000 0.979 0.040
vt 0.996 0.040 0.987
vt 0.734 0.000 0.989
vt 0.979 0.000 0.987
vt 0.947 0.425 0.960
vt 0.947 0.387 0.925
vt 0.958 0.370 0.960
vt 1.000 0.960 0.387
vt 0.987 0.370 0.960
vt 1.000 0.387 0.960
vt 0.053 0.960 0.979
vt 0.960 0.996 0.960
vt 0.947 0.979 0.960
vt 1.000 0.941 0.960
vt 1.000 0.979 0.925
vt 0.989 0.996 0.960
vt 0.053 0.387 0.040
vt 0.040 0.370 0.040
vt 1.000 0.075 0.387
vt 0.947 0.040 0.387
vt 0.947 0.925 0.387
vt 0.000 0.925 0.979
vt 0.053 0.075 0.979
vt 0.989 0.632 0.000
vt 0.989 0.979 0.000
vt 0.959 0.979 0.000
vt 0.958 0.734 0.000
vt 0.958 0.387 0.000
vt 0.987 0.387 0.000
vt 0.013 0.387 1.000
vt 0.042 0.387 1.000
vt 0.042 0.734 1.000
vt 0.041 0.979 1.000
vt 0.011 0.979 1.000
vt 0.011 0.632 1.000
vt 0.013 0.040 0.370
vt 0.042 0.040 0.370
vt 0.042 0.580 0.370
vt 0.040 0.960 0.370
vt 0.011 0.960 0.370
vt 0.011 0.420 0.370
vt 0.425 0.040 0.053
vt 0.979 0.040 0.053
vt 0.979 0.925 0.053
vt 0.941 0.960 0.053
vt 0.387 0.960 0.053
vt 0.387 0.075 0.053
vt 0.960 0.040 0.996
vt 0.989 0.040 0.996
vt 0.989 0.580 0.996
vt 0.987 0.960 0.996
vt 0.958 0.960 0.996
vt 0.958 0.420 0.996
vt 0.059 0.040 0.000
vt 0.613 0.040 0.000
vt 0.613 0.925 0.000
vt 0.575 0.960 0.000
vt 0.021 0.960 0.000
vt 0.021 0.075 0.000
vt 0.368 0.000 0.011
vt 0.613 0.000 0.013
vt 0.630 0.040 0.013
vt 0.630 0.420 0.011
vt 0.632 0.000 0.011
vt 0.370 0.420 0.011
vt 0.387 0.040 0.000
vt 0.947 0.425 0.040
vt 0.947 0.387 0.075
vt 0.958 0.370 0.040
vt 1.000 0.941 0.040
vt 1.000 0.979 0.075
vt 0.989 0.996 0.040
vt 0.947 0.040 0.979
vt 0.960 0.996 0.040
vt 0.947 0.979 0.040
vt 0.996 0.040 0.040
vt 0.734 0.000 0.042
vt 0.979 0.000 0.041
vt 0.000 0.425 0.960
vt 0.000 0.387 0.925
vt 0.011 0.370 0.960
vt 0.053 0.960 0.387
vt 0.040 0.370 0.960
vt 0.053 0.387 0.960
vt 1.000 0.960 0.979
vt 0.013 0.996 0.960
vt 0.000 0.979 0.960
vt 0.053 0.941 0.960
vt 0.053 0.979 0.925
vt 0.042 0.996 0.960
vt 1.000 0.387 0.040
vt 0.987 0.370 0.040
vt 0.053 0.075 0.387
vt 0.000 0.040 0.387
vt 0.000 0.925 0.387
vt 0.947 0.925 0.979
vt 1.000 0.075 0.979
# 234 texture coords

o Divan
g Divan
f 1/1/1 2/2/1 3/3/1 
f 4/4/1 5/5/1 6/6/1 
f 7/7/2 8/8/2 9/9/2 
f 10/10/2 11/11/2 12/12/2 
f 13/13/3 14/14/3 15/15/3 
f 16/16/3 17/17/3 18/18/3 
f 19/19/4 20/20/4 21/21/4 
f 22/22/4 23/23/4 24/24/4 
f 25/25/5 26/26/5 27/27/5 
f 28/28/5 29/29/5 30/30/5 
f 31/31/6 32/32/6 33/33/6 
f 34/34/6 35/35/6 36/36/6 
f 1/37/7 6/38/7 13/39/7 
f 1/1/8 13/40/8 18/41/8 
f 1/1/9 18/41/9 32/42/9 
f 19/43/10 24/44/10 14/45/10 
f 19/19/11 14/46/11 5/47/11 
f 31/48/12 36/49/12 26/50/12 
f 31/31/13 26/51/13 2/52/13 
f 25/53/14 30/54/14 20/55/14 
f 25/53/15 20/55/15 4/4/15 
f 25/56/16 4/57/16 3/58/16 
f 7/59/17 12/60/17 34/61/17 
f 7/7/18 34/62/18 33/63/18 
f 7/7/19 33/63/19 17/64/19 
f 16/65/20 15/66/20 23/67/20 
f 16/16/21 23/68/21 8/69/21 
f 28/70/22 27/71/22 35/72/22 
f 28/28/23 35/73/23 11/74/23 
f 22/75/24 21/76/24 29/77/24 
f 22/75/25 29/77/25 10/10/25 
f 22/78/26 10/79/26 9/80/26 
f 1/1/27 32/42/27 2/2/27 
f 31/48/27 2/2/27 32/42/27 
f 2/2/28 26/50/28 3/3/28 
f 25/53/28 3/3/28 26/50/28 
f 6/6/1 1/1/1 4/4/1 
f 3/3/1 4/4/1 1/1/1 
f 19/43/29 5/5/29 20/55/29 
f 4/4/29 20/55/29 5/5/29 
f 13/40/30 6/6/30 14/45/30 
f 5/5/30 14/45/30 6/6/30 
f 7/7/31 17/64/31 8/8/31 
f 16/65/31 8/8/31 17/64/31 
f 8/8/32 23/67/32 9/9/32 
f 22/75/32 9/9/32 23/67/32 
f 12/12/2 7/7/2 10/10/2 
f 9/9/2 10/10/2 7/7/2 
f 28/70/33 11/11/33 29/77/33 
f 10/10/33 29/77/33 11/11/33 
f 34/62/34 12/12/34 35/72/34 
f 11/11/34 35/72/34 12/12/34 
f 14/14/35 24/81/35 15/15/35 
f 23/68/35 15/15/35 24/81/35 
f 18/18/3 13/13/3 16/16/3 
f 15/15/3 16/16/3 13/13/3 
f 32/82/36 18/18/36 33/83/36 
f 17/17/36 33/83/36 18/18/36 
f 20/84/37 30/30/37 21/85/37 
f 29/29/37 21/85/37 30/30/37 
f 24/24/4 19/19/4 22/22/4 
f 21/21/4 22/22/4 19/19/4 
f 26/26/38 36/86/38 27/27/38 
f 35/73/38 27/27/38 36/86/38 
f 30/30/5 25/25/5 28/28/5 
f 27/27/5 28/28/5 25/25/5 
f 36/36/6 31/31/6 34/34/6 
f 33/33/6 34/34/6 31/31/6 
f 37/87/1 38/88/1 39/89/1 
f 40/90/1 41/91/1 42/92/1 
f 43/93/2 44/94/2 45/95/2 
f 46/96/2 47/97/2 48/98/2 
f 49/99/3 50/100/3 51/101/3 
f 52/102/3 53/103/3 54/104/3 
f 55/105/4 56/106/4 57/107/4 
f 58/108/4 59/109/4 60/110/4 
f 61/111/5 62/112/5 63/113/5 
f 64/114/5 65/115/5 66/116/5 
f 67/117/6 68/118/6 69/119/6 
f 70/120/6 71/121/6 72/122/6 
f 37/123/39 42/124/39 49/125/39 
f 37/123/40 49/125/40 54/126/40 
f 37/127/41 54/128/41 68/129/41 
f 55/130/42 60/131/42 50/132/42 
f 55/130/43 50/132/43 41/91/43 
f 67/133/44 72/134/44 62/135/44 
f 67/133/45 62/135/45 38/88/45 
f 61/111/46 66/116/46 56/136/46 
f 61/137/47 56/138/47 40/90/47 
f 61/139/48 40/140/48 39/141/48 
f 43/93/49 48/98/49 70/142/49 
f 43/93/50 70/142/50 69/143/50 
f 43/93/51 69/143/51 53/144/51 
f 52/102/52 51/101/52 59/145/52 
f 52/146/53 59/147/53 44/94/53 
f 64/114/54 63/113/54 71/148/54 
f 64/149/55 71/150/55 47/97/55 
f 58/151/56 57/152/56 65/153/56 
f 58/151/57 65/153/57 46/96/57 
f 58/151/58 46/96/58 45/95/58 
f 37/87/27 68/154/27 38/88/27 
f 67/133/27 38/88/27 68/154/27 
f 38/88/28 62/135/28 39/89/28 
f 61/137/28 39/89/28 62/135/28 
f 42/92/1 37/87/1 40/90/1 
f 39/89/1 40/90/1 37/87/1 
f 55/130/29 41/91/29 56/138/29 
f 40/90/29 56/138/29 41/91/29 
f 49/155/30 42/92/30 50/132/30 
f 41/91/30 50/132/30 42/92/30 
f 43/93/31 53/144/31 44/94/31 
f 52/146/31 44/94/31 53/144/31 
f 44/94/32 59/147/32 45/95/32 
f 58/151/32 45/95/32 59/147/32 
f 48/98/2 43/93/2 46/96/2 
f 45/95/2 46/96/2 43/93/2 
f 64/149/33 47/97/33 65/153/33 
f 46/96/33 65/153/33 47/97/33 
f 70/142/34 48/98/34 71/150/34 
f 47/97/34 71/150/34 48/98/34 
f 50/100/35 60/156/35 51/101/35 
f 59/145/35 51/101/35 60/156/35 
f 54/104/3 49/99/3 52/102/3 
f 51/101/3 52/102/3 49/99/3 
f 68/157/36 54/104/36 69/158/36 
f 53/103/36 69/158/36 54/104/36 
f 56/136/37 66/116/37 57/159/37 
f 65/115/37 57/159/37 66/116/37 
f 60/110/4 55/105/4 58/108/4 
f 57/107/4 58/108/4 55/105/4 
f 62/112/38 72/160/38 63/113/38 
f 71/148/38 63/113/38 72/160/38 
f 66/116/5 61/111/5 64/114/5 
f 63/113/5 64/114/5 61/111/5 
f 72/122/6 67/117/6 70/120/6 
f 69/119/6 70/120/6 67/117/6 
f 73/161/1 74/162/1 75/163/1 
f 76/164/1 77/165/1 78/166/1 
f 79/167/2 80/168/2 81/169/2 
f 82/170/2 83/171/2 84/172/2 
f 85/173/3 86/174/3 87/175/3 
f 88/176/3 89/177/3 90/178/3 
f 91/179/4 92/180/4 93/181/4 
f 94/182/4 95/183/4 96/184/4 
f 97/185/5 98/186/5 99/187/5 
f 100/188/5 101/189/5 102/190/5 
f 103/191/6 104/192/6 105/193/6 
f 106/194/6 107/195/6 108/196/6 
f 73/197/39 78/198/39 85/199/39 
f 73/197/40 85/199/40 90/200/40 
f 73/201/41 90/202/41 104/203/41 
f 91/204/42 96/205/42 86/206/42 
f 91/204/43 86/206/43 77/165/43 
f 103/207/44 108/208/44 98/209/44 
f 103/207/45 98/209/45 74/162/45 
f 97/185/46 102/190/46 92/210/46 
f 97/211/47 92/212/47 76/164/47 
f 97/213/48 76/214/48 75/215/48 
f 79/167/49 84/172/49 106/216/49 
f 79/167/50 106/216/50 105/217/50 
f 79/167/51 105/217/51 89/218/51 
f 88/176/52 87/175/52 95/219/52 
f 88/220/53 95/221/53 80/168/53 
f 100/188/54 99/187/54 107/222/54 
f 100/223/55 107/224/55 83/171/55 
f 94/225/56 93/226/56 101/227/56 
f 94/225/57 101/227/57 82/170/57 
f 94/225/58 82/170/58 81/169/58 
f 73/161/27 104/228/27 74/162/27 
f 103/207/27 74/162/27 104/228/27 
f 74/162/28 98/209/28 75/163/28 
f 97/211/28 75/163/28 98/209/28 
f 78/166/1 73/161/1 76/164/1 
f 75/163/1 76/164/1 73/161/1 
f 91/204/29 77/165/29 92/212/29 
f 76/164/29 92/212/29 77/165/29 
f 85/229/30 78/166/30 86/206/30 
f 77/165/30 86/206/30 78/166/30 
f 79/167/31 89/218/31 80/168/31 
f 88/220/31 80/168/31 89/218/31 
f 80/168/32 95/221/32 81/169/32 
f 94/225/32 81/169/32 95/221/32 
f 84/172/2 79/167/2 82/170/2 
f 81/169/2 82/170/2 79/167/2 
f 100/223/33 83/171/33 101/227/33 
f 82/170/33 101/227/33 83/171/33 
f 106/216/34 84/172/34 107/224/34 
f 83/171/34 107/224/34 84/172/34 
f 86/174/35 96/230/35 87/175/35 
f 95/219/35 87/175/35 96/230/35 
f 90/178/3 85/173/3 88/176/3 
f 87/175/3 88/176/3 85/173/3 
f 104/231/36 90/178/36 105/232/36 
f 89/177/36 105/232/36 90/178/36 
f 92/210/37 102/190/37 93/233/37 
f 101/189/37 93/233/37 102/190/37 
f 96/184/4 91/179/4 94/182/4 
f 93/181/4 94/182/4 91/179/4 
f 98/186/38 108/234/38 99/187/38 
f 107/222/38 99/187/38 108/234/38 
f 102/190/5 97/185/5 100/188/5 
f 99/187/5 100/188/5 97/185/5 
f 108/196/6 103/191/6 106/194/6 
f 105/193/6 106/194/6 103/191/6 
# 204 faces

