# 3ds Max Wavefront OBJ Exporter v0.99 - (c)2007 guruware
# File Created: 14.08.2022 01:01:40

#
# object Box013
#

v  18.046 14.005 -5.657
v  18.046 14.005 218.587
v  15.623 -76.660 218.587
v  15.623 -76.660 -5.657
v  10.544 14.206 -5.657
v  8.122 -76.460 -5.657
v  8.122 -76.460 218.587
v  10.544 14.206 218.587
# 8 vertices

vn 1.000 -0.027 0.000
vn -1.000 0.027 -0.000
vn 0.000 -0.000 -1.000
vn -0.027 -1.000 0.000
vn -0.000 0.000 1.000
vn 0.027 1.000 0.000
# 6 vertex normals

vt -0.000 0.000 -0.000
vt -0.000 1.000 -0.000
vt -1.000 1.000 -0.000
vt -1.000 0.000 -0.000
vt -0.000 0.000 1.000
vt -1.000 0.000 1.000
vt -1.000 1.000 1.000
vt -0.000 1.000 1.000
# 8 texture coords

o Box013
g Box013
f 1/1/1 2/2/1 3/3/1 
f 3/3/1 4/4/1 1/1/1 
f 5/5/2 6/6/2 7/7/2 
f 7/7/2 8/8/2 5/5/2 
f 1/1/3 4/4/3 6/6/3 
f 6/6/3 5/5/3 1/1/3 
f 4/4/4 3/3/4 7/7/4 
f 7/7/4 6/6/4 4/4/4 
f 3/3/5 2/2/5 8/8/5 
f 8/8/5 7/7/5 3/3/5 
f 2/2/6 1/1/6 5/5/6 
f 5/5/6 8/8/6 2/2/6 
# 12 faces

