# 3ds Max Wavefront OBJ Exporter v0.99 - (c)2007 guruware
# File Created: 15.08.2022 00:36:21

#
# object Box027
#

v  34.080 -65.500 70.997
v  -37.000 -62.580 70.997
v  -37.000 -25.136 70.997
v  37.000 -25.136 70.997
v  37.000 -62.580 70.997
v  -37.000 -15.124 70.997
v  23.016 -15.124 70.997
v  -37.000 16.383 70.997
v  23.016 16.383 70.997
v  -37.000 26.479 70.997
v  37.000 26.479 70.997
v  -37.000 63.580 70.997
v  -34.080 66.500 70.997
v  37.000 63.580 70.997
v  37.000 -62.580 72.797
v  37.000 -25.136 72.797
v  -37.000 -25.136 72.797
v  -34.080 -65.500 72.797
v  34.080 -65.500 72.797
v  23.016 -15.124 72.797
v  -37.000 -15.124 72.797
v  23.016 16.383 72.797
v  -37.000 16.383 72.797
v  37.000 26.479 72.797
v  -37.000 26.479 72.797
v  34.080 66.500 72.797
v  -34.080 66.500 72.797
v  -37.000 63.580 72.797
v  37.000 63.580 72.797
v  34.080 66.500 70.997
v  -37.000 -62.580 72.797
v  -34.080 -65.500 70.997
v  -36.500 -65.400 0.010
v  -36.500 -65.400 147.010
v  3.500 -65.400 147.010
v  3.500 -65.400 0.010
v  -36.500 -68.900 0.010
v  3.500 -68.900 0.010
v  3.500 -68.900 147.010
v  -36.500 -68.900 147.010
v  -36.500 70.500 0.010
v  -36.500 70.500 147.010
v  3.500 70.500 147.010
v  3.500 70.500 0.010
v  -36.500 67.000 0.010
v  3.500 67.000 0.010
v  3.500 67.000 147.010
v  -36.500 67.000 147.010
v  13.800 -64.800 20.200
v  -36.200 -64.800 20.200
v  -36.200 -39.800 20.200
v  13.800 -39.800 20.200
v  13.800 -64.800 22.000
v  13.800 -39.800 22.000
v  -36.200 -39.800 22.000
v  -36.200 -64.800 22.000
v  13.800 39.800 20.200
v  -36.200 39.800 20.200
v  -36.200 64.800 20.200
v  13.800 64.800 20.200
v  13.800 39.800 22.000
v  13.800 64.800 22.000
v  -36.200 64.800 22.000
v  -36.200 39.800 22.000
v  -0.209 -64.809 139.103
v  -36.249 -64.809 139.103
v  -36.249 66.494 139.103
v  -0.209 66.494 139.103
v  -0.209 -64.809 140.903
v  -0.209 66.494 140.903
v  -36.249 66.494 140.903
v  -36.249 -64.809 140.903
# 72 vertices

vn 0.000 0.000 -1.000
vn 0.000 0.000 1.000
vn 1.000 0.000 0.000
vn 0.889 0.457 0.000
vn 0.890 -0.455 0.000
vn -0.000 1.000 0.000
vn -1.000 -0.000 0.000
vn 0.000 -1.000 0.000
vn 0.707 -0.707 0.000
vn 0.707 0.707 0.000
vn -0.707 0.707 0.000
vn -0.707 -0.707 0.000
vn 0.000 1.000 0.000
vn -0.000 -1.000 -0.000
# 14 vertex normals

vt 9.756 0.197 2.415
vt 9.547 5.000 2.415
vt 6.861 5.000 2.415
vt 6.861 0.000 2.415
vt 9.547 0.000 2.415
vt 6.142 5.000 2.415
vt 6.142 0.945 2.415
vt 3.882 5.000 2.415
vt 3.882 0.945 2.415
vt 3.158 5.000 2.415
vt 3.158 0.000 2.415
vt 0.496 5.000 2.415
vt 0.287 4.803 2.415
vt 0.496 0.000 2.415
vt 0.453 0.000 2.476
vt 3.139 0.000 2.476
vt 3.139 5.000 2.476
vt 0.244 4.803 2.476
vt 0.244 0.197 2.476
vt 3.858 0.945 2.476
vt 3.858 5.000 2.476
vt 6.118 0.945 2.476
vt 6.118 5.000 2.476
vt 6.842 0.000 2.476
vt 6.842 5.000 2.476
vt 9.713 0.197 2.476
vt 9.713 4.803 2.476
vt 9.504 5.000 2.476
vt 0.453 2.415 0.000
vt 3.139 2.415 0.000
vt 3.139 2.476 0.000
vt 0.453 2.476 0.000
vt 3.858 2.415 0.945
vt 3.858 2.476 0.945
vt 6.118 2.415 0.945
vt 6.118 2.476 0.945
vt 6.842 2.415 0.000
vt 6.842 2.476 0.000
vt 9.504 2.415 0.000
vt 9.504 2.476 0.000
vt 0.395 2.415 4.857
vt 9.605 2.415 4.857
vt 9.605 2.476 4.857
vt 0.395 2.476 4.857
vt 0.496 2.415 5.000
vt 3.158 2.415 5.000
vt 3.158 2.476 5.000
vt 0.496 2.476 5.000
vt 3.882 2.415 5.000
vt 3.882 2.476 5.000
vt 6.142 2.415 5.000
vt 6.142 2.476 5.000
vt 6.861 2.415 5.000
vt 6.861 2.476 5.000
vt 9.547 2.415 5.000
vt 9.547 2.476 5.000
vt 0.395 2.415 0.122
vt 9.605 2.415 0.122
vt 9.605 2.476 0.122
vt 0.395 2.476 0.122
vt 9.756 4.803 2.415
vt 0.287 0.197 2.415
vt 0.453 5.000 2.476
vt 9.504 0.000 2.476
vt 0.244 2.415 0.197
vt 0.244 2.476 0.197
vt 9.713 2.415 0.197
vt 9.713 2.476 0.197
vt 0.287 2.415 4.803
vt 0.287 2.476 4.803
vt 9.756 2.415 4.803
vt 9.756 2.476 4.803
vt 9.932 0.000 0.126
vt 9.932 5.000 0.126
vt 4.527 5.000 0.126
vt 4.527 0.000 0.126
vt 0.068 0.000 0.000
vt 5.473 0.000 0.000
vt 5.473 5.000 0.000
vt 0.068 5.000 0.000
vt 9.749 4.966 0.000
vt 9.749 2.264 0.000
vt 10.000 2.264 0.000
vt 10.000 4.966 0.000
vt 0.251 0.000 2.264
vt 0.251 5.000 2.264
vt 0.000 5.000 2.264
vt 0.000 0.000 2.264
vt 0.251 2.264 5.000
vt 0.251 4.966 5.000
vt 0.000 4.966 5.000
vt 0.000 2.264 5.000
vt 9.749 5.000 4.966
vt 9.749 0.000 4.966
vt 10.000 0.000 4.966
vt 10.000 5.000 4.966
vt 9.932 0.000 5.000
vt 9.932 5.000 5.000
vt 4.527 5.000 5.000
vt 4.527 0.000 5.000
vt 0.068 0.000 4.874
vt 5.473 0.000 4.874
vt 5.473 5.000 4.874
vt 0.068 5.000 4.874
vt 0.000 4.966 0.000
vt 0.000 2.264 0.000
vt 0.251 2.264 0.000
vt 0.251 4.966 0.000
vt 10.000 0.000 2.264
vt 10.000 5.000 2.264
vt 9.749 5.000 2.264
vt 9.749 0.000 2.264
vt 10.000 2.264 5.000
vt 10.000 4.966 5.000
vt 9.749 4.966 5.000
vt 9.749 2.264 5.000
vt 0.000 5.000 4.966
vt 0.000 0.000 4.966
vt 0.251 0.000 4.966
vt 0.251 5.000 4.966
vt 9.706 1.568 0.687
vt 9.706 4.946 0.687
vt 7.912 4.946 0.687
vt 7.912 1.568 0.687
vt 0.294 1.568 0.748
vt 2.088 1.568 0.748
vt 2.088 4.946 0.748
vt 0.294 4.946 0.748
vt 0.294 0.687 1.568
vt 2.088 0.687 1.568
vt 2.088 0.748 1.568
vt 0.294 0.748 1.568
vt 3.135 0.687 1.044
vt 9.892 0.687 1.044
vt 9.892 0.748 1.044
vt 3.135 0.748 1.044
vt 7.912 0.687 4.946
vt 9.706 0.687 4.946
vt 9.706 0.748 4.946
vt 7.912 0.748 4.946
vt 0.108 0.687 0.147
vt 6.865 0.687 0.147
vt 6.865 0.748 0.147
vt 0.108 0.748 0.147
vt 2.202 1.568 0.687
vt 2.202 4.946 0.687
vt 0.409 4.946 0.687
vt 0.409 1.568 0.687
vt 7.798 1.568 0.748
vt 9.591 1.568 0.748
vt 9.591 4.946 0.748
vt 7.798 4.946 0.748
vt 7.798 0.687 1.568
vt 9.591 0.687 1.568
vt 9.591 0.748 1.568
vt 7.798 0.748 1.568
vt 3.135 0.687 4.796
vt 9.892 0.687 4.796
vt 9.892 0.748 4.796
vt 3.135 0.748 4.796
vt 0.409 0.687 4.946
vt 2.202 0.687 4.946
vt 2.202 0.748 4.946
vt 0.409 0.748 4.946
vt 0.108 0.687 3.899
vt 6.865 0.687 3.899
vt 6.865 0.748 3.899
vt 0.108 0.748 3.899
vt 9.707 2.514 4.731
vt 9.707 4.949 4.731
vt 0.287 4.949 4.731
vt 0.287 2.514 4.731
vt 0.293 2.514 4.792
vt 9.713 2.514 4.792
vt 9.713 4.949 4.792
vt 0.293 4.949 4.792
vt 0.293 4.731 2.514
vt 9.713 4.731 2.514
vt 9.713 4.792 2.514
vt 0.293 4.792 2.514
vt 5.028 4.731 4.856
vt 9.898 4.731 4.856
vt 9.898 4.792 4.856
vt 5.028 4.792 4.856
vt 0.287 4.731 4.949
vt 9.707 4.731 4.949
vt 9.707 4.792 4.949
vt 0.287 4.792 4.949
vt 0.102 4.731 0.147
vt 4.972 4.731 0.147
vt 4.972 4.792 0.147
vt 0.102 4.792 0.147
# 192 texture coords

o Box027
g Box027
f 1/1/1 2/2/1 3/3/1 
f 3/3/1 4/4/1 5/5/1 
f 4/4/1 3/3/1 6/6/1 
f 6/6/1 7/7/1 4/4/1 
f 7/7/1 6/6/1 8/8/1 
f 8/8/1 9/9/1 7/7/1 
f 9/9/1 8/8/1 10/10/1 
f 10/10/1 11/11/1 9/9/1 
f 11/11/1 10/10/1 12/12/1 
f 13/13/1 14/14/1 11/11/1 
f 15/15/2 16/16/2 17/17/2 
f 17/17/2 18/18/2 19/19/2 
f 16/16/2 20/20/2 21/21/2 
f 21/21/2 17/17/2 16/16/2 
f 20/20/2 22/22/2 23/23/2 
f 23/23/2 21/21/2 20/20/2 
f 22/22/2 24/24/2 25/25/2 
f 25/25/2 23/23/2 22/22/2 
f 24/24/2 26/26/2 27/27/2 
f 28/28/2 25/25/2 24/24/2 
f 5/29/3 4/30/4 16/31/4 
f 16/31/4 15/32/3 5/29/3 
f 4/30/4 7/33/4 20/34/4 
f 20/34/4 16/31/4 4/30/4 
f 7/33/4 9/35/5 22/36/5 
f 22/36/5 20/34/4 7/33/4 
f 9/35/5 11/37/5 24/38/5 
f 24/38/5 22/36/5 9/35/5 
f 11/37/5 14/39/3 29/40/3 
f 29/40/3 24/38/5 11/37/5 
f 30/41/6 13/42/6 27/43/6 
f 27/43/6 26/44/6 30/41/6 
f 12/45/7 10/46/7 25/47/7 
f 25/47/7 28/48/7 12/45/7 
f 10/46/7 8/49/7 23/50/7 
f 23/50/7 25/47/7 10/46/7 
f 8/49/7 6/51/7 21/52/7 
f 21/52/7 23/50/7 8/49/7 
f 6/51/7 3/53/7 17/54/7 
f 17/54/7 21/52/7 6/51/7 
f 3/53/7 2/55/7 31/56/7 
f 31/56/7 17/54/7 3/53/7 
f 32/57/8 1/58/8 19/59/8 
f 19/59/8 18/60/8 32/57/8 
f 1/1/1 32/61/1 2/2/1 
f 13/13/1 30/62/1 14/14/1 
f 17/17/2 31/63/2 18/18/2 
f 24/24/2 29/64/2 26/26/2 
f 3/3/1 5/5/1 1/1/1 
f 11/11/1 12/12/1 13/13/1 
f 17/17/2 19/19/2 15/15/2 
f 24/24/2 27/27/2 28/28/2 
f 1/65/9 5/29/9 19/66/9 
f 15/32/9 19/66/9 5/29/9 
f 14/39/10 30/67/10 29/40/10 
f 26/68/10 29/40/10 30/67/10 
f 13/69/11 12/45/11 27/70/11 
f 28/48/11 27/70/11 12/45/11 
f 2/55/12 32/71/12 31/56/12 
f 18/72/12 31/56/12 32/71/12 
f 33/73/13 34/74/13 35/75/13 
f 35/75/13 36/76/13 33/73/13 
f 37/77/14 38/78/14 39/79/14 
f 39/79/14 40/80/14 37/77/14 
f 33/81/1 36/82/1 38/83/1 
f 38/83/1 37/84/1 33/81/1 
f 36/85/3 35/86/3 39/87/3 
f 39/87/3 38/88/3 36/85/3 
f 35/89/2 34/90/2 40/91/2 
f 40/91/2 39/92/2 35/89/2 
f 34/93/7 33/94/7 37/95/7 
f 37/95/7 40/96/7 34/93/7 
f 41/97/13 42/98/13 43/99/13 
f 43/99/13 44/100/13 41/97/13 
f 45/101/14 46/102/14 47/103/14 
f 47/103/14 48/104/14 45/101/14 
f 41/105/1 44/106/1 46/107/1 
f 46/107/1 45/108/1 41/105/1 
f 44/109/3 43/110/3 47/111/3 
f 47/111/3 46/112/3 44/109/3 
f 43/113/2 42/114/2 48/115/2 
f 48/115/2 47/116/2 43/113/2 
f 42/117/7 41/118/7 45/119/7 
f 45/119/7 48/120/7 42/117/7 
f 49/121/1 50/122/1 51/123/1 
f 51/123/1 52/124/1 49/121/1 
f 53/125/2 54/126/2 55/127/2 
f 55/127/2 56/128/2 53/125/2 
f 49/129/3 52/130/3 54/131/3 
f 54/131/3 53/132/3 49/129/3 
f 52/133/6 51/134/6 55/135/6 
f 55/135/6 54/136/6 52/133/6 
f 51/137/7 50/138/7 56/139/7 
f 56/139/7 55/140/7 51/137/7 
f 50/141/8 49/142/8 53/143/8 
f 53/143/8 56/144/8 50/141/8 
f 57/145/1 58/146/1 59/147/1 
f 59/147/1 60/148/1 57/145/1 
f 61/149/2 62/150/2 63/151/2 
f 63/151/2 64/152/2 61/149/2 
f 57/153/3 60/154/3 62/155/3 
f 62/155/3 61/156/3 57/153/3 
f 60/157/6 59/158/6 63/159/6 
f 63/159/6 62/160/6 60/157/6 
f 59/161/7 58/162/7 64/163/7 
f 64/163/7 63/164/7 59/161/7 
f 58/165/8 57/166/8 61/167/8 
f 61/167/8 64/168/8 58/165/8 
f 65/169/1 66/170/1 67/171/1 
f 67/171/1 68/172/1 65/169/1 
f 69/173/2 70/174/2 71/175/2 
f 71/175/2 72/176/2 69/173/2 
f 65/177/3 68/178/3 70/179/3 
f 70/179/3 69/180/3 65/177/3 
f 68/181/6 67/182/6 71/183/6 
f 71/183/6 70/184/6 68/181/6 
f 67/185/7 66/186/7 72/187/7 
f 72/187/7 71/188/7 67/185/7 
f 66/189/8 65/190/8 69/191/8 
f 69/191/8 72/192/8 66/189/8 
# 120 faces

