# 3ds Max Wavefront OBJ Exporter v0.99 - (c)2007 guruware
# File Created: 14.08.2022 02:22:37

#
# object Box022
#

v  316.457 254.605 89.905
v  316.457 225.605 89.905
v  264.457 225.605 89.905
v  264.457 254.605 89.905
v  316.457 254.605 90.905
v  264.457 254.605 90.905
v  264.457 225.605 90.905
v  316.457 225.605 90.905
# 8 vertices

vn 0.000 0.000 -1.000
vn 0.000 0.000 1.000
vn -0.000 1.000 0.000
vn -1.000 -0.000 0.000
vn 0.000 -1.000 0.000
vn 1.000 0.000 0.000
# 6 vertex normals

vt 1.000 1.000 0.000
vt 0.000 1.000 0.000
vt 0.000 0.000 0.000
vt 1.000 0.000 0.000
vt 0.000 1.000 1.000
vt 0.000 0.000 1.000
vt 1.000 0.000 1.000
vt 1.000 1.000 1.000
# 8 texture coords

o Box022
g Box022
f 1/1/1 2/2/1 3/3/1 
f 3/3/1 4/4/1 1/1/1 
f 5/5/2 6/6/2 7/7/2 
f 7/7/2 8/8/2 5/5/2 
f 1/2/3 4/3/3 6/4/3 
f 6/4/3 5/1/3 1/2/3 
f 4/4/4 3/1/4 7/2/4 
f 7/2/4 6/3/4 4/4/4 
f 3/7/5 2/8/5 8/5/5 
f 8/5/5 7/6/5 3/7/5 
f 2/5/6 1/6/6 5/7/6 
f 5/7/6 8/8/6 2/5/6 
# 12 faces

