# 3ds Max Wavefront OBJ Exporter v0.99 - (c)2007 guruware
# File Created: 15.08.2022 01:06:16

#
# object Box020
#

v  254.912 -137.681 87.074
v  252.364 -137.705 87.074
v  252.339 -135.026 87.074
v  254.886 -135.001 87.074
v  252.009 -100.387 87.074
v  254.557 -100.363 87.074
v  251.962 -95.444 87.074
v  254.510 -95.419 87.074
v  207.462 -138.132 87.074
v  207.436 -135.453 87.074
v  207.107 -100.814 87.074
v  207.060 -95.871 87.074
v  204.914 -138.157 87.074
v  204.889 -135.477 87.074
v  204.559 -100.838 87.074
v  204.512 -95.895 87.074
v  254.912 -137.681 90.420
v  254.886 -135.001 90.420
v  252.339 -135.026 90.420
v  252.364 -137.705 90.420
v  254.557 -100.363 90.420
v  252.009 -100.387 90.420
v  254.510 -95.419 90.420
v  251.962 -95.444 90.420
v  207.436 -135.453 90.420
v  207.462 -138.132 90.420
v  252.339 -135.026 87.777
v  252.009 -100.387 87.777
v  207.107 -100.814 87.777
v  207.436 -135.453 87.777
v  207.060 -95.871 90.420
v  207.107 -100.814 90.420
v  204.889 -135.477 90.420
v  204.914 -138.157 90.420
v  204.559 -100.838 90.420
v  204.512 -95.895 90.420
v  229.963 -98.180 86.874
v  228.387 -96.948 86.874
v  229.944 -96.180 86.874
v  228.017 -98.643 86.874
v  229.112 -99.990 86.874
v  230.848 -99.973 86.874
v  231.917 -98.606 86.874
v  231.515 -96.918 86.874
v  228.387 -96.948 97.250
v  229.944 -96.180 97.250
v  228.017 -98.643 97.250
v  229.112 -99.990 97.250
v  230.848 -99.973 97.250
v  231.917 -98.606 97.250
v  231.515 -96.918 97.250
v  228.407 -98.999 104.853
v  229.964 -98.338 105.239
v  228.034 -100.455 103.986
v  229.128 -101.610 103.290
v  230.863 -101.593 103.290
v  231.934 -100.418 103.986
v  231.534 -98.969 104.853
v  228.455 -104.019 110.116
v  230.017 -103.839 110.851
v  228.072 -104.391 108.465
v  229.157 -104.677 107.141
v  230.892 -104.660 107.141
v  231.971 -104.354 108.465
v  231.582 -103.989 110.116
v  228.518 -110.691 110.514
v  230.084 -110.922 111.226
v  228.127 -110.142 108.915
v  229.204 -109.688 107.632
v  230.940 -109.672 107.632
v  232.026 -110.105 108.915
v  231.645 -110.661 110.514
v  228.559 -115.000 105.258
v  230.129 -115.638 105.634
v  228.159 -113.538 104.413
v  229.230 -112.352 103.735
v  230.965 -112.335 103.735
v  232.058 -113.501 104.413
v  231.686 -114.970 105.258
v  230.112 -113.905 104.635
# 80 vertices

vn 0.000 0.000 -1.000
vn 0.000 0.000 1.000
vn 1.000 0.010 0.000
vn -0.010 1.000 0.000
vn -1.000 -0.010 0.000
vn 0.010 -1.000 0.000
vn -0.769 0.634 0.086
vn -0.009 0.992 0.127
vn -0.788 0.616 0.000
vn -0.980 -0.196 -0.020
vn -0.973 -0.232 0.000
vn -0.438 -0.891 -0.120
vn -0.425 -0.905 0.000
vn 0.455 -0.882 -0.120
vn 0.442 -0.897 0.000
vn 0.984 -0.178 -0.020
vn 0.977 -0.213 0.000
vn 0.757 0.648 0.087
vn 0.776 0.631 0.000
vn -0.754 0.572 0.323
vn -0.006 0.869 0.495
vn -0.985 -0.157 -0.076
vn -0.449 -0.800 -0.398
vn 0.460 -0.790 -0.406
vn 0.988 -0.131 -0.075
vn 0.743 0.584 0.328
vn -0.733 0.287 0.617
vn -0.001 0.399 0.917
vn -0.992 -0.048 -0.114
vn -0.470 -0.440 -0.765
vn 0.469 -0.441 -0.765
vn 0.994 -0.023 -0.107
vn 0.727 0.304 0.616
vn -0.721 -0.291 0.629
vn 0.003 -0.391 0.920
vn -0.997 0.014 -0.078
vn -0.504 0.381 -0.776
vn 0.501 0.374 -0.780
vn 0.996 0.037 -0.080
vn 0.727 -0.270 0.631
vn -0.748 -0.512 0.422
vn 0.004 -0.768 0.640
vn -0.984 0.143 -0.109
vn -0.439 0.732 -0.520
vn 0.434 0.745 -0.506
vn 0.978 0.175 -0.110
vn 0.759 -0.503 0.413
vn 0.005 -0.499 -0.866
# 48 vertex normals

vt 1.000 0.000 0.000
vt 1.000 0.051 0.000
vt 0.937 0.051 0.000
vt 0.937 0.000 0.000
vt 0.117 0.051 0.000
vt 0.117 0.000 0.000
vt 0.000 0.051 0.000
vt 0.000 0.000 0.000
vt 1.000 0.949 0.000
vt 0.937 0.949 0.000
vt 0.117 0.949 0.000
vt 0.000 0.949 0.000
vt 1.000 1.000 0.000
vt 0.937 1.000 0.000
vt 0.117 1.000 0.000
vt 0.000 1.000 0.000
vt 0.000 0.000 1.000
vt 0.063 0.000 1.000
vt 0.063 0.051 1.000
vt 0.000 0.051 1.000
vt 0.883 0.000 1.000
vt 0.883 0.051 1.000
vt 1.000 0.000 1.000
vt 1.000 0.051 1.000
vt 0.063 0.949 1.000
vt 0.000 0.949 1.000
vt 0.063 0.051 0.210
vt 0.883 0.051 0.210
vt 0.883 0.949 0.210
vt 0.063 0.949 0.210
vt 1.000 0.949 1.000
vt 0.883 0.949 1.000
vt 0.063 1.000 1.000
vt 0.000 1.000 1.000
vt 0.883 1.000 1.000
vt 1.000 1.000 1.000
vt 0.063 0.000 0.000
vt 0.063 1.000 0.000
vt 0.883 0.000 0.000
vt 0.883 1.000 0.000
vt 0.051 0.000 1.000
vt 0.051 1.000 1.000
vt 0.949 0.000 1.000
vt 0.949 1.000 1.000
vt 0.117 0.000 1.000
vt 0.117 1.000 1.000
vt 0.937 0.000 1.000
vt 0.937 1.000 1.000
vt 0.051 0.000 0.000
vt 0.051 1.000 0.000
vt 0.949 0.000 0.000
vt 0.949 1.000 0.000
vt 0.937 1.000 0.051
vt 0.117 1.000 0.051
vt 0.117 0.210 0.051
vt 0.937 0.210 0.051
vt 0.949 1.000 0.063
vt 0.051 1.000 0.063
vt 0.051 0.210 0.063
vt 0.949 0.210 0.063
vt 0.949 1.000 0.883
vt 0.051 1.000 0.883
vt 0.051 0.210 0.883
vt 0.949 0.210 0.883
vt 0.883 1.000 0.949
vt 0.063 1.000 0.949
vt 0.063 0.210 0.949
vt 0.883 0.210 0.949
vt 0.060 0.491 -0.060
vt 0.030 0.523 -0.060
vt 0.012 0.491 -0.060
vt 0.070 0.530 -0.060
vt 0.102 0.509 -0.060
vt 0.102 0.474 -0.060
vt 0.070 0.452 -0.060
vt 0.030 0.460 -0.060
vt 0.491 -0.060 0.988
vt 0.523 3.041 0.970
vt 0.491 3.041 0.988
vt 0.523 -0.060 0.970
vt 0.030 -0.060 0.523
vt 0.070 3.041 0.530
vt 0.030 3.041 0.523
vt 0.070 -0.060 0.530
vt 0.102 3.041 0.509
vt 0.102 -0.060 0.509
vt 0.491 -0.060 0.898
vt 0.526 3.041 0.898
vt 0.491 3.041 0.898
vt 0.526 -0.060 0.898
vt 0.898 -0.060 0.474
vt 0.930 3.041 0.452
vt 0.898 3.041 0.474
vt 0.930 -0.060 0.452
vt 0.970 3.041 0.460
vt 0.970 -0.060 0.460
vt 0.460 -0.060 0.970
vt 0.460 3.041 0.970
vt 0.988 0.491 3.041
vt 0.921 0.523 5.313
vt 0.936 0.491 5.429
vt 0.970 0.523 3.041
vt 0.113 5.054 0.530
vt 0.079 5.313 0.523
vt 0.070 0.530 3.041
vt 0.141 0.509 4.846
vt 0.113 0.530 5.054
vt 0.102 0.509 3.041
vt 0.141 0.474 4.846
vt 0.102 0.474 3.041
vt 0.113 0.452 5.054
vt 0.070 0.452 3.041
vt 0.921 5.313 0.460
vt 0.887 5.054 0.452
vt 0.970 0.460 3.041
vt 0.921 0.460 5.313
vt 0.802 0.523 6.886
vt 0.806 0.491 7.106
vt 0.794 0.530 6.393
vt 0.887 0.530 5.054
vt 0.213 0.509 5.997
vt 0.206 0.530 6.393
vt 0.213 0.474 5.997
vt 0.206 0.452 6.393
vt 0.887 0.452 5.054
vt 0.802 0.460 6.886
vt 0.794 0.452 6.393
vt 0.645 0.523 7.005
vt 0.639 0.491 7.218
vt 0.658 0.530 6.527
vt 0.332 0.509 6.144
vt 0.342 0.530 6.527
vt 0.332 0.474 6.144
vt 0.342 0.452 6.527
vt 0.645 0.460 7.005
vt 0.658 0.452 6.527
vt 0.543 0.523 5.434
vt 0.527 0.491 5.547
vt 0.577 0.530 5.182
vt 0.395 0.509 4.979
vt 0.423 0.530 5.182
vt 0.395 0.474 4.979
vt 0.423 0.452 5.182
vt 0.543 0.460 5.434
vt 0.577 0.452 5.182
vt 0.432 0.491 5.248
vt 0.473 0.491 5.547
vt 0.457 0.523 5.434
vt 0.457 0.460 5.434
# 149 texture coords

o Box020
g Box020
f 1/1/1 2/2/1 3/3/1 
f 3/3/1 4/4/1 1/1/1 
f 4/4/1 3/3/1 5/5/1 
f 5/5/1 6/6/1 4/4/1 
f 6/6/1 5/5/1 7/7/1 
f 7/7/1 8/8/1 6/6/1 
f 2/2/1 9/9/1 10/10/1 
f 10/10/1 3/3/1 2/2/1 
f 3/3/1 10/10/1 11/11/1 
f 11/11/1 5/5/1 3/3/1 
f 5/5/1 11/11/1 12/12/1 
f 12/12/1 7/7/1 5/5/1 
f 9/9/1 13/13/1 14/14/1 
f 14/14/1 10/10/1 9/9/1 
f 10/10/1 14/14/1 15/15/1 
f 15/15/1 11/11/1 10/10/1 
f 11/11/1 15/15/1 16/16/1 
f 16/16/1 12/12/1 11/11/1 
f 17/17/2 18/18/2 19/19/2 
f 19/19/2 20/20/2 17/17/2 
f 18/18/2 21/21/2 22/22/2 
f 22/22/2 19/19/2 18/18/2 
f 21/21/2 23/23/2 24/24/2 
f 24/24/2 22/22/2 21/21/2 
f 20/20/2 19/19/2 25/25/2 
f 25/25/2 26/26/2 20/20/2 
f 27/27/2 28/28/2 29/29/2 
f 29/29/2 30/30/2 27/27/2 
f 22/22/2 24/24/2 31/31/2 
f 31/31/2 32/32/2 22/22/2 
f 26/26/2 25/25/2 33/33/2 
f 33/33/2 34/34/2 26/26/2 
f 25/25/2 32/32/2 35/35/2 
f 35/35/2 33/33/2 25/25/2 
f 32/32/2 31/31/2 36/36/2 
f 36/36/2 35/35/2 32/32/2 
f 1/8/3 4/37/3 18/38/3 
f 18/38/3 17/16/3 1/8/3 
f 4/37/3 6/39/3 21/40/3 
f 21/40/3 18/38/3 4/37/3 
f 6/39/3 8/1/3 23/13/3 
f 23/13/3 21/40/3 6/39/3 
f 8/17/4 7/41/4 24/42/4 
f 24/42/4 23/34/4 8/17/4 
f 7/41/4 12/43/4 31/44/4 
f 31/44/4 24/42/4 7/41/4 
f 12/43/4 16/23/4 36/36/4 
f 36/36/4 31/44/4 12/43/4 
f 16/17/5 15/45/5 35/46/5 
f 35/46/5 36/34/5 16/17/5 
f 15/45/5 14/47/5 33/48/5 
f 33/48/5 35/46/5 15/45/5 
f 14/47/5 13/23/5 34/36/5 
f 34/36/5 33/48/5 14/47/5 
f 13/8/6 9/49/6 26/50/6 
f 26/50/6 34/16/6 13/8/6 
f 9/49/6 2/51/6 20/52/6 
f 20/52/6 26/50/6 9/49/6 
f 2/51/6 1/1/6 17/13/6 
f 17/13/6 20/52/6 2/51/6 
f 19/53/5 22/54/5 28/55/5 
f 28/55/5 27/56/5 19/53/5 
f 25/57/4 19/58/4 27/59/4 
f 27/59/4 30/60/4 25/57/4 
f 22/61/6 32/62/6 29/63/6 
f 29/63/6 28/64/6 22/61/6 
f 32/65/3 25/66/3 30/67/3 
f 30/67/3 29/68/3 32/65/3 
f 37/69/1 38/70/1 39/71/1 
f 37/69/1 40/72/1 38/70/1 
f 37/69/1 41/73/1 40/72/1 
f 37/69/1 42/74/1 41/73/1 
f 37/69/1 43/75/1 42/74/1 
f 37/69/1 44/76/1 43/75/1 
f 37/69/1 39/71/1 44/76/1 
f 39/77/4 45/78/7 46/79/8 
f 39/77/4 38/80/9 45/78/7 
f 38/81/9 47/82/10 45/83/7 
f 38/81/9 40/84/11 47/82/10 
f 40/84/11 48/85/12 47/82/10 
f 40/84/11 41/86/13 48/85/12 
f 41/87/13 49/88/14 48/89/12 
f 41/87/13 42/90/15 49/88/14 
f 42/91/15 50/92/16 49/93/14 
f 42/91/15 43/94/17 50/92/16 
f 43/94/17 51/95/18 50/92/16 
f 43/94/17 44/96/19 51/95/18 
f 44/97/19 46/79/8 51/98/18 
f 44/97/19 39/77/4 46/79/8 
f 46/99/8 52/100/20 53/101/21 
f 46/99/8 45/102/7 52/100/20 
f 45/83/7 54/103/22 52/104/20 
f 45/83/7 47/82/10 54/103/22 
f 47/105/10 55/106/23 54/107/22 
f 47/105/10 48/108/12 55/106/23 
f 48/108/12 56/109/24 55/106/23 
f 48/108/12 49/110/14 56/109/24 
f 49/110/14 57/111/25 56/109/24 
f 49/110/14 50/112/16 57/111/25 
f 50/92/16 58/113/26 57/114/25 
f 50/92/16 51/95/18 58/113/26 
f 51/115/18 53/101/21 58/116/26 
f 51/115/18 46/99/8 53/101/21 
f 53/101/21 59/117/27 60/118/28 
f 53/101/21 52/100/20 59/117/27 
f 52/100/20 61/119/29 59/117/27 
f 52/100/20 54/120/22 61/119/29 
f 54/107/22 62/121/30 61/122/29 
f 54/107/22 55/106/23 62/121/30 
f 55/106/23 63/123/31 62/121/30 
f 55/106/23 56/109/24 63/123/31 
f 56/109/24 64/124/32 63/123/31 
f 56/109/24 57/111/25 64/124/32 
f 57/125/25 65/126/33 64/127/32 
f 57/125/25 58/116/26 65/126/33 
f 58/116/26 60/118/28 65/126/33 
f 58/116/26 53/101/21 60/118/28 
f 60/118/28 66/128/34 67/129/35 
f 60/118/28 59/117/27 66/128/34 
f 59/117/27 68/130/36 66/128/34 
f 59/117/27 61/119/29 68/130/36 
f 61/122/29 69/131/37 68/132/36 
f 61/122/29 62/121/30 69/131/37 
f 62/121/30 70/133/38 69/131/37 
f 62/121/30 63/123/31 70/133/38 
f 63/123/31 71/134/39 70/133/38 
f 63/123/31 64/124/32 71/134/39 
f 64/127/32 72/135/40 71/136/39 
f 64/127/32 65/126/33 72/135/40 
f 65/126/33 67/129/35 72/135/40 
f 65/126/33 60/118/28 67/129/35 
f 67/129/35 73/137/41 74/138/42 
f 67/129/35 66/128/34 73/137/41 
f 66/128/34 75/139/43 73/137/41 
f 66/128/34 68/130/36 75/139/43 
f 68/132/36 76/140/44 75/141/43 
f 68/132/36 69/131/37 76/140/44 
f 69/131/37 77/142/45 76/140/44 
f 69/131/37 70/133/38 77/142/45 
f 70/133/38 78/143/46 77/142/45 
f 70/133/38 71/134/39 78/143/46 
f 71/136/39 79/144/47 78/145/46 
f 71/136/39 72/135/40 79/144/47 
f 72/135/40 74/138/42 79/144/47 
f 72/135/40 67/129/35 74/138/42 
f 80/146/48 74/147/48 73/148/48 
f 80/146/48 73/148/48 75/141/48 
f 80/146/48 75/141/48 76/140/48 
f 80/146/48 76/140/48 77/142/48 
f 80/146/48 77/142/48 78/143/48 
f 80/146/48 78/143/48 79/149/48 
f 80/146/48 79/149/48 74/147/48 
# 152 faces

