# 3ds Max Wavefront OBJ Exporter v0.99 - (c)2007 guruware
# File Created: 29.11.2022 23:28:25

#
# object Cylinder001
#

v  -0.0000 -0.0000 0.0000
v  4.5659 1.6619 0.0000
v  4.8590 -0.0000 0.0000
v  3.7222 3.1233 0.0000
v  2.4295 4.2080 0.0000
v  0.8438 4.7852 0.0000
v  -0.8438 4.7852 0.0000
v  -2.4295 4.2080 0.0000
v  -3.7222 3.1233 0.0000
v  -4.5659 1.6619 0.0000
v  -4.8590 0.0000 0.0000
v  -4.5659 -1.6619 -0.0000
v  -3.7222 -3.1233 -0.0000
v  -2.4295 -4.2080 -0.0000
v  -0.8438 -4.7851 -0.0000
v  0.8437 -4.7852 -0.0000
v  2.4295 -4.2080 -0.0000
v  3.7222 -3.1233 -0.0000
v  4.5659 -1.6619 -0.0000
v  4.6985 1.7101 0.1400
v  5.0000 0.0000 0.1400
v  3.8302 3.2139 0.1400
v  2.5000 4.3301 0.1400
v  0.8682 4.9240 0.1400
v  -0.8682 4.9240 0.1400
v  -2.5000 4.3301 0.1400
v  -3.8302 3.2139 0.1400
v  -4.6985 1.7101 0.1400
v  -5.0000 0.0000 0.1400
v  -4.6985 -1.7101 0.1400
v  -3.8302 -3.2139 0.1400
v  -2.5000 -4.3301 0.1400
v  -0.8682 -4.9240 0.1400
v  0.8682 -4.9240 0.1400
v  2.5000 -4.3301 0.1400
v  3.8302 -3.2139 0.1400
v  4.6985 -1.7101 0.1400
v  4.6985 1.7101 1.3600
v  5.0000 -0.0000 1.3600
v  3.8302 3.2139 1.3600
v  2.5000 4.3301 1.3600
v  0.8682 4.9240 1.3600
v  -0.8682 4.9240 1.3600
v  -2.5000 4.3301 1.3600
v  -3.8302 3.2139 1.3600
v  -4.6985 1.7101 1.3600
v  -5.0000 0.0000 1.3600
v  -4.6985 -1.7101 1.3600
v  -3.8302 -3.2139 1.3600
v  -2.5000 -4.3301 1.3600
v  -0.8682 -4.9240 1.3600
v  0.8682 -4.9240 1.3600
v  2.5000 -4.3301 1.3600
v  3.8302 -3.2139 1.3600
v  4.6985 -1.7101 1.3600
v  4.5659 1.6619 1.5000
v  4.8590 -0.0000 1.5000
v  3.7222 3.1233 1.5000
v  2.4295 4.2080 1.5000
v  0.8438 4.7852 1.5000
v  -0.8438 4.7852 1.5000
v  -2.4295 4.2080 1.5000
v  -3.7222 3.1233 1.5000
v  -4.5659 1.6619 1.5000
v  -4.8590 0.0000 1.5000
v  -4.5659 -1.6619 1.5000
v  -3.7222 -3.1233 1.5000
v  -2.4295 -4.2080 1.5000
v  -0.8438 -4.7851 1.5000
v  0.8437 -4.7852 1.5000
v  2.4295 -4.2080 1.5000
v  3.7222 -3.1233 1.5000
v  4.5659 -1.6619 1.5000
v  -0.0000 -0.0000 1.5000
# 74 vertices

vn 0.0000 0.0000 -1.0000
vn -0.0000 0.0000 -1.0000
vn 0.7045 -0.0000 -0.7097
vn 0.8730 0.3177 -0.3701
vn 0.9290 -0.0000 -0.3701
vn 0.6620 0.2410 -0.7097
vn 0.7117 0.5972 -0.3701
vn 0.5397 0.4528 -0.7097
vn 0.4645 0.8045 -0.3701
vn 0.3523 0.6101 -0.7097
vn 0.1613 0.9149 -0.3701
vn 0.1223 0.6938 -0.7097
vn -0.1613 0.9149 -0.3701
vn -0.1223 0.6938 -0.7097
vn -0.4645 0.8045 -0.3701
vn -0.3523 0.6101 -0.7097
vn -0.7117 0.5972 -0.3701
vn -0.5397 0.4528 -0.7097
vn -0.8730 0.3177 -0.3701
vn -0.6620 0.2410 -0.7097
vn -0.9290 0.0000 -0.3701
vn -0.7045 0.0000 -0.7097
vn -0.8730 -0.3177 -0.3701
vn -0.6620 -0.2410 -0.7097
vn -0.7117 -0.5972 -0.3701
vn -0.5397 -0.4528 -0.7097
vn -0.4645 -0.8045 -0.3701
vn -0.3523 -0.6101 -0.7097
vn -0.1613 -0.9149 -0.3701
vn -0.1223 -0.6938 -0.7097
vn 0.1613 -0.9149 -0.3701
vn 0.1223 -0.6938 -0.7097
vn 0.4645 -0.8045 -0.3701
vn 0.3523 -0.6101 -0.7097
vn 0.7117 -0.5972 -0.3701
vn 0.5397 -0.4528 -0.7097
vn 0.8730 -0.3177 -0.3701
vn 0.6620 -0.2410 -0.7097
vn 0.8730 0.3177 0.3701
vn 0.9290 -0.0000 0.3701
vn 0.7117 0.5972 0.3701
vn 0.4645 0.8045 0.3701
vn 0.1613 0.9149 0.3701
vn -0.1613 0.9149 0.3701
vn -0.4645 0.8045 0.3701
vn -0.7117 0.5972 0.3701
vn -0.8730 0.3177 0.3701
vn -0.9290 0.0000 0.3701
vn -0.8730 -0.3177 0.3701
vn -0.7117 -0.5972 0.3701
vn -0.4645 -0.8045 0.3701
vn -0.1613 -0.9149 0.3701
vn 0.1613 -0.9149 0.3701
vn 0.4645 -0.8045 0.3701
vn 0.7117 -0.5972 0.3701
vn 0.8730 -0.3177 0.3701
vn 0.6620 0.2410 0.7097
vn 0.7045 0.0000 0.7097
vn 0.5397 0.4528 0.7097
vn 0.3523 0.6101 0.7097
vn 0.1223 0.6938 0.7097
vn -0.1223 0.6938 0.7097
vn -0.3523 0.6101 0.7097
vn -0.5397 0.4528 0.7097
vn -0.6620 0.2410 0.7097
vn -0.7045 0.0000 0.7097
vn -0.6620 -0.2410 0.7097
vn -0.5397 -0.4528 0.7097
vn -0.3523 -0.6101 0.7097
vn -0.1223 -0.6938 0.7097
vn 0.1223 -0.6938 0.7097
vn 0.3523 -0.6101 0.7097
vn 0.5397 -0.4528 0.7097
vn 0.6620 -0.2410 0.7097
vn -0.0000 -0.0000 1.0000
vn 0.0000 -0.0000 1.0000
# 76 vertex normals

vt 0.0000 0.5000 0.2108
vt 0.4062 0.7578 1.3818
vt 0.5000 0.7744 1.3818
vt 0.3236 0.7102 1.3818
vt 0.2624 0.6372 1.3818
vt 0.2298 0.5476 1.3818
vt 0.2298 0.4524 1.3818
vt 0.2624 0.3628 1.3818
vt 0.3236 0.2898 1.3818
vt 0.4062 0.2422 1.3818
vt 0.5000 0.2256 1.3818
vt 0.5938 0.2422 1.3818
vt 1.0000 0.5000 0.2108
vt 0.6764 0.2898 1.3818
vt 0.7376 0.3628 1.3818
vt 0.7702 0.4524 1.3818
vt 0.7702 0.5476 1.3818
vt 0.7376 0.6372 1.3818
vt 0.6764 0.7102 1.3818
vt 0.5938 0.7578 1.3818
vt 0.4079 0.7531 1.4157
vt 0.5000 0.7693 1.4157
vt 0.3269 0.7063 1.4157
vt 0.2668 0.6347 1.4157
vt 0.2348 0.5468 1.4157
vt 0.2348 0.4532 1.4157
vt 0.2668 0.3653 1.4157
vt 0.3269 0.2937 1.4157
vt 0.4079 0.2469 1.4157
vt 0.5000 0.2307 1.4157
vt 0.5921 0.2469 1.4157
vt 0.6731 0.2937 1.4157
vt 0.7332 0.3653 1.4157
vt 0.7652 0.4532 1.4157
vt 0.7652 0.5468 1.4157
vt 0.7332 0.6347 1.4157
vt 0.6731 0.7063 1.4157
vt 0.5921 0.7531 1.4157
vt 0.4211 0.7168 1.4157
vt 0.5000 0.7307 1.4157
vt 0.3517 0.6767 1.4157
vt 0.3002 0.6153 1.4157
vt 0.2728 0.5401 1.4157
vt 0.2728 0.4599 1.4157
vt 0.3002 0.3847 1.4157
vt 0.3517 0.3233 1.4157
vt 0.4211 0.2832 1.4157
vt 0.5000 0.2693 1.4157
vt 0.5789 0.2832 1.4157
vt 0.6483 0.3233 1.4157
vt 0.6998 0.3847 1.4157
vt 0.7272 0.4599 1.4157
vt 0.7272 0.5401 1.4157
vt 0.6998 0.6153 1.4157
vt 0.6483 0.6767 1.4157
vt 0.5789 0.7168 1.4157
vt 0.4228 0.7120 1.3818
vt 0.5000 0.7256 1.3818
vt 0.3550 0.6728 1.3818
vt 0.3046 0.6128 1.3818
vt 0.2778 0.5392 1.3818
vt 0.2778 0.4608 1.3818
vt 0.3046 0.3872 1.3818
vt 0.3550 0.3272 1.3818
vt 0.4228 0.2880 1.3818
vt 0.5000 0.2744 1.3818
vt 0.5772 0.2880 1.3818
vt 0.6450 0.3272 1.3818
vt 0.6954 0.3872 1.3818
vt 0.7222 0.4608 1.3818
vt 0.7222 0.5392 1.3818
vt 0.6954 0.6128 1.3818
vt 0.6450 0.6728 1.3818
vt 0.5772 0.7120 1.3818
vt 0.5000 0.5000 0.2108
# 75 texture coords

o Cylinder001
g Cylinder001
s 1
f 1/1/1 2/2/2 3/3/1 
f 1/1/1 4/4/2 2/2/2 
f 1/1/1 5/5/2 4/4/2 
f 1/1/1 6/6/2 5/5/2 
f 1/1/1 7/7/1 6/6/2 
f 1/1/1 8/8/1 7/7/1 
f 1/1/1 9/9/1 8/8/1 
f 1/1/1 10/10/1 9/9/1 
f 1/1/1 11/11/1 10/10/1 
f 1/1/1 12/12/2 11/11/1 
f 1/13/1 13/14/1 12/12/2 
f 1/13/1 14/15/1 13/14/1 
f 1/13/1 15/16/2 14/15/1 
f 1/13/1 16/17/1 15/16/2 
f 1/13/1 17/18/2 16/17/1 
f 1/13/1 18/19/2 17/18/2 
f 1/13/1 19/20/1 18/19/2 
f 1/13/1 3/3/1 19/20/1 
s 8
f 3/3/3 20/21/4 21/22/5 
f 3/3/3 2/2/6 20/21/4 
f 2/2/6 22/23/7 20/21/4 
f 2/2/6 4/4/8 22/23/7 
f 4/4/8 23/24/9 22/23/7 
f 4/4/8 5/5/10 23/24/9 
f 5/5/10 24/25/11 23/24/9 
f 5/5/10 6/6/12 24/25/11 
f 6/6/12 25/26/13 24/25/11 
f 6/6/12 7/7/14 25/26/13 
f 7/7/14 26/27/15 25/26/13 
f 7/7/14 8/8/16 26/27/15 
f 8/8/16 27/28/17 26/27/15 
f 8/8/16 9/9/18 27/28/17 
f 9/9/18 28/29/19 27/28/17 
f 9/9/18 10/10/20 28/29/19 
f 10/10/20 29/30/21 28/29/19 
f 10/10/20 11/11/22 29/30/21 
f 11/11/22 30/31/23 29/30/21 
f 11/11/22 12/12/24 30/31/23 
f 12/12/24 31/32/25 30/31/23 
f 12/12/24 13/14/26 31/32/25 
f 13/14/26 32/33/27 31/32/25 
f 13/14/26 14/15/28 32/33/27 
f 14/15/28 33/34/29 32/33/27 
f 14/15/28 15/16/30 33/34/29 
f 15/16/30 34/35/31 33/34/29 
f 15/16/30 16/17/32 34/35/31 
f 16/17/32 35/36/33 34/35/31 
f 16/17/32 17/18/34 35/36/33 
f 17/18/34 36/37/35 35/36/33 
f 17/18/34 18/19/36 36/37/35 
f 18/19/36 37/38/37 36/37/35 
f 18/19/36 19/20/38 37/38/37 
f 19/20/38 21/22/5 37/38/37 
f 19/20/38 3/3/3 21/22/5 
f 21/22/5 38/39/39 39/40/40 
f 21/22/5 20/21/4 38/39/39 
f 20/21/4 40/41/41 38/39/39 
f 20/21/4 22/23/7 40/41/41 
f 22/23/7 41/42/42 40/41/41 
f 22/23/7 23/24/9 41/42/42 
f 23/24/9 42/43/43 41/42/42 
f 23/24/9 24/25/11 42/43/43 
f 24/25/11 43/44/44 42/43/43 
f 24/25/11 25/26/13 43/44/44 
f 25/26/13 44/45/45 43/44/44 
f 25/26/13 26/27/15 44/45/45 
f 26/27/15 45/46/46 44/45/45 
f 26/27/15 27/28/17 45/46/46 
f 27/28/17 46/47/47 45/46/46 
f 27/28/17 28/29/19 46/47/47 
f 28/29/19 47/48/48 46/47/47 
f 28/29/19 29/30/21 47/48/48 
f 29/30/21 48/49/49 47/48/48 
f 29/30/21 30/31/23 48/49/49 
f 30/31/23 49/50/50 48/49/49 
f 30/31/23 31/32/25 49/50/50 
f 31/32/25 50/51/51 49/50/50 
f 31/32/25 32/33/27 50/51/51 
f 32/33/27 51/52/52 50/51/51 
f 32/33/27 33/34/29 51/52/52 
f 33/34/29 52/53/53 51/52/52 
f 33/34/29 34/35/31 52/53/53 
f 34/35/31 53/54/54 52/53/53 
f 34/35/31 35/36/33 53/54/54 
f 35/36/33 54/55/55 53/54/54 
f 35/36/33 36/37/35 54/55/55 
f 36/37/35 55/56/56 54/55/55 
f 36/37/35 37/38/37 55/56/56 
f 37/38/37 39/40/40 55/56/56 
f 37/38/37 21/22/5 39/40/40 
f 39/40/40 56/57/57 57/58/58 
f 39/40/40 38/39/39 56/57/57 
f 38/39/39 58/59/59 56/57/57 
f 38/39/39 40/41/41 58/59/59 
f 40/41/41 59/60/60 58/59/59 
f 40/41/41 41/42/42 59/60/60 
f 41/42/42 60/61/61 59/60/60 
f 41/42/42 42/43/43 60/61/61 
f 42/43/43 61/62/62 60/61/61 
f 42/43/43 43/44/44 61/62/62 
f 43/44/44 62/63/63 61/62/62 
f 43/44/44 44/45/45 62/63/63 
f 44/45/45 63/64/64 62/63/63 
f 44/45/45 45/46/46 63/64/64 
f 45/46/46 64/65/65 63/64/64 
f 45/46/46 46/47/47 64/65/65 
f 46/47/47 65/66/66 64/65/65 
f 46/47/47 47/48/48 65/66/66 
f 47/48/48 66/67/67 65/66/66 
f 47/48/48 48/49/49 66/67/67 
f 48/49/49 67/68/68 66/67/67 
f 48/49/49 49/50/50 67/68/68 
f 49/50/50 68/69/69 67/68/68 
f 49/50/50 50/51/51 68/69/69 
f 50/51/51 69/70/70 68/69/69 
f 50/51/51 51/52/52 69/70/70 
f 51/52/52 70/71/71 69/70/70 
f 51/52/52 52/53/53 70/71/71 
f 52/53/53 71/72/72 70/71/71 
f 52/53/53 53/54/54 71/72/72 
f 53/54/54 72/73/73 71/72/72 
f 53/54/54 54/55/55 72/73/73 
f 54/55/55 73/74/74 72/73/73 
f 54/55/55 55/56/56 73/74/74 
f 55/56/56 57/58/58 73/74/74 
f 55/56/56 39/40/40 57/58/58 
s 1
f 74/75/75 57/58/76 56/57/75 
f 74/75/75 56/57/75 58/59/76 
f 74/75/75 58/59/76 59/60/76 
f 74/75/75 59/60/76 60/61/75 
f 74/75/75 60/61/75 61/62/76 
f 74/75/75 61/62/76 62/63/75 
f 74/75/75 62/63/75 63/64/75 
f 74/75/75 63/64/75 64/65/76 
f 74/75/75 64/65/76 65/66/75 
f 74/75/75 65/66/75 66/67/75 
f 74/75/75 66/67/75 67/68/76 
f 74/75/75 67/68/76 68/69/76 
f 74/75/75 68/69/76 69/70/75 
f 74/75/75 69/70/75 70/71/76 
f 74/75/75 70/71/76 71/72/75 
f 74/75/75 71/72/75 72/73/75 
f 74/75/75 72/73/75 73/74/76 
f 74/75/75 73/74/76 57/58/76 
# 144 faces

