# 3ds Max Wavefront OBJ Exporter v0.99 - (c)2007 guruware
# File Created: 19.12.2023 19:31:12

#
# object GeoSphere001
#

v  0.0000 1.0000 -0.0000
v  0.3607 0.9327 -0.0000
v  0.1115 0.9327 -0.3431
v  0.6729 0.7397 -0.0000
v  0.4795 0.8054 -0.3484
v  0.2079 0.7397 -0.6399
v  0.8944 0.4472 -0.0000
v  0.7844 0.5168 -0.3431
v  0.5687 0.5168 -0.6399
v  0.2764 0.4472 -0.8507
v  -0.2918 0.9327 -0.2120
v  -0.1832 0.8054 -0.5637
v  -0.5444 0.7397 -0.3955
v  -0.0839 0.5168 -0.8520
v  -0.4329 0.5168 -0.7386
v  -0.7236 0.4472 -0.5257
v  -0.2918 0.9327 0.2120
v  -0.5927 0.8054 0.0000
v  -0.5444 0.7397 0.3955
v  -0.8362 0.5168 -0.1835
v  -0.8362 0.5168 0.1835
v  -0.7236 0.4472 0.5257
v  0.1115 0.9327 0.3431
v  -0.1832 0.8054 0.5637
v  0.2079 0.7397 0.6399
v  -0.4329 0.5168 0.7386
v  -0.0839 0.5168 0.8520
v  0.2764 0.4472 0.8507
v  0.4795 0.8054 0.3484
v  0.5687 0.5168 0.6399
v  0.7844 0.5168 0.3431
v  0.9647 0.1561 0.2120
v  0.9647 0.1561 -0.2120
v  0.9051 -0.1561 0.3955
v  0.9855 -0.1699 0.0000
v  0.9051 -0.1561 -0.3955
v  0.7236 -0.4472 0.5257
v  0.8362 -0.5168 0.1835
v  0.8362 -0.5168 -0.1835
v  0.7236 -0.4472 -0.5257
v  0.4998 0.1561 -0.8520
v  0.0965 0.1561 -0.9830
v  0.6558 -0.1561 -0.7386
v  0.3045 -0.1699 -0.9372
v  -0.0965 -0.1561 -0.9830
v  0.4329 -0.5168 -0.7386
v  0.0839 -0.5168 -0.8520
v  -0.2764 -0.4472 -0.8507
v  -0.6558 0.1561 -0.7386
v  -0.9051 0.1561 -0.3955
v  -0.4998 -0.1561 -0.8520
v  -0.7973 -0.1699 -0.5792
v  -0.9647 -0.1561 -0.2120
v  -0.5687 -0.5168 -0.6399
v  -0.7844 -0.5168 -0.3431
v  -0.8944 -0.4472 0.0000
v  -0.9051 0.1561 0.3955
v  -0.6558 0.1561 0.7386
v  -0.9647 -0.1561 0.2120
v  -0.7973 -0.1699 0.5792
v  -0.4998 -0.1561 0.8520
v  -0.7844 -0.5168 0.3431
v  -0.5687 -0.5168 0.6399
v  -0.2764 -0.4472 0.8507
v  0.0965 0.1561 0.9830
v  0.4998 0.1561 0.8520
v  -0.0965 -0.1561 0.9830
v  0.3045 -0.1699 0.9372
v  0.6558 -0.1561 0.7386
v  0.0839 -0.5168 0.8520
v  0.4329 -0.5168 0.7386
v  0.7973 0.1699 -0.5792
v  -0.3045 0.1699 -0.9372
v  -0.9855 0.1699 0.0000
v  -0.3045 0.1699 0.9372
v  0.7973 0.1699 0.5792
v  0.0000 -1.0000 -0.0000
v  -0.1115 -0.9327 -0.3431
v  0.2918 -0.9327 -0.2120
v  -0.2079 -0.7397 -0.6399
v  0.1832 -0.8054 -0.5637
v  0.5444 -0.7397 -0.3955
v  -0.3607 -0.9327 0.0000
v  -0.6729 -0.7397 0.0000
v  -0.4795 -0.8054 -0.3484
v  -0.1115 -0.9327 0.3431
v  -0.2079 -0.7397 0.6399
v  -0.4795 -0.8054 0.3484
v  0.2918 -0.9327 0.2120
v  0.5444 -0.7397 0.3955
v  0.1832 -0.8054 0.5637
v  0.5927 -0.8054 0.0000
# 92 vertices

vn -0.0000 1.0000 0.0000
vn 0.3585 0.9335 -0.0000
vn 0.1108 0.9335 -0.3410
vn 0.6742 0.7385 -0.0000
vn 0.4841 0.8012 -0.3517
vn 0.2083 0.7385 -0.6412
vn 0.8944 0.4472 -0.0000
vn 0.7833 0.5170 -0.3452
vn 0.5703 0.5170 -0.6383
vn 0.2764 0.4472 -0.8507
vn -0.2900 0.9335 -0.2107
vn -0.1849 0.8012 -0.5691
vn -0.5455 0.7385 -0.3963
vn -0.0862 0.5170 -0.8516
vn -0.4308 0.5170 -0.7396
vn -0.7236 0.4472 -0.5257
vn -0.2900 0.9335 0.2107
vn -0.5983 0.8012 0.0000
vn -0.5455 0.7385 0.3963
vn -0.8366 0.5170 -0.1812
vn -0.8366 0.5170 0.1812
vn -0.7236 0.4472 0.5257
vn 0.1108 0.9335 0.3410
vn -0.1849 0.8012 0.5691
vn 0.2083 0.7385 0.6412
vn -0.4308 0.5170 0.7396
vn -0.0862 0.5170 0.8516
vn 0.2764 0.4472 0.8507
vn 0.4841 0.8012 0.3517
vn 0.5703 0.5170 0.6383
vn 0.7833 0.5170 0.3452
vn 0.9639 0.1594 0.2132
vn 0.9639 0.1594 -0.2132
vn 0.9052 -0.1594 0.3941
vn 0.9842 -0.1768 0.0000
vn 0.9052 -0.1594 -0.3941
vn 0.7236 -0.4472 0.5257
vn 0.8366 -0.5170 0.1812
vn 0.8366 -0.5170 -0.1812
vn 0.7236 -0.4472 -0.5257
vn 0.5007 0.1594 -0.8509
vn 0.0951 0.1594 -0.9826
vn 0.6545 -0.1594 -0.7391
vn 0.3041 -0.1768 -0.9361
vn -0.0951 -0.1594 -0.9826
vn 0.4308 -0.5170 -0.7396
vn 0.0862 -0.5170 -0.8516
vn -0.2764 -0.4472 -0.8507
vn -0.6545 0.1594 -0.7391
vn -0.9052 0.1594 -0.3941
vn -0.5007 -0.1594 -0.8509
vn -0.7963 -0.1768 -0.5785
vn -0.9639 -0.1594 -0.2132
vn -0.5703 -0.5170 -0.6383
vn -0.7833 -0.5170 -0.3452
vn -0.8944 -0.4472 -0.0000
vn -0.9052 0.1594 0.3941
vn -0.6545 0.1594 0.7391
vn -0.9639 -0.1594 0.2132
vn -0.7963 -0.1768 0.5785
vn -0.5007 -0.1594 0.8509
vn -0.7833 -0.5170 0.3452
vn -0.5703 -0.5170 0.6383
vn -0.2764 -0.4472 0.8507
vn 0.0951 0.1594 0.9826
vn 0.5007 0.1594 0.8509
vn -0.0951 -0.1594 0.9826
vn 0.3041 -0.1768 0.9361
vn 0.6545 -0.1594 0.7391
vn 0.0862 -0.5170 0.8516
vn 0.4308 -0.5170 0.7396
vn 0.7963 0.1768 -0.5785
vn -0.3041 0.1768 -0.9361
vn -0.9842 0.1768 0.0000
vn -0.3041 0.1768 0.9361
vn 0.7963 0.1768 0.5785
vn -0.0000 -1.0000 -0.0000
vn -0.1108 -0.9335 -0.3410
vn 0.2900 -0.9335 -0.2107
vn -0.2083 -0.7385 -0.6412
vn 0.1849 -0.8012 -0.5691
vn 0.5455 -0.7385 -0.3963
vn -0.3585 -0.9335 0.0000
vn -0.6742 -0.7385 0.0000
vn -0.4841 -0.8012 -0.3517
vn -0.1108 -0.9335 0.3410
vn -0.2083 -0.7385 0.6412
vn -0.4841 -0.8012 0.3517
vn 0.2900 -0.9335 0.2107
vn 0.5455 -0.7385 0.3963
vn 0.1849 -0.8012 0.5691
vn 0.5983 -0.8012 0.0000
# 92 vertex normals

vt 0.5000 0.5000 1.0464
vt 0.6971 0.5000 1.0096
vt 0.5609 0.6875 1.0096
vt 0.8677 0.5000 0.9042
vt 0.7620 0.6904 0.9401
vt 0.6136 0.8497 0.9042
vt 0.9887 0.5000 0.7444
vt 0.9286 0.6875 0.7824
vt 0.8107 0.8497 0.7824
vt 0.6510 0.9648 0.7444
vt 0.3405 0.6159 1.0096
vt 0.3999 0.8080 0.9401
vt 0.2025 0.7161 0.9042
vt 0.4542 0.9656 0.7824
vt 0.2634 0.9036 0.7824
vt 0.1046 0.7873 0.7444
vt 0.3405 0.3841 1.0096
vt 0.1761 0.5000 0.9401
vt 0.2025 0.2839 0.9042
vt 0.0431 0.6003 0.7824
vt 0.0431 0.3997 0.7824
vt 0.1046 0.2127 0.7444
vt 0.5609 0.3125 1.0096
vt 0.3999 0.1920 0.9401
vt 0.6136 0.1503 0.9042
vt 0.2634 0.0964 0.7824
vt 0.4542 0.0344 0.7824
vt 0.6510 0.0352 0.7444
vt 0.7620 0.3096 0.9401
vt 0.8107 0.1503 0.7824
vt 0.9286 0.3125 0.7824
vt 1.0272 0.3841 0.5853
vt 1.0272 0.6159 0.5853
vt 0.9946 0.2839 0.4147
vt 1.0385 0.5000 0.4071
vt 0.9946 0.7161 0.4147
vt 0.8954 0.2127 0.2556
vt 0.9569 0.3997 0.2176
vt 0.9569 0.6003 0.2176
vt 0.8954 0.7873 0.2556
vt 0.7731 0.9656 0.5853
vt 0.5527 1.0372 0.5853
vt 0.8584 0.9036 0.4147
vt 0.6664 1.0121 0.4071
vt 0.4473 1.0372 0.4147
vt 0.7366 0.9036 0.2176
vt 0.5458 0.9656 0.2176
vt 0.3490 0.9648 0.2556
vt 0.1416 0.9036 0.5853
vt 0.0054 0.7161 0.5853
vt 0.2269 0.9656 0.4147
vt 0.0644 0.8165 0.4071
vt -0.0272 0.6159 0.4147
vt 0.1893 0.8497 0.2176
vt 0.0714 0.6875 0.2176
vt 0.0113 0.5000 0.2556
vt 0.0054 0.2839 0.5853
vt 0.1416 0.0964 0.5853
vt -0.0272 0.3841 0.4147
vt 0.0644 0.1835 0.4071
vt 0.2269 0.0344 0.4147
vt 0.0714 0.3125 0.2176
vt 0.1893 0.1503 0.2176
vt 0.3490 0.0352 0.2556
vt 0.5527 -0.0372 0.5853
vt 0.7731 0.0344 0.5853
vt 0.4473 -0.0372 0.4147
vt 0.6664 -0.0121 0.4071
vt 0.8584 0.0964 0.4147
vt 0.5458 0.0344 0.2176
vt 0.7366 0.0964 0.2176
vt 0.9356 0.8165 0.5929
vt 0.3336 1.0121 0.5929
vt -0.0385 0.5000 0.5929
vt 0.3336 -0.0121 0.5929
vt 0.9356 0.1835 0.5929
vt 0.5000 0.5000 -0.0464
vt 0.4391 0.6875 -0.0096
vt 0.6595 0.6159 -0.0096
vt 0.3864 0.8497 0.0958
vt 0.6001 0.8080 0.0599
vt 0.7975 0.7161 0.0958
vt 0.3029 0.5000 -0.0096
vt 0.1323 0.5000 0.0958
vt 0.2380 0.6904 0.0599
vt 0.4391 0.3125 -0.0096
vt 0.3864 0.1503 0.0958
vt 0.2380 0.3096 0.0599
vt 0.6595 0.3841 -0.0096
vt 0.7975 0.2839 0.0958
vt 0.6001 0.1920 0.0599
vt 0.8239 0.5000 0.0599
# 92 texture coords

o GeoSphere001
g GeoSphere001
s 1
f 1/1/1 2/2/2 3/3/3 
f 2/2/2 4/4/4 5/5/5 
f 2/2/2 5/5/5 3/3/3 
f 3/3/3 5/5/5 6/6/6 
f 4/4/4 7/7/7 8/8/8 
f 4/4/4 8/8/8 5/5/5 
f 5/5/5 8/8/8 9/9/9 
f 5/5/5 9/9/9 6/6/6 
f 6/6/6 9/9/9 10/10/10 
f 1/1/1 3/3/3 11/11/11 
f 3/3/3 6/6/6 12/12/12 
f 3/3/3 12/12/12 11/11/11 
f 11/11/11 12/12/12 13/13/13 
f 6/6/6 10/10/10 14/14/14 
f 6/6/6 14/14/14 12/12/12 
f 12/12/12 14/14/14 15/15/15 
f 12/12/12 15/15/15 13/13/13 
f 13/13/13 15/15/15 16/16/16 
f 1/1/1 11/11/11 17/17/17 
f 11/11/11 13/13/13 18/18/18 
f 11/11/11 18/18/18 17/17/17 
f 17/17/17 18/18/18 19/19/19 
f 13/13/13 16/16/16 20/20/20 
f 13/13/13 20/20/20 18/18/18 
f 18/18/18 20/20/20 21/21/21 
f 18/18/18 21/21/21 19/19/19 
f 19/19/19 21/21/21 22/22/22 
f 1/1/1 17/17/17 23/23/23 
f 17/17/17 19/19/19 24/24/24 
f 17/17/17 24/24/24 23/23/23 
f 23/23/23 24/24/24 25/25/25 
f 19/19/19 22/22/22 26/26/26 
f 19/19/19 26/26/26 24/24/24 
f 24/24/24 26/26/26 27/27/27 
f 24/24/24 27/27/27 25/25/25 
f 25/25/25 27/27/27 28/28/28 
f 1/1/1 23/23/23 2/2/2 
f 23/23/23 25/25/25 29/29/29 
f 23/23/23 29/29/29 2/2/2 
f 2/2/2 29/29/29 4/4/4 
f 25/25/25 28/28/28 30/30/30 
f 25/25/25 30/30/30 29/29/29 
f 29/29/29 30/30/30 31/31/31 
f 29/29/29 31/31/31 4/4/4 
f 4/4/4 31/31/31 7/7/7 
f 7/7/7 32/32/32 33/33/33 
f 32/32/32 34/34/34 35/35/35 
f 32/32/32 35/35/35 33/33/33 
f 33/33/33 35/35/35 36/36/36 
f 34/34/34 37/37/37 38/38/38 
f 34/34/34 38/38/38 35/35/35 
f 35/35/35 38/38/38 39/39/39 
f 35/35/35 39/39/39 36/36/36 
f 36/36/36 39/39/39 40/40/40 
f 10/10/10 41/41/41 42/42/42 
f 41/41/41 43/43/43 44/44/44 
f 41/41/41 44/44/44 42/42/42 
f 42/42/42 44/44/44 45/45/45 
f 43/43/43 40/40/40 46/46/46 
f 43/43/43 46/46/46 44/44/44 
f 44/44/44 46/46/46 47/47/47 
f 44/44/44 47/47/47 45/45/45 
f 45/45/45 47/47/47 48/48/48 
f 16/16/16 49/49/49 50/50/50 
f 49/49/49 51/51/51 52/52/52 
f 49/49/49 52/52/52 50/50/50 
f 50/50/50 52/52/52 53/53/53 
f 51/51/51 48/48/48 54/54/54 
f 51/51/51 54/54/54 52/52/52 
f 52/52/52 54/54/54 55/55/55 
f 52/52/52 55/55/55 53/53/53 
f 53/53/53 55/55/55 56/56/56 
f 22/22/22 57/57/57 58/58/58 
f 57/57/57 59/59/59 60/60/60 
f 57/57/57 60/60/60 58/58/58 
f 58/58/58 60/60/60 61/61/61 
f 59/59/59 56/56/56 62/62/62 
f 59/59/59 62/62/62 60/60/60 
f 60/60/60 62/62/62 63/63/63 
f 60/60/60 63/63/63 61/61/61 
f 61/61/61 63/63/63 64/64/64 
f 28/28/28 65/65/65 66/66/66 
f 65/65/65 67/67/67 68/68/68 
f 65/65/65 68/68/68 66/66/66 
f 66/66/66 68/68/68 69/69/69 
f 67/67/67 64/64/64 70/70/70 
f 67/67/67 70/70/70 68/68/68 
f 68/68/68 70/70/70 71/71/71 
f 68/68/68 71/71/71 69/69/69 
f 69/69/69 71/71/71 37/37/37 
f 40/40/40 43/43/43 36/36/36 
f 43/43/43 41/41/41 72/72/72 
f 43/43/43 72/72/72 36/36/36 
f 36/36/36 72/72/72 33/33/33 
f 41/41/41 10/10/10 9/9/9 
f 41/41/41 9/9/9 72/72/72 
f 72/72/72 9/9/9 8/8/8 
f 72/72/72 8/8/8 33/33/33 
f 33/33/33 8/8/8 7/7/7 
f 48/48/48 51/51/51 45/45/45 
f 51/51/51 49/49/49 73/73/73 
f 51/51/51 73/73/73 45/45/45 
f 45/45/45 73/73/73 42/42/42 
f 49/49/49 16/16/16 15/15/15 
f 49/49/49 15/15/15 73/73/73 
f 73/73/73 15/15/15 14/14/14 
f 73/73/73 14/14/14 42/42/42 
f 42/42/42 14/14/14 10/10/10 
f 56/56/56 59/59/59 53/53/53 
f 59/59/59 57/57/57 74/74/74 
f 59/59/59 74/74/74 53/53/53 
f 53/53/53 74/74/74 50/50/50 
f 57/57/57 22/22/22 21/21/21 
f 57/57/57 21/21/21 74/74/74 
f 74/74/74 21/21/21 20/20/20 
f 74/74/74 20/20/20 50/50/50 
f 50/50/50 20/20/20 16/16/16 
f 64/64/64 67/67/67 61/61/61 
f 67/67/67 65/65/65 75/75/75 
f 67/67/67 75/75/75 61/61/61 
f 61/61/61 75/75/75 58/58/58 
f 65/65/65 28/28/28 27/27/27 
f 65/65/65 27/27/27 75/75/75 
f 75/75/75 27/27/27 26/26/26 
f 75/75/75 26/26/26 58/58/58 
f 58/58/58 26/26/26 22/22/22 
f 37/37/37 34/34/34 69/69/69 
f 34/34/34 32/32/32 76/76/76 
f 34/34/34 76/76/76 69/69/69 
f 69/69/69 76/76/76 66/66/66 
f 32/32/32 7/7/7 31/31/31 
f 32/32/32 31/31/31 76/76/76 
f 76/76/76 31/31/31 30/30/30 
f 76/76/76 30/30/30 66/66/66 
f 66/66/66 30/30/30 28/28/28 
f 77/77/77 78/78/78 79/79/79 
f 78/78/78 80/80/80 81/81/81 
f 78/78/78 81/81/81 79/79/79 
f 79/79/79 81/81/81 82/82/82 
f 80/80/80 48/48/48 47/47/47 
f 80/80/80 47/47/47 81/81/81 
f 81/81/81 47/47/47 46/46/46 
f 81/81/81 46/46/46 82/82/82 
f 82/82/82 46/46/46 40/40/40 
f 77/77/77 83/83/83 78/78/78 
f 83/83/83 84/84/84 85/85/85 
f 83/83/83 85/85/85 78/78/78 
f 78/78/78 85/85/85 80/80/80 
f 84/84/84 56/56/56 55/55/55 
f 84/84/84 55/55/55 85/85/85 
f 85/85/85 55/55/55 54/54/54 
f 85/85/85 54/54/54 80/80/80 
f 80/80/80 54/54/54 48/48/48 
f 77/77/77 86/86/86 83/83/83 
f 86/86/86 87/87/87 88/88/88 
f 86/86/86 88/88/88 83/83/83 
f 83/83/83 88/88/88 84/84/84 
f 87/87/87 64/64/64 63/63/63 
f 87/87/87 63/63/63 88/88/88 
f 88/88/88 63/63/63 62/62/62 
f 88/88/88 62/62/62 84/84/84 
f 84/84/84 62/62/62 56/56/56 
f 77/77/77 89/89/89 86/86/86 
f 89/89/89 90/90/90 91/91/91 
f 89/89/89 91/91/91 86/86/86 
f 86/86/86 91/91/91 87/87/87 
f 90/90/90 37/37/37 71/71/71 
f 90/90/90 71/71/71 91/91/91 
f 91/91/91 71/71/71 70/70/70 
f 91/91/91 70/70/70 87/87/87 
f 87/87/87 70/70/70 64/64/64 
f 77/77/77 79/79/79 89/89/89 
f 79/79/79 82/82/82 92/92/92 
f 79/79/79 92/92/92 89/89/89 
f 89/89/89 92/92/92 90/90/90 
f 82/82/82 40/40/40 39/39/39 
f 82/82/82 39/39/39 92/92/92 
f 92/92/92 39/39/39 38/38/38 
f 92/92/92 38/38/38 90/90/90 
f 90/90/90 38/38/38 37/37/37 
# 180 faces

