# 3ds Max Wavefront OBJ Exporter v0.99 - (c)2007 guruware
# File Created: 29.11.2022 23:33:27

#
# object Box001
#

v  -4.5000 -4.5000 -5.0000
v  -4.5000 4.5000 -5.0000
v  4.5000 4.5000 -5.0000
v  4.5000 -4.5000 -5.0000
v  -4.5000 -4.5000 5.0000
v  4.5000 -4.5000 5.0000
v  4.5000 4.5000 5.0000
v  -4.5000 4.5000 5.0000
v  -4.5000 -5.0000 -4.5000
v  4.5000 -5.0000 -4.5000
v  4.5000 -5.0000 4.5000
v  -4.5000 -5.0000 4.5000
v  5.0000 -4.5000 -4.5000
v  5.0000 4.5000 -4.5000
v  5.0000 4.5000 4.5000
v  5.0000 -4.5000 4.5000
v  4.5000 5.0000 -4.5000
v  -4.5000 5.0000 -4.5000
v  -4.5000 5.0000 4.5000
v  4.5000 5.0000 4.5000
v  -5.0000 4.5000 -4.5000
v  -5.0000 -4.5000 -4.5000
v  -5.0000 -4.5000 4.5000
v  -5.0000 4.5000 4.5000
# 24 vertices

vn 0.0000 0.0000 -1.0000
vn 0.0000 0.0000 1.0000
vn 0.0000 -1.0000 0.0000
vn 1.0000 0.0000 0.0000
vn 0.0000 1.0000 0.0000
vn -1.0000 0.0000 0.0000
vn -0.5774 -0.5774 -0.5774
vn 0.5774 -0.5774 -0.5774
vn -0.5774 0.5774 -0.5774
vn 0.5774 0.5774 -0.5774
vn -0.5774 -0.5774 0.5774
vn 0.5774 -0.5774 0.5774
vn -0.5774 0.5774 0.5774
vn 0.5774 0.5774 0.5774
vn -0.7071 0.0000 -0.7071
vn 0.0000 0.7071 -0.7071
vn 0.7071 0.0000 -0.7071
vn 0.0000 -0.7071 -0.7071
vn 0.0000 -0.7071 0.7071
vn 0.7071 0.0000 0.7071
vn 0.0000 0.7071 0.7071
vn -0.7071 0.0000 0.7071
vn 0.7071 -0.7071 0.0000
vn -0.7071 -0.7071 0.0000
vn 0.7071 0.7071 0.0000
vn -0.7071 0.7071 0.0000
# 26 vertex normals

vt 0.9500 0.0500 0.0000
vt 0.9500 0.9500 0.0000
vt 0.0500 0.9500 0.0000
vt 0.0500 0.0500 0.0000
vt 0.0500 0.0500 1.0000
vt 0.9500 0.0500 1.0000
vt 0.9500 0.9500 1.0000
vt 0.0500 0.9500 1.0000
vt 0.9500 0.0000 0.0500
vt 1.0000 0.0500 0.0500
vt 1.0000 0.0500 0.9500
vt 0.9500 0.0000 0.9500
vt 0.9500 1.0000 0.0500
vt 1.0000 0.9500 0.0500
vt 1.0000 0.9500 0.9500
vt 0.9500 1.0000 0.9500
vt 0.0500 1.0000 0.0500
vt 0.0000 0.0500 0.0500
vt 0.0000 0.9500 0.0500
vt 0.0500 0.0000 0.0500
vt 0.0500 0.0000 0.9500
vt 0.0500 1.0000 0.9500
vt 0.0000 0.0500 0.9500
vt 0.0000 0.9500 0.9500
# 24 texture coords

o Box001
g Box001
s 2
f 1/1/1 2/2/1 3/3/1 
f 3/3/1 4/4/1 1/1/1 
s 4
f 5/5/2 6/6/2 7/7/2 
f 7/7/2 8/8/2 5/5/2 
s 8
f 9/4/3 10/1/3 11/2/3 
f 11/2/3 12/3/3 9/4/3 
s 16
f 13/5/4 14/6/4 15/7/4 
f 15/7/4 16/8/4 13/5/4 
s 32
f 17/5/5 18/6/5 19/7/5 
f 19/7/5 20/8/5 17/5/5 
s 64
f 21/4/6 22/1/6 23/2/6 
f 23/2/6 24/3/6 21/4/6 
s off
f 1/9/7 9/10/7 22/1/7 
f 13/10/8 10/1/8 4/9/8 
f 21/11/9 18/6/9 2/12/9 
f 17/11/10 14/6/10 3/12/10 
f 5/13/11 23/2/11 12/14/11 
f 11/2/12 16/14/12 6/13/12 
f 19/7/13 24/15/13 8/16/13 
f 15/7/14 20/15/14 7/16/14 
f 1/1/15 22/10/15 2/2/15 
f 21/14/15 2/2/15 22/10/15 
f 2/2/16 18/13/16 3/3/16 
f 17/17/16 3/3/16 18/13/16 
f 13/18/17 4/4/17 14/19/17 
f 3/3/17 14/19/17 4/4/17 
f 9/9/18 1/1/18 10/20/18 
f 4/4/18 10/20/18 1/1/18 
f 5/5/19 12/21/19 6/6/19 
f 11/12/19 6/6/19 12/21/19 
f 6/6/20 16/11/20 7/7/20 
f 15/15/20 7/7/20 16/11/20 
f 19/22/21 8/8/21 20/16/21 
f 7/7/21 20/16/21 8/8/21 
f 23/23/22 5/5/22 24/24/22 
f 8/8/22 24/24/22 5/5/22 
f 10/1/23 13/10/23 11/2/23 
f 16/14/23 11/2/23 13/10/23 
f 22/1/24 9/10/24 23/2/24 
f 12/14/24 23/2/24 9/10/24 
f 14/6/25 17/11/25 15/7/25 
f 20/15/25 15/7/25 17/11/25 
f 18/6/26 21/11/26 19/7/26 
f 24/15/26 19/7/26 21/11/26 
# 44 faces

