# 3ds Max Wavefront OBJ Exporter v0.99 - (c)2007 guruware
# File Created: 23.02.2022 22:38:34

#
# object Monitor_displey_00
#

v  -1.5000 14.5000 23.0000
v  -1.5000 14.5000 4.0000
v  -1.5000 -14.5000 23.0000
v  -1.5000 -14.5000 4.0000
# 4 vertices

vn -1.0000 0.0000 -0.0000
# 1 vertex normals

vt 0.0000 1.0000 0.5000
vt 0.0000 0.0000 0.5000
vt 1.0000 1.0000 0.5000
vt 1.0000 0.0000 0.5000
# 4 texture coords

o Monitor_displey_00
g Monitor_displey_00
s 1
f 1/1/1 2/2/1 3/3/1 
f 4/4/1 3/3/1 2/2/1 
# 2 faces

