# 3ds Max Wavefront OBJ Exporter v0.99 - (c)2007 guruware
# File Created: 29.11.2022 23:05:58

#
# object Plane001
#

v  -30.0000 -20.0000 0.0000
v  -30.0000 -30.0000 0.0000
v  -21.0000 -20.0000 0.0000
v  -20.0000 -30.0000 0.0000
v  -20.0000 -21.0000 0.0000
v  20.0000 -21.0000 0.0000
v  20.0000 -30.0000 0.0000
v  30.0000 -20.0000 0.0000
v  30.0000 -30.0000 0.0000
v  -30.0000 20.0000 0.0000
v  -21.0000 20.0000 0.0000
v  -19.0000 19.0000 -50.0000
v  -19.0000 -19.0000 -50.0000
v  19.0000 19.0000 -50.0000
v  19.0000 -19.0000 -50.0000
v  21.0000 20.0000 0.0000
v  21.0000 -20.0000 0.0000
v  30.0000 20.0000 0.0000
v  -30.0000 30.0000 0.0000
v  -20.0000 30.0000 0.0000
v  -20.0000 21.0000 0.0000
v  20.0000 30.0000 0.0000
v  20.0000 21.0000 0.0000
v  30.0000 30.0000 0.0000
v  -20.0000 -20.0000 -1.0000
v  20.0000 -20.0000 -1.0000
v  20.0000 -20.0000 -49.0000
v  -20.0000 -20.0000 -49.0000
v  -20.0000 20.0000 -1.0000
v  -20.0000 20.0000 -49.0000
v  20.0000 20.0000 -1.0000
v  20.0000 20.0000 -49.0000
# 32 vertices

vn 0.0000 0.0000 1.0000
vn 0.0000 1.0000 0.0000
vn 1.0000 0.0000 0.0000
vn 0.0000 -1.0000 0.0000
vn -1.0000 0.0000 0.0000
vn 0.5774 0.5774 0.5774
vn -0.5774 0.5774 0.5774
vn 0.5774 -0.5774 0.5774
vn -0.5774 -0.5774 0.5774
vn 0.0000 0.7071 0.7071
vn 0.7071 0.0000 0.7071
vn 0.7071 -0.0000 0.7071
vn -0.7071 -0.0000 0.7071
vn -0.7071 0.0000 0.7071
vn 0.0000 -0.7071 0.7071
# 15 vertex normals

vt 0.0000 0.1667 1.0000
vt 0.0000 0.0000 1.0000
vt 0.1500 0.1667 1.0000
vt 0.1667 0.0000 1.0000
vt 0.1667 0.1500 1.0000
vt 0.8333 0.1500 1.0000
vt 0.8333 0.0000 1.0000
vt 1.0000 0.1667 1.0000
vt 1.0000 0.0000 1.0000
vt 0.0000 0.8333 1.0000
vt 0.1500 0.8333 1.0000
vt 0.1833 0.8167 -0.0000
vt 0.1833 0.1833 -0.0000
vt 0.8167 0.8167 -0.0000
vt 0.8167 0.1833 -0.0000
vt 0.8500 0.8333 1.0000
vt 0.8500 0.1667 1.0000
vt 1.0000 0.8333 1.0000
vt 0.0000 1.0000 1.0000
vt 0.1667 1.0000 1.0000
vt 0.1667 0.8500 1.0000
vt 0.8333 1.0000 1.0000
vt 0.8333 0.8500 1.0000
vt 1.0000 1.0000 1.0000
vt 0.8333 0.9800 0.1667
vt 0.1667 0.9800 0.1667
vt 0.1667 0.0200 0.1667
vt 0.8333 0.0200 0.1667
vt 0.8333 0.9800 0.8333
vt 0.1667 0.9800 0.8333
vt 0.1667 0.0200 0.8333
vt 0.8333 0.0200 0.8333
vt 0.1667 0.1667 0.9800
vt 0.8333 0.1667 0.9800
vt 0.1667 0.8333 0.9800
vt 0.8333 0.8333 0.9800
vt 0.1667 0.1667 0.0200
vt 0.1667 0.8333 0.0200
vt 0.8333 0.8333 0.0200
vt 0.8333 0.1667 0.0200
# 40 texture coords

o Plane001
g Plane001
s 1
f 1/1/1 2/2/1 3/3/1 
f 4/4/1 5/5/1 2/2/1 
f 5/5/1 4/4/1 6/6/1 
f 7/7/1 6/6/1 4/4/1 
f 6/6/1 7/7/1 8/8/1 
f 9/9/1 8/8/1 7/7/1 
f 10/10/1 1/1/1 11/11/1 
f 3/3/1 11/11/1 1/1/1 
f 12/12/1 13/13/1 14/14/1 
f 15/15/1 14/14/1 13/13/1 
f 16/16/1 17/17/1 18/18/1 
f 8/8/1 18/18/1 17/17/1 
f 19/19/1 10/10/1 20/20/1 
f 21/21/1 20/20/1 10/10/1 
f 20/20/1 21/21/1 22/22/1 
f 23/23/1 22/22/1 21/21/1 
f 22/22/1 23/23/1 24/24/1 
f 18/18/1 24/24/1 16/16/1 
s off
f 25/25/2 26/26/2 27/27/2 
f 27/27/2 28/28/2 25/25/2 
f 29/25/3 25/26/3 28/27/3 
f 28/27/3 30/28/3 29/25/3 
f 31/29/4 29/30/4 30/31/4 
f 30/31/4 32/32/4 31/29/4 
f 26/29/5 31/30/5 32/31/5 
f 32/31/5 27/32/5 26/29/5 
f 5/5/6 25/33/6 3/3/6 
f 17/17/7 26/34/7 6/6/7 
f 29/35/8 21/21/8 11/11/8 
f 16/16/9 23/23/9 31/36/9 
s 1
f 17/17/1 6/6/1 8/8/1 
f 11/11/1 21/21/1 10/10/1 
f 2/2/1 5/5/1 3/3/1 
s off
f 25/33/10 5/5/10 26/34/10 
f 6/6/10 26/34/10 5/5/10 
f 3/3/11 25/33/11 11/11/11 
f 29/35/12 11/11/12 25/33/12 
f 26/34/13 17/17/13 31/36/13 
f 16/16/14 31/36/14 17/17/14 
f 21/21/15 29/35/15 23/23/15 
f 31/36/15 23/23/15 29/35/15 
s 1
f 24/24/1 23/23/1 16/16/1 
s off
f 28/37/11 13/13/11 30/38/11 
f 12/12/11 30/38/11 13/13/11 
f 30/38/15 12/12/15 32/39/15 
f 14/14/15 32/39/15 12/12/15 
f 15/15/14 27/40/14 14/14/14 
f 32/39/14 14/14/14 27/40/14 
f 13/13/10 28/37/10 15/15/10 
f 27/40/10 15/15/10 28/37/10 
# 50 faces

