# 3ds Max Wavefront OBJ Exporter v0.99 - (c)2007 guruware
# File Created: 29.11.2022 23:09:11

#
# object Plane001
#

v  -30.0000 -10.0000 0.0000
v  -30.0000 -30.0000 0.0000
v  -11.0000 -10.0000 0.0000
v  -10.0000 -30.0000 0.0000
v  -10.0000 -11.0000 0.0000
v  10.0000 -11.0000 0.0000
v  10.0000 -30.0000 0.0000
v  30.0000 -10.0000 0.0000
v  30.0000 -30.0000 0.0000
v  -30.0000 10.0000 0.0000
v  -11.0000 10.0000 0.0000
v  -9.0000 9.0000 25.0000
v  -9.0000 -9.0000 25.0000
v  9.0000 9.0000 25.0000
v  9.0000 -9.0000 25.0000
v  11.0000 10.0000 0.0000
v  11.0000 -10.0000 0.0000
v  30.0000 10.0000 0.0000
v  -30.0000 30.0000 0.0000
v  -10.0000 30.0000 0.0000
v  -10.0000 11.0000 0.0000
v  10.0000 30.0000 0.0000
v  10.0000 11.0000 0.0000
v  30.0000 30.0000 0.0000
v  -10.0000 -10.0000 1.0000
v  10.0000 -10.0000 1.0000
v  10.0000 -10.0000 24.0000
v  -10.0000 -10.0000 24.0000
v  -10.0000 10.0000 1.0000
v  -10.0000 10.0000 24.0000
v  10.0000 10.0000 1.0000
v  10.0000 10.0000 24.0000
# 32 vertices

vn 0.0000 0.0000 1.0000
vn 0.0000 -1.0000 0.0000
vn -1.0000 0.0000 0.0000
vn 0.0000 1.0000 0.0000
vn 1.0000 0.0000 0.0000
vn -0.7071 0.0000 0.7071
vn 0.0000 0.7071 0.7071
vn 0.7071 0.0000 0.7071
vn 0.0000 -0.7071 0.7071
vn -0.5774 -0.5774 0.5774
vn 0.5774 -0.5774 0.5774
vn -0.5774 0.5774 0.5774
vn 0.5774 0.5774 0.5774
# 13 vertex normals

vt 0.0000 0.3333 -0.0000
vt 0.0000 0.0000 -0.0000
vt 0.3167 0.3333 -0.0000
vt 0.3333 0.0000 -0.0000
vt 0.3333 0.3167 -0.0000
vt 0.6667 0.3167 -0.0000
vt 0.6667 0.0000 -0.0000
vt 1.0000 0.3333 -0.0000
vt 1.0000 0.0000 -0.0000
vt 0.0000 0.6667 -0.0000
vt 0.3167 0.6667 -0.0000
vt 0.3500 0.6500 1.0000
vt 0.3500 0.3500 1.0000
vt 0.6500 0.6500 1.0000
vt 0.6500 0.3500 1.0000
vt 0.6833 0.6667 -0.0000
vt 0.6833 0.3333 -0.0000
vt 1.0000 0.6667 -0.0000
vt 0.0000 1.0000 -0.0000
vt 0.3333 1.0000 -0.0000
vt 0.3333 0.6833 -0.0000
vt 0.6667 1.0000 -0.0000
vt 0.6667 0.6833 -0.0000
vt 1.0000 1.0000 -0.0000
vt 0.3333 0.0400 0.3333
vt 0.6667 0.0400 0.3333
vt 0.6667 0.9600 0.3333
vt 0.3333 0.9600 0.3333
vt 0.3333 0.0400 0.6667
vt 0.6667 0.0400 0.6667
vt 0.6667 0.9600 0.6667
vt 0.3333 0.9600 0.6667
vt 0.3333 0.3333 0.9600
vt 0.3333 0.6667 0.9600
vt 0.6667 0.6667 0.9600
vt 0.6667 0.3333 0.9600
vt 0.3333 0.3333 0.0400
vt 0.6667 0.3333 0.0400
vt 0.3333 0.6667 0.0400
vt 0.6667 0.6667 0.0400
# 40 texture coords

o Plane001
g Plane001
s 1
f 1/1/1 2/2/1 3/3/1 
f 4/4/1 5/5/1 2/2/1 
f 5/5/1 4/4/1 6/6/1 
f 7/7/1 6/6/1 4/4/1 
f 6/6/1 7/7/1 8/8/1 
f 9/9/1 8/8/1 7/7/1 
f 10/10/1 1/1/1 11/11/1 
f 3/3/1 11/11/1 1/1/1 
f 12/12/1 13/13/1 14/14/1 
f 15/15/1 14/14/1 13/13/1 
f 16/16/1 17/17/1 18/18/1 
f 8/8/1 18/18/1 17/17/1 
f 19/19/1 10/10/1 20/20/1 
f 21/21/1 20/20/1 10/10/1 
f 20/20/1 21/21/1 22/22/1 
f 23/23/1 22/22/1 21/21/1 
f 22/22/1 23/23/1 24/24/1 
f 18/18/1 24/24/1 16/16/1 
s off
f 25/25/2 26/26/2 27/27/2 
f 27/27/2 28/28/2 25/25/2 
f 29/25/3 25/26/3 28/27/3 
f 28/27/3 30/28/3 29/25/3 
f 31/29/4 29/30/4 30/31/4 
f 30/31/4 32/32/4 31/29/4 
f 26/29/5 31/30/5 32/31/5 
f 32/31/5 27/32/5 26/29/5 
f 28/33/6 13/13/6 30/34/6 
f 12/12/6 30/34/6 13/13/6 
f 30/34/7 12/12/7 32/35/7 
f 14/14/7 32/35/7 12/12/7 
f 15/15/8 27/36/8 14/14/8 
f 32/35/8 14/14/8 27/36/8 
f 13/13/9 28/33/9 15/15/9 
f 27/36/9 15/15/9 28/33/9 
f 5/5/10 25/37/10 3/3/10 
f 17/17/11 26/38/11 6/6/11 
f 29/39/12 21/21/12 11/11/12 
f 16/16/13 23/23/13 31/40/13 
s 1
f 17/17/1 6/6/1 8/8/1 
f 11/11/1 21/21/1 10/10/1 
f 2/2/1 5/5/1 3/3/1 
s off
f 25/37/9 5/5/9 26/38/9 
f 6/6/9 26/38/9 5/5/9 
f 3/3/6 25/37/6 11/11/6 
f 29/39/6 11/11/6 25/37/6 
f 26/38/8 17/17/8 31/40/8 
f 16/16/8 31/40/8 17/17/8 
f 21/21/7 29/39/7 23/23/7 
f 31/40/7 23/23/7 29/39/7 
s 1
f 24/24/1 23/23/1 16/16/1 
# 50 faces

