# 3ds Max Wavefront OBJ Exporter v0.99 - (c)2007 guruware
# File Created: 29.11.2022 22:58:08

#
# object Cylinder001
#

v  30.0010 -0.0000 0.0001
v  19.4205 8.0390 -0.0001
v  21.0196 0.0000 -0.0000
v  29.9997 12.3624 0.0001
v  14.8631 14.8631 -0.0001
v  29.9998 29.9997 0.0001
v  8.0390 19.4205 -0.0001
v  12.3624 29.9995 0.0001
v  -0.0000 21.0196 -0.0000
v  -0.0000 30.0015 0.0001
v  -8.0390 19.4205 -0.0001
v  -12.3624 29.9995 0.0001
v  -14.8631 14.8631 -0.0001
v  -29.9998 29.9997 0.0001
v  -19.4205 8.0390 -0.0001
v  -29.9997 12.3624 0.0001
v  -21.0196 0.0000 -0.0000
v  -30.0010 0.0000 0.0001
v  -19.4205 -8.0390 -0.0001
v  -29.9997 -12.3624 0.0001
v  -14.8631 -14.8631 -0.0001
v  -29.9998 -29.9997 0.0001
v  -8.0390 -19.4205 -0.0001
v  -12.3624 -29.9995 0.0001
v  0.0000 -21.0196 -0.0001
v  0.0000 -30.0016 0.0001
v  8.0390 -19.4205 -0.0001
v  12.3624 -29.9995 0.0001
v  14.8631 -14.8631 -0.0001
v  29.9998 -29.9997 0.0001
v  19.4205 -8.0390 -0.0001
v  29.9997 -12.3624 0.0001
v  20.0000 0.0000 -1.0001
v  18.4776 7.6537 -49.0000
v  20.0000 0.0000 -49.0000
v  18.4776 7.6537 -1.0001
v  14.1421 14.1421 -49.0000
v  14.1421 14.1421 -1.0001
v  7.6537 18.4776 -49.0000
v  7.6537 18.4776 -1.0001
v  -0.0000 20.0000 -49.0000
v  -0.0000 20.0000 -1.0001
v  -7.6537 18.4776 -49.0000
v  -7.6537 18.4776 -1.0001
v  -14.1421 14.1421 -49.0000
v  -14.1421 14.1421 -1.0001
v  -18.4776 7.6537 -49.0000
v  -18.4776 7.6537 -1.0001
v  -20.0000 0.0000 -49.0000
v  -20.0000 0.0000 -1.0001
v  -18.4776 -7.6537 -49.0000
v  -18.4776 -7.6537 -1.0001
v  -14.1421 -14.1421 -49.0000
v  -14.1421 -14.1421 -1.0001
v  -7.6537 -18.4776 -49.0000
v  -7.6537 -18.4776 -1.0001
v  0.0000 -20.0000 -49.0000
v  0.0000 -20.0000 -1.0001
v  7.6537 -18.4776 -49.0000
v  7.6537 -18.4776 -1.0001
v  14.1421 -14.1421 -49.0000
v  14.1421 -14.1421 -1.0001
v  18.4776 -7.6537 -49.0000
v  18.4776 -7.6537 -1.0001
v  0.0000 0.0000 -50.0000
v  18.9804 0.0000 -50.0000
v  17.5356 7.2635 -50.0000
v  13.4212 13.4212 -50.0000
v  7.2635 17.5356 -50.0000
v  -0.0000 18.9804 -50.0000
v  -7.2635 17.5356 -50.0000
v  -13.4212 13.4212 -50.0000
v  -17.5356 7.2635 -50.0000
v  -18.9804 0.0000 -50.0000
v  -17.5356 -7.2635 -50.0000
v  -13.4212 -13.4212 -50.0000
v  -7.2635 -17.5356 -50.0000
v  0.0000 -18.9804 -50.0000
v  7.2635 -17.5356 -50.0000
v  13.4212 -13.4212 -50.0000
v  17.5356 -7.2635 -50.0000
# 81 vertices

vn -0.0000 -0.0000 1.0000
vn -0.3110 -0.1287 0.9417
vn -0.3363 -0.0000 0.9417
vn -0.2378 -0.2378 0.9418
vn -0.1286 -0.3110 0.9417
vn 0.0000 -0.3363 0.9417
vn 0.0000 -0.0000 1.0000
vn 0.1287 -0.3110 0.9417
vn 0.2378 -0.2378 0.9418
vn 0.3110 -0.1286 0.9417
vn 0.3363 0.0000 0.9417
vn 0.0000 0.0000 1.0000
vn 0.3110 0.1287 0.9417
vn 0.2378 0.2378 0.9418
vn 0.1286 0.3110 0.9417
vn -0.0000 0.3363 0.9417
vn -0.0000 0.0000 1.0000
vn -0.1287 0.3110 0.9417
vn -0.2378 0.2378 0.9418
vn -0.3110 0.1286 0.9417
vn -0.9141 -0.0000 0.4055
vn -0.9239 -0.3827 -0.0000
vn -1.0000 -0.0000 0.0000
vn -0.8446 -0.3500 0.4052
vn -0.7071 -0.7071 -0.0000
vn -0.6464 -0.6464 0.4054
vn -0.3827 -0.9239 -0.0000
vn -0.3500 -0.8446 0.4052
vn -0.0000 -1.0000 0.0000
vn 0.0000 -0.9141 0.4055
vn 0.3827 -0.9239 0.0000
vn 0.3500 -0.8446 0.4052
vn 0.7071 -0.7071 -0.0000
vn 0.6464 -0.6464 0.4054
vn 0.9239 -0.3827 -0.0000
vn 0.8446 -0.3500 0.4052
vn 1.0000 -0.0000 0.0000
vn 0.9141 -0.0000 0.4055
vn 0.9239 0.3827 0.0000
vn 0.8446 0.3500 0.4052
vn 0.7071 0.7071 0.0000
vn 0.6464 0.6464 0.4054
vn 0.3827 0.9239 0.0000
vn 0.3500 0.8446 0.4052
vn -0.0000 1.0000 0.0000
vn -0.0000 0.9141 0.4055
vn -0.3827 0.9239 0.0000
vn -0.3500 0.8446 0.4052
vn -0.7071 0.7071 0.0000
vn -0.6464 0.6464 0.4054
vn -0.9239 0.3827 0.0000
vn -0.8446 0.3500 0.4052
vn -0.6935 -0.1379 0.7071
vn -0.5879 -0.3928 0.7071
vn -0.3928 -0.5879 0.7071
vn -0.1379 -0.6935 0.7071
vn 0.1379 -0.6935 0.7071
vn 0.3928 -0.5879 0.7071
vn 0.5879 -0.3928 0.7071
vn 0.6935 -0.1379 0.7071
vn 0.6935 0.1379 0.7071
vn 0.5879 0.3928 0.7071
vn 0.3928 0.5879 0.7071
vn 0.1379 0.6935 0.7071
vn -0.1379 0.6935 0.7071
vn -0.3928 0.5879 0.7071
vn -0.5879 0.3928 0.7071
vn -0.6935 0.1379 0.7071
# 68 vertex normals

vt 0.8000 0.5000 1.0000
vt 0.6942 0.5804 1.0000
vt 0.7102 0.5000 1.0000
vt 0.8000 0.6236 1.0000
vt 0.6486 0.6486 1.0000
vt 0.8000 0.8000 1.0000
vt 0.5804 0.6942 1.0000
vt 0.6236 0.8000 1.0000
vt 0.5000 0.7102 1.0000
vt 0.5000 0.8000 1.0000
vt 0.4196 0.6942 1.0000
vt 0.3764 0.8000 1.0000
vt 0.3514 0.6486 1.0000
vt 0.2000 0.8000 1.0000
vt 0.3058 0.5804 1.0000
vt 0.2000 0.6236 1.0000
vt 0.2898 0.5000 1.0000
vt 0.2000 0.5000 1.0000
vt 0.3058 0.4196 1.0000
vt 0.2000 0.3764 1.0000
vt 0.3514 0.3514 1.0000
vt 0.2000 0.2000 1.0000
vt 0.4196 0.3058 1.0000
vt 0.3764 0.2000 1.0000
vt 0.5000 0.2898 1.0000
vt 0.5000 0.2000 1.0000
vt 0.5804 0.3058 1.0000
vt 0.6236 0.2000 1.0000
vt 0.6486 0.3514 1.0000
vt 0.8000 0.2000 1.0000
vt 0.6942 0.4196 1.0000
vt 0.8000 0.3764 1.0000
vt 0.5000 0.9900 0.7000
vt 0.4235 0.5100 0.6848
vt 0.5000 0.5100 0.7000
vt 0.4235 0.9900 0.6848
vt 0.3586 0.5100 0.6414
vt 0.3586 0.9900 0.6414
vt 0.6414 0.9900 0.6414
vt 0.5765 0.5100 0.6848
vt 0.6414 0.5100 0.6414
vt 0.5765 0.9900 0.6848
vt 0.6414 0.9900 0.3586
vt 0.5765 0.5100 0.3152
vt 0.6414 0.5100 0.3586
vt 0.5765 0.9900 0.3152
vt 0.5000 0.5100 0.3000
vt 0.5000 0.9900 0.3000
vt 0.4235 0.5100 0.3152
vt 0.4235 0.9900 0.3152
vt 0.3586 0.5100 0.3586
vt 0.3586 0.9900 0.3586
vt 0.5000 0.5000 0.5000
vt 0.6898 0.5000 0.5000
vt 0.6754 0.5726 0.5000
vt 0.6342 0.6342 0.5000
vt 0.5726 0.6754 0.5000
vt 0.5000 0.6898 0.5000
vt 0.4274 0.6754 0.5000
vt 0.3658 0.6342 0.5000
vt 0.3246 0.5726 0.5000
vt 0.3102 0.5000 0.5000
vt 0.3246 0.4274 0.5000
vt 0.3658 0.3658 0.5000
vt 0.4274 0.3246 0.5000
vt 0.5000 0.3102 0.5000
vt 0.5726 0.3246 0.5000
vt 0.6342 0.3658 0.5000
vt 0.6754 0.4274 0.5000
vt 0.7000 0.5000 0.9900
vt 0.6848 0.5765 0.9900
vt 0.6414 0.6414 0.9900
vt 0.5765 0.6848 0.9900
vt 0.5000 0.7000 0.9900
vt 0.4235 0.6848 0.9900
vt 0.3586 0.6414 0.9900
vt 0.3152 0.5765 0.9900
vt 0.3000 0.5000 0.9900
vt 0.3152 0.4235 0.9900
vt 0.3586 0.3586 0.9900
vt 0.4235 0.3152 0.9900
vt 0.5000 0.3000 0.9900
vt 0.5765 0.3152 0.9900
vt 0.6414 0.3586 0.9900
vt 0.6848 0.4235 0.9900
vt 0.7000 0.5000 0.5100
vt 0.6848 0.5765 0.5100
vt 0.6414 0.6414 0.5100
vt 0.5765 0.6848 0.5100
vt 0.5000 0.7000 0.5100
vt 0.4235 0.6848 0.5100
vt 0.3586 0.6414 0.5100
vt 0.3152 0.5765 0.5100
vt 0.3000 0.5000 0.5100
vt 0.3152 0.4235 0.5100
vt 0.3586 0.3586 0.5100
vt 0.4235 0.3152 0.5100
vt 0.5000 0.3000 0.5100
vt 0.5765 0.3152 0.5100
vt 0.6414 0.3586 0.5100
vt 0.6848 0.4235 0.5100
# 101 texture coords

o Cylinder001
g Cylinder001
s 8
f 1/1/1 2/2/2 3/3/3 
f 1/1/1 4/4/1 2/2/2 
f 4/4/1 5/5/4 2/2/2 
f 4/4/1 6/6/1 5/5/4 
f 6/6/1 7/7/5 5/5/4 
f 6/6/1 8/8/1 7/7/5 
f 8/8/1 9/9/6 7/7/5 
f 8/8/1 10/10/7 9/9/6 
f 10/10/7 11/11/8 9/9/6 
f 10/10/7 12/12/7 11/11/8 
f 12/12/7 13/13/9 11/11/8 
f 12/12/7 14/14/7 13/13/9 
f 14/14/7 15/15/10 13/13/9 
f 14/14/7 16/16/7 15/15/10 
f 16/16/7 17/17/11 15/15/10 
f 16/16/7 18/18/12 17/17/11 
f 18/18/12 19/19/13 17/17/11 
f 18/18/12 20/20/12 19/19/13 
f 20/20/12 21/21/14 19/19/13 
f 20/20/12 22/22/12 21/21/14 
f 22/22/12 23/23/15 21/21/14 
f 22/22/12 24/24/12 23/23/15 
f 24/24/12 25/25/16 23/23/15 
f 24/24/12 26/26/17 25/25/16 
f 26/26/17 27/27/18 25/25/16 
f 26/26/17 28/28/17 27/27/18 
f 28/28/17 29/29/19 27/27/18 
f 28/28/17 30/30/17 29/29/19 
f 30/30/17 31/31/20 29/29/19 
f 30/30/17 32/32/17 31/31/20 
f 32/32/17 3/3/3 31/31/20 
f 32/32/17 1/1/1 3/3/3 
f 33/33/21 34/34/22 35/35/23 
f 33/33/21 36/36/24 34/34/22 
f 36/36/24 37/37/25 34/34/22 
f 36/36/24 38/38/26 37/37/25 
f 38/39/26 39/40/27 37/41/25 
f 38/39/26 40/42/28 39/40/27 
f 40/42/28 41/35/29 39/40/27 
f 40/42/28 42/33/30 41/35/29 
f 42/33/30 43/34/31 41/35/29 
f 42/33/30 44/36/32 43/34/31 
f 44/36/32 45/37/33 43/34/31 
f 44/36/32 46/38/34 45/37/33 
f 46/43/34 47/44/35 45/45/33 
f 46/43/34 48/46/36 47/44/35 
f 48/46/36 49/47/37 47/44/35 
f 48/46/36 50/48/38 49/47/37 
f 50/48/38 51/49/39 49/47/37 
f 50/48/38 52/50/40 51/49/39 
f 52/50/40 53/51/41 51/49/39 
f 52/50/40 54/52/42 53/51/41 
f 54/43/42 55/44/43 53/45/41 
f 54/43/42 56/46/44 55/44/43 
f 56/46/44 57/47/45 55/44/43 
f 56/46/44 58/48/46 57/47/45 
f 58/48/46 59/49/47 57/47/45 
f 58/48/46 60/50/48 59/49/47 
f 60/50/48 61/51/49 59/49/47 
f 60/50/48 62/52/50 61/51/49 
f 62/39/50 63/40/51 61/41/49 
f 62/39/50 64/42/52 63/40/51 
f 64/42/52 35/35/23 63/40/51 
f 64/42/52 33/33/21 35/35/23 
s 1
f 65/53/12 66/54/12 67/55/12 
f 65/53/12 67/55/12 68/56/12 
f 65/53/12 68/56/12 69/57/12 
f 65/53/12 69/57/12 70/58/12 
f 65/53/12 70/58/12 71/59/12 
f 65/53/12 71/59/12 72/60/12 
f 65/53/12 72/60/12 73/61/12 
f 65/53/12 73/61/12 74/62/12 
f 65/53/12 74/62/12 75/63/12 
f 65/53/12 75/63/12 76/64/12 
f 65/53/12 76/64/12 77/65/12 
f 65/53/12 77/65/12 78/66/12 
f 65/53/12 78/66/12 79/67/12 
f 65/53/12 79/67/12 80/68/12 
f 65/53/12 80/68/12 81/69/12 
f 65/53/12 81/69/12 66/54/12 
s 8
f 33/70/21 3/3/3 36/71/24 
f 2/2/2 36/71/24 3/3/3 
f 36/71/24 2/2/2 38/72/26 
f 5/5/4 38/72/26 2/2/2 
f 38/72/26 5/5/4 40/73/28 
f 7/7/5 40/73/28 5/5/4 
f 40/73/28 7/7/5 42/74/30 
f 9/9/6 42/74/30 7/7/5 
f 42/74/30 9/9/6 44/75/32 
f 11/11/8 44/75/32 9/9/6 
f 44/75/32 11/11/8 46/76/34 
f 13/13/9 46/76/34 11/11/8 
f 46/76/34 13/13/9 48/77/36 
f 15/15/10 48/77/36 13/13/9 
f 48/77/36 15/15/10 50/78/38 
f 17/17/11 50/78/38 15/15/10 
f 50/78/38 17/17/11 52/79/40 
f 19/19/13 52/79/40 17/17/11 
f 52/79/40 19/19/13 54/80/42 
f 21/21/14 54/80/42 19/19/13 
f 54/80/42 21/21/14 56/81/44 
f 23/23/15 56/81/44 21/21/14 
f 56/81/44 23/23/15 58/82/46 
f 25/25/16 58/82/46 23/23/15 
f 58/82/46 25/25/16 60/83/48 
f 27/27/18 60/83/48 25/25/16 
f 60/83/48 27/27/18 62/84/50 
f 29/29/19 62/84/50 27/27/18 
f 62/84/50 29/29/19 64/85/52 
f 31/31/20 64/85/52 29/29/19 
f 3/3/3 33/70/21 31/31/20 
f 64/85/52 31/31/20 33/70/21 
s off
f 66/54/53 35/86/53 67/55/53 
f 34/87/53 67/55/53 35/86/53 
f 67/55/54 34/87/54 68/56/54 
f 37/88/54 68/56/54 34/87/54 
f 68/56/55 37/88/55 69/57/55 
f 39/89/55 69/57/55 37/88/55 
f 69/57/56 39/89/56 70/58/56 
f 41/90/56 70/58/56 39/89/56 
f 70/58/57 41/90/57 71/59/57 
f 43/91/57 71/59/57 41/90/57 
f 71/59/58 43/91/58 72/60/58 
f 45/92/58 72/60/58 43/91/58 
f 72/60/59 45/92/59 73/61/59 
f 47/93/59 73/61/59 45/92/59 
f 73/61/60 47/93/60 74/62/60 
f 49/94/60 74/62/60 47/93/60 
f 74/62/61 49/94/61 75/63/61 
f 51/95/61 75/63/61 49/94/61 
f 75/63/62 51/95/62 76/64/62 
f 53/96/62 76/64/62 51/95/62 
f 76/64/63 53/96/63 77/65/63 
f 55/97/63 77/65/63 53/96/63 
f 77/65/64 55/97/64 78/66/64 
f 57/98/64 78/66/64 55/97/64 
f 78/66/65 57/98/65 79/67/65 
f 59/99/65 79/67/65 57/98/65 
f 79/67/66 59/99/66 80/68/66 
f 61/100/66 80/68/66 59/99/66 
f 80/68/67 61/100/67 81/69/67 
f 63/101/67 81/69/67 61/100/67 
f 35/86/68 66/54/68 63/101/68 
f 81/69/68 63/101/68 66/54/68 
# 144 faces

