# 3ds Max Wavefront OBJ Exporter v0.99 - (c)2007 guruware
# File Created: 23.02.2022 16:12:33

#
# object Picture_border
#

v  -9.8102 -1.0000 -9.8102
v  -8.8292 -1.0000 -9.8102
v  -9.1742 -1.0000 -9.1741
v  -9.8102 -1.0000 -8.8292
v  8.8292 -1.0000 -9.8102
v  9.1742 -1.0000 -9.1741
v  9.8102 -1.0000 -9.8102
v  9.8102 -1.0000 -8.8292
v  -9.1742 -1.0000 9.1741
v  -9.8102 -1.0000 8.8292
v  9.8102 -1.0000 8.8292
v  9.1742 -1.0000 9.1741
v  -8.8292 -1.0000 9.8102
v  -9.8102 -1.0000 9.8102
v  8.8292 -1.0000 9.8102
v  9.8102 -1.0000 9.8102
v  -10.0000 0.0000 -10.0000
v  -9.0000 0.0000 -10.0000
v  9.0000 0.0000 -10.0000
v  10.0000 0.0000 -10.0000
v  10.0000 -0.0000 -9.0000
v  10.0000 -0.0000 9.0000
v  10.0000 -0.0000 10.0000
v  9.0000 -0.0000 10.0000
v  -9.0000 -0.0000 10.0000
v  -10.0000 -0.0000 10.0000
v  -10.0000 -0.0000 9.0000
v  -10.0000 -0.0000 -9.0000
v  9.0000 -0.5000 -9.0000
v  -9.0000 -0.5000 -9.0000
v  9.0000 -0.5000 9.0000
v  -9.0000 -0.5000 9.0000
# 32 vertices

vn -0.0000 -1.0000 -0.0000
vn 0.0000 -1.0000 -0.0000
vn 0.0000 -0.1865 -0.9825
vn 0.9825 -0.1865 -0.0000
vn 0.0000 -0.1865 0.9825
vn -0.9825 -0.1865 -0.0000
vn 0.0000 -0.3289 0.9444
vn -0.9444 -0.3289 -0.0000
vn 0.0000 -0.3289 -0.9444
vn 0.9444 -0.3289 -0.0000
# 10 vertex normals

vt 0.0095 0.0095 1.0000
vt 0.0585 0.0095 1.0000
vt 0.0413 0.0413 1.0000
vt 0.0095 0.0585 1.0000
vt 0.9415 0.0095 1.0000
vt 0.9587 0.0413 1.0000
vt 0.9905 0.0095 1.0000
vt 0.9905 0.0585 1.0000
vt 0.0413 0.9587 1.0000
vt 0.0095 0.9415 1.0000
vt 0.9905 0.9415 1.0000
vt 0.9587 0.9587 1.0000
vt 0.0585 0.9905 1.0000
vt 0.0095 0.9905 1.0000
vt 0.9415 0.9905 1.0000
vt 0.9905 0.9905 1.0000
vt 0.0000 0.0000 0.0000
vt 0.0500 0.0000 0.0000
vt 0.9500 0.0000 0.0000
vt 1.0000 0.0000 0.0000
vt 1.0000 0.0500 0.0000
vt 1.0000 0.9500 0.0000
vt 1.0000 1.0000 0.0000
vt 0.9500 1.0000 0.0000
vt 0.0500 1.0000 0.0000
vt 0.0000 1.0000 0.0000
vt 0.0000 0.9500 0.0000
vt 0.0000 0.0500 0.0000
vt 0.9500 0.0500 0.5000
vt 0.0500 0.0500 0.5000
vt 0.9500 0.9500 0.5000
vt 0.0500 0.9500 0.5000
# 32 texture coords

o Picture_border
g Picture_border
s 4
f 1/1/1 2/2/2 3/3/1 
f 3/3/1 4/4/1 1/1/1 
f 2/2/2 5/5/2 6/6/2 
f 6/6/2 3/3/1 2/2/2 
f 5/5/2 7/7/2 8/8/2 
f 8/8/2 6/6/2 5/5/2 
f 4/4/1 3/3/1 9/9/2 
f 9/9/2 10/10/1 4/4/1 
f 6/6/2 8/8/2 11/11/1 
f 11/11/1 12/12/1 6/6/2 
f 10/10/1 9/9/2 13/13/2 
f 13/13/2 14/14/2 10/10/1 
f 9/9/2 12/12/1 15/15/2 
f 15/15/2 13/13/2 9/9/2 
f 12/12/1 11/11/1 16/16/1 
f 16/16/1 15/15/2 12/12/1 
s 8
f 17/17/3 18/18/3 2/2/3 
f 2/2/3 1/1/3 17/17/3 
f 18/18/3 19/19/3 5/5/3 
f 5/5/3 2/2/3 18/18/3 
f 19/19/3 20/20/3 7/7/3 
f 7/7/3 5/5/3 19/19/3 
s 16
f 20/20/4 21/21/4 8/8/4 
f 8/8/4 7/7/4 20/20/4 
f 21/21/4 22/22/4 11/11/4 
f 11/11/4 8/8/4 21/21/4 
f 22/22/4 23/23/4 16/16/4 
f 16/16/4 11/11/4 22/22/4 
s 32
f 23/23/5 24/24/5 15/15/5 
f 15/15/5 16/16/5 23/23/5 
f 24/24/5 25/25/5 13/13/5 
f 13/13/5 15/15/5 24/24/5 
f 25/25/5 26/26/5 14/14/5 
f 14/14/5 13/13/5 25/25/5 
s 64
f 26/26/6 27/27/6 10/10/6 
f 10/10/6 14/14/6 26/26/6 
f 27/27/6 28/28/6 4/4/6 
f 4/4/6 10/10/6 27/27/6 
f 28/28/6 17/17/6 1/1/6 
f 1/1/6 4/4/6 28/28/6 
s off
f 3/3/7 6/6/7 29/29/7 
f 29/29/7 30/30/7 3/3/7 
f 6/6/8 12/12/8 31/31/8 
f 31/31/8 29/29/8 6/6/8 
f 12/12/9 9/9/9 32/32/9 
f 32/32/9 31/31/9 12/12/9 
f 9/9/10 3/3/10 30/30/10 
f 30/30/10 32/32/10 9/9/10 
# 48 faces

