# 3ds Max Wavefront OBJ Exporter v0.99 - (c)2007 guruware
# File Created: 23.02.2022 14:33:19

mtllib saucer_00.mtl

#
# object Cylinder001
#

v  0.0000 0.0000 0.0000
v  1.0781 0.3503 0.0000
v  1.1336 0.0000 0.0000
v  0.9171 0.6663 0.0000
v  0.6663 0.9171 0.0000
v  0.3503 1.0781 0.0000
v  0.0000 1.1336 0.0000
v  -0.3503 1.0781 0.0000
v  -0.6663 0.9171 0.0000
v  -0.9171 0.6663 0.0000
v  -1.0781 0.3503 0.0000
v  -1.1336 -0.0000 0.0000
v  -1.0781 -0.3503 0.0000
v  -0.9171 -0.6663 0.0000
v  -0.6663 -0.9171 0.0000
v  -0.3503 -1.0781 0.0000
v  0.0000 -1.1336 0.0000
v  0.3503 -1.0781 0.0000
v  0.6663 -0.9171 0.0000
v  0.9171 -0.6663 0.0000
v  1.0781 -0.3503 0.0000
v  1.9021 0.6180 0.5469
v  2.0000 0.0000 0.5469
v  1.6180 1.1756 0.5469
v  1.1756 1.6180 0.5469
v  0.6180 1.9021 0.5469
v  -0.0000 2.0000 0.5469
v  -0.6180 1.9021 0.5469
v  -1.1756 1.6180 0.5469
v  -1.6180 1.1756 0.5469
v  -1.9021 0.6180 0.5469
v  -2.0000 -0.0000 0.5469
v  -1.9021 -0.6180 0.5469
v  -1.6180 -1.1756 0.5469
v  -1.1756 -1.6180 0.5469
v  -0.6180 -1.9021 0.5469
v  0.0000 -2.0000 0.5469
v  0.6180 -1.9021 0.5469
v  1.1756 -1.6180 0.5469
v  1.6180 -1.1756 0.5469
v  1.9021 -0.6180 0.5469
v  0.0000 0.0000 0.0844
# 42 vertices

vn 0.0000 0.0000 -1.0000
vn 0.5338 0.0000 -0.8456
vn 0.5077 0.1649 -0.8456
vn 0.4318 0.3138 -0.8456
vn 0.3138 0.4318 -0.8456
vn 0.1649 0.5077 -0.8456
vn -0.0000 0.5338 -0.8456
vn -0.1649 0.5077 -0.8456
vn -0.3138 0.4318 -0.8456
vn -0.4318 0.3138 -0.8456
vn -0.5077 0.1649 -0.8456
vn -0.5338 -0.0000 -0.8456
vn -0.5077 -0.1649 -0.8456
vn -0.4318 -0.3138 -0.8456
vn -0.3138 -0.4318 -0.8456
vn -0.1649 -0.5077 -0.8456
vn 0.0000 -0.5338 -0.8456
vn 0.1649 -0.5077 -0.8456
vn 0.3138 -0.4318 -0.8456
vn 0.4318 -0.3138 -0.8456
vn 0.5077 -0.1649 -0.8456
vn -0.0000 -0.0000 1.0000
vn -0.2253 -0.0000 0.9743
vn -0.2143 -0.0696 0.9743
vn -0.1823 -0.1324 0.9743
vn -0.1324 -0.1823 0.9743
vn -0.0696 -0.2143 0.9743
vn 0.0000 -0.2253 0.9743
vn 0.0696 -0.2143 0.9743
vn 0.1324 -0.1823 0.9743
vn 0.1823 -0.1324 0.9743
vn 0.2143 -0.0696 0.9743
vn 0.2253 0.0000 0.9743
vn 0.2143 0.0696 0.9743
vn 0.1823 0.1324 0.9743
vn 0.1324 0.1823 0.9743
vn 0.0696 0.2143 0.9743
vn -0.0000 0.2253 0.9743
vn -0.0696 0.2143 0.9743
vn -0.1324 0.1823 0.9743
vn -0.1823 0.1324 0.9743
vn -0.2143 0.0696 0.9743
# 42 vertex normals

vt 0.5000 0.5000 0.4040
vt 0.1216 0.6230 0.4040
vt 0.1021 0.5000 0.4040
vt 0.1781 0.7339 0.4040
vt 0.2661 0.8219 0.4040
vt 0.3770 0.8784 0.4040
vt 0.5000 0.8979 0.4040
vt 0.6230 0.8784 0.4040
vt 0.7339 0.8219 0.4040
vt 0.8219 0.7339 0.4040
vt 0.8784 0.6230 0.4040
vt 0.8979 0.5000 0.4040
vt 0.8784 0.3770 0.4040
vt 0.8219 0.2661 0.4040
vt 0.7339 0.1781 0.4040
vt 0.6230 0.1216 0.4040
vt 0.5000 0.1021 0.4040
vt 0.3770 0.1216 0.4040
vt 0.2661 0.1781 0.4040
vt 0.1781 0.2661 0.4040
vt 0.1216 0.3770 0.4040
vt -0.1676 0.7169 0.5960
vt -0.2020 0.5000 0.5960
vt -0.0679 0.9126 0.5960
vt 0.0874 1.0679 0.5960
vt 0.2831 1.1676 0.5960
vt 0.5000 1.2020 0.5960
vt 0.7169 1.1676 0.5960
vt 0.9126 1.0679 0.5960
vt 1.0679 0.9126 0.5960
vt 1.1676 0.7169 0.5960
vt 1.2020 0.5000 0.5960
vt 1.1676 0.2831 0.5960
vt 1.0679 0.0874 0.5960
vt 0.9126 -0.0679 0.5960
vt 0.7169 -0.1676 0.5960
vt 0.5000 -0.2020 0.5960
vt 0.2831 -0.1676 0.5960
vt 0.0874 -0.0679 0.5960
vt -0.0679 0.0874 0.5960
vt -0.1676 0.2831 0.5960
vt 0.5000 0.5000 0.4336
# 42 texture coords

o Cylinder001
g Cylinder001
usemtl Material__48
s 1
f 1/1/1 2/2/1 3/3/1 
f 1/1/1 4/4/1 2/2/1 
f 1/1/1 5/5/1 4/4/1 
f 1/1/1 6/6/1 5/5/1 
f 1/1/1 7/7/1 6/6/1 
f 1/1/1 8/8/1 7/7/1 
f 1/1/1 9/9/1 8/8/1 
f 1/1/1 10/10/1 9/9/1 
f 1/1/1 11/11/1 10/10/1 
f 1/1/1 12/12/1 11/11/1 
f 1/1/1 13/13/1 12/12/1 
f 1/1/1 14/14/1 13/13/1 
f 1/1/1 15/15/1 14/14/1 
f 1/1/1 16/16/1 15/15/1 
f 1/1/1 17/17/1 16/16/1 
f 1/1/1 18/18/1 17/17/1 
f 1/1/1 19/19/1 18/18/1 
f 1/1/1 20/20/1 19/19/1 
f 1/1/1 21/21/1 20/20/1 
f 1/1/1 3/3/1 21/21/1 
s 8
f 3/3/2 22/22/3 23/23/2 
f 3/3/2 2/2/3 22/22/3 
f 2/2/3 24/24/4 22/22/3 
f 2/2/3 4/4/4 24/24/4 
f 4/4/4 25/25/5 24/24/4 
f 4/4/4 5/5/5 25/25/5 
f 5/5/5 26/26/6 25/25/5 
f 5/5/5 6/6/6 26/26/6 
f 6/6/6 27/27/7 26/26/6 
f 6/6/6 7/7/7 27/27/7 
f 7/7/7 28/28/8 27/27/7 
f 7/7/7 8/8/8 28/28/8 
f 8/8/8 29/29/9 28/28/8 
f 8/8/8 9/9/9 29/29/9 
f 9/9/9 30/30/10 29/29/9 
f 9/9/9 10/10/10 30/30/10 
f 10/10/10 31/31/11 30/30/10 
f 10/10/10 11/11/11 31/31/11 
f 11/11/11 32/32/12 31/31/11 
f 11/11/11 12/12/12 32/32/12 
f 12/12/12 33/33/13 32/32/12 
f 12/12/12 13/13/13 33/33/13 
f 13/13/13 34/34/14 33/33/13 
f 13/13/13 14/14/14 34/34/14 
f 14/14/14 35/35/15 34/34/14 
f 14/14/14 15/15/15 35/35/15 
f 15/15/15 36/36/16 35/35/15 
f 15/15/15 16/16/16 36/36/16 
f 16/16/16 37/37/17 36/36/16 
f 16/16/16 17/17/17 37/37/17 
f 17/17/17 38/38/18 37/37/17 
f 17/17/17 18/18/18 38/38/18 
f 18/18/18 39/39/19 38/38/18 
f 18/18/18 19/19/19 39/39/19 
f 19/19/19 40/40/20 39/39/19 
f 19/19/19 20/20/20 40/40/20 
f 20/20/20 41/41/21 40/40/20 
f 20/20/20 21/21/21 41/41/21 
f 21/21/21 23/23/2 41/41/21 
f 21/21/21 3/3/2 23/23/2 
s 1
f 42/42/22 23/32/23 22/31/24 
f 42/42/22 22/31/24 24/30/25 
f 42/42/22 24/30/25 25/29/26 
f 42/42/22 25/29/26 26/28/27 
f 42/42/22 26/28/27 27/27/28 
f 42/42/22 27/27/28 28/26/29 
f 42/42/22 28/26/29 29/25/30 
f 42/42/22 29/25/30 30/24/31 
f 42/42/22 30/24/31 31/22/32 
f 42/42/22 31/22/32 32/23/33 
f 42/42/22 32/23/33 33/41/34 
f 42/42/22 33/41/34 34/40/35 
f 42/42/22 34/40/35 35/39/36 
f 42/42/22 35/39/36 36/38/37 
f 42/42/22 36/38/37 37/37/38 
f 42/42/22 37/37/38 38/36/39 
f 42/42/22 38/36/39 39/35/40 
f 42/42/22 39/35/40 40/34/41 
f 42/42/22 40/34/41 41/33/42 
f 42/42/22 41/33/42 23/32/23 
# 80 faces

