# 3ds Max Wavefront OBJ Exporter v0.99 - (c)2007 guruware
# File Created: 22.03.2024 03:48:41

#
# object Plane001
#

v  -0.25 0.25 0.00
v  -0.25 -0.25 0.00
v  0.25 0.25 0.00
v  0.25 -0.25 0.00
# 4 vertices

vn 0.00 0.00 1.00
vn 0.00 0.00 1.00
vn 0.00 0.00 1.00
vn 0.00 0.00 1.00
vn 0.00 0.00 1.00
vn 0.00 0.00 1.00
# 6 vertex normals

vt 0.00 0.00 0.50
vt 1.00 0.00 0.50
vt 0.00 1.00 0.50
vt 1.00 1.00 0.50
# 4 texture coords

o Plane001
g Plane001
f 1/3/1 2/1/2 3/4/3 
f 4/2/4 3/4/5 2/1/6 
# 2 faces

