# 3ds Max Wavefront OBJ Exporter v0.99 - (c)2007 guruware
# File Created: 14.08.2022 01:08:42

#
# object Box008
#

v  260.719 264.171 0.000
v  260.719 324.171 0.000
v  320.719 324.171 0.000
v  320.719 264.171 0.000
v  260.719 264.171 170.000
v  320.719 264.171 170.000
v  320.719 324.171 170.000
v  260.719 324.171 170.000
# 8 vertices

vn 0.000 0.000 -1.000
vn 0.000 0.000 1.000
vn 0.000 -1.000 0.000
vn 1.000 0.000 0.000
vn 0.000 1.000 0.000
vn -1.000 0.000 0.000
# 6 vertex normals

vt 1.000 0.000 0.000
vt 1.000 1.000 0.000
vt 0.000 1.000 0.000
vt 0.000 0.000 0.000
vt 0.000 0.000 1.000
vt 1.000 0.000 1.000
vt 1.000 1.000 1.000
vt 0.000 1.000 1.000
# 8 texture coords

o Box008
g Box008
f 1/1/1 2/2/1 3/3/1 
f 3/3/1 4/4/1 1/1/1 
f 5/5/2 6/6/2 7/7/2 
f 7/7/2 8/8/2 5/5/2 
f 1/4/3 4/1/3 6/2/3 
f 6/2/3 5/3/3 1/4/3 
f 4/5/4 3/6/4 7/7/4 
f 7/7/4 6/8/4 4/5/4 
f 3/5/5 2/6/5 8/7/5 
f 8/7/5 7/8/5 3/5/5 
f 2/4/6 1/1/6 5/2/6 
f 5/2/6 8/3/6 2/4/6 
# 12 faces

