# 3ds Max Wavefront OBJ Exporter v0.99 - (c)2007 guruware
# File Created: 14.08.2022 02:08:56

#
# object Box020
#

v  274.485 -246.418 87.074
v  274.485 -243.871 87.074
v  277.165 -243.871 87.074
v  277.165 -246.418 87.074
v  311.805 -243.871 87.074
v  311.805 -246.418 87.074
v  316.749 -243.871 87.074
v  316.749 -246.418 87.074
v  274.485 -198.966 87.074
v  277.165 -198.966 87.074
v  311.805 -198.966 87.074
v  316.749 -198.966 87.074
v  274.485 -196.418 87.074
v  277.165 -196.418 87.074
v  311.805 -196.418 87.074
v  316.749 -196.418 87.074
v  274.485 -246.418 90.420
v  277.165 -246.418 90.420
v  277.165 -243.871 90.420
v  274.485 -243.871 90.420
v  311.805 -246.418 90.420
v  311.805 -243.871 90.420
v  316.749 -246.418 90.420
v  316.749 -243.871 90.420
v  277.165 -198.966 90.420
v  274.485 -198.966 90.420
v  277.165 -243.871 87.777
v  311.805 -243.871 87.777
v  311.805 -198.966 87.777
v  277.165 -198.966 87.777
v  316.749 -198.966 90.420
v  311.805 -198.966 90.420
v  277.165 -196.418 90.420
v  274.485 -196.418 90.420
v  311.805 -196.418 90.420
v  316.749 -196.418 90.420
v  314.222 -221.846 86.874
v  315.469 -220.282 86.874
v  316.222 -221.846 86.874
v  313.777 -219.896 86.874
v  312.420 -220.978 86.874
v  312.420 -222.714 86.874
v  313.777 -223.796 86.874
v  315.469 -223.410 86.874
v  315.469 -220.282 97.250
v  316.222 -221.846 97.250
v  313.777 -219.896 97.250
v  312.420 -220.978 97.250
v  312.420 -222.714 97.250
v  313.777 -223.796 97.250
v  315.469 -223.410 97.250
v  313.418 -220.282 104.853
v  314.064 -221.846 105.239
v  311.965 -219.896 103.986
v  310.800 -220.978 103.290
v  310.800 -222.714 103.290
v  311.965 -223.796 103.986
v  313.418 -223.410 104.853
v  308.398 -220.282 110.116
v  308.562 -221.846 110.851
v  308.029 -219.896 108.465
v  307.733 -220.978 107.141
v  307.733 -222.714 107.141
v  308.029 -223.796 108.465
v  308.398 -223.410 110.116
v  301.726 -220.282 110.514
v  301.480 -221.846 111.226
v  302.278 -219.896 108.915
v  302.721 -220.978 107.632
v  302.721 -222.714 107.632
v  302.278 -223.796 108.915
v  301.726 -223.410 110.514
v  297.416 -220.282 105.258
v  296.764 -221.846 105.634
v  298.882 -219.896 104.413
v  300.058 -220.978 103.735
v  300.058 -222.714 103.735
v  298.882 -223.796 104.413
v  297.416 -223.410 105.258
v  298.496 -221.846 104.635
# 80 vertices

vn 0.000 0.000 -1.000
vn 0.000 0.000 1.000
vn 0.000 -1.000 0.000
vn 1.000 0.000 0.000
vn 0.000 1.000 0.000
vn -1.000 0.000 0.000
vn 1.000 -0.000 0.000
vn 0.641 0.763 0.086
vn 0.992 -0.000 0.127
vn 0.623 0.782 0.000
vn -0.187 0.982 -0.020
vn -0.223 0.975 0.000
vn -0.887 0.446 -0.120
vn -0.901 0.434 0.000
vn -0.887 -0.446 -0.120
vn -0.901 -0.434 0.000
vn -0.187 -0.982 -0.020
vn -0.223 -0.975 0.000
vn 0.641 -0.763 0.087
vn 0.623 -0.782 0.000
vn 0.579 0.749 0.323
vn 0.869 -0.002 0.495
vn -0.147 0.986 -0.076
vn -0.795 0.457 -0.398
vn -0.794 -0.453 -0.406
vn -0.141 -0.987 -0.075
vn 0.577 -0.748 0.328
vn 0.294 0.730 0.617
vn 0.399 -0.003 0.917
vn -0.038 0.993 -0.114
vn -0.435 0.475 -0.765
vn -0.446 -0.465 -0.765
vn -0.033 -0.994 -0.107
vn 0.297 -0.730 0.616
vn -0.284 0.724 0.629
vn -0.391 0.001 0.920
vn 0.024 0.997 -0.078
vn 0.386 0.500 -0.776
vn 0.369 -0.505 -0.780
vn 0.027 -0.996 -0.080
vn -0.277 -0.724 0.631
vn -0.505 0.753 0.422
vn -0.768 0.004 0.640
vn 0.153 0.982 -0.109
vn 0.737 0.432 -0.520
vn 0.741 -0.441 -0.506
vn 0.166 -0.980 -0.110
vn -0.510 -0.754 0.413
vn -0.499 -0.000 -0.866
vn -0.499 0.000 -0.866
# 50 vertex normals

vt 1.000 0.000 0.000
vt 1.000 0.051 0.000
vt 0.937 0.051 0.000
vt 0.937 0.000 0.000
vt 0.117 0.051 0.000
vt 0.117 0.000 0.000
vt 0.000 0.051 0.000
vt 0.000 0.000 0.000
vt 1.000 0.949 0.000
vt 0.937 0.949 0.000
vt 0.117 0.949 0.000
vt 0.000 0.949 0.000
vt 1.000 1.000 0.000
vt 0.937 1.000 0.000
vt 0.117 1.000 0.000
vt 0.000 1.000 0.000
vt 0.000 0.000 1.000
vt 0.063 0.000 1.000
vt 0.063 0.051 1.000
vt 0.000 0.051 1.000
vt 0.883 0.000 1.000
vt 0.883 0.051 1.000
vt 1.000 0.000 1.000
vt 1.000 0.051 1.000
vt 0.063 0.949 1.000
vt 0.000 0.949 1.000
vt 0.063 0.051 0.210
vt 0.883 0.051 0.210
vt 0.883 0.949 0.210
vt 0.063 0.949 0.210
vt 1.000 0.949 1.000
vt 0.883 0.949 1.000
vt 0.063 1.000 1.000
vt 0.000 1.000 1.000
vt 0.883 1.000 1.000
vt 1.000 1.000 1.000
vt 0.063 0.000 0.000
vt 0.063 1.000 0.000
vt 0.883 0.000 0.000
vt 0.883 1.000 0.000
vt 0.051 0.000 1.000
vt 0.051 1.000 1.000
vt 0.949 0.000 1.000
vt 0.949 1.000 1.000
vt 0.117 0.000 1.000
vt 0.117 1.000 1.000
vt 0.937 0.000 1.000
vt 0.937 1.000 1.000
vt 0.051 0.000 0.000
vt 0.051 1.000 0.000
vt 0.949 0.000 0.000
vt 0.949 1.000 0.000
vt 0.937 1.000 0.051
vt 0.117 1.000 0.051
vt 0.117 0.210 0.051
vt 0.937 0.210 0.051
vt 0.949 1.000 0.063
vt 0.051 1.000 0.063
vt 0.051 0.210 0.063
vt 0.949 0.210 0.063
vt 0.949 1.000 0.883
vt 0.051 1.000 0.883
vt 0.051 0.210 0.883
vt 0.949 0.210 0.883
vt 0.883 1.000 0.949
vt 0.063 1.000 0.949
vt 0.063 0.210 0.949
vt 0.883 0.210 0.949
vt 0.060 0.491 -0.060
vt 0.030 0.523 -0.060
vt 0.012 0.491 -0.060
vt 0.070 0.530 -0.060
vt 0.102 0.509 -0.060
vt 0.102 0.474 -0.060
vt 0.070 0.452 -0.060
vt 0.030 0.460 -0.060
vt 0.491 -0.060 0.988
vt 0.523 3.041 0.970
vt 0.491 3.041 0.988
vt 0.523 -0.060 0.970
vt 0.030 -0.060 0.523
vt 0.070 3.041 0.530
vt 0.030 3.041 0.523
vt 0.070 -0.060 0.530
vt 0.102 3.041 0.509
vt 0.102 -0.060 0.509
vt 0.491 -0.060 0.898
vt 0.526 3.041 0.898
vt 0.491 3.041 0.898
vt 0.526 -0.060 0.898
vt 0.898 -0.060 0.474
vt 0.930 3.041 0.452
vt 0.898 3.041 0.474
vt 0.930 -0.060 0.452
vt 0.970 3.041 0.460
vt 0.970 -0.060 0.460
vt 0.460 -0.060 0.970
vt 0.460 3.041 0.970
vt 0.988 0.491 3.041
vt 0.921 0.523 5.313
vt 0.936 0.491 5.429
vt 0.970 0.523 3.041
vt 0.113 5.054 0.530
vt 0.079 5.313 0.523
vt 0.070 0.530 3.041
vt 0.141 0.509 4.846
vt 0.113 0.530 5.054
vt 0.102 0.509 3.041
vt 0.141 0.474 4.846
vt 0.102 0.474 3.041
vt 0.113 0.452 5.054
vt 0.070 0.452 3.041
vt 0.921 5.313 0.460
vt 0.887 5.054 0.452
vt 0.970 0.460 3.041
vt 0.921 0.460 5.313
vt 0.802 0.523 6.886
vt 0.806 0.491 7.106
vt 0.794 0.530 6.393
vt 0.887 0.530 5.054
vt 0.213 0.509 5.997
vt 0.206 0.530 6.393
vt 0.213 0.474 5.997
vt 0.206 0.452 6.393
vt 0.887 0.452 5.054
vt 0.802 0.460 6.886
vt 0.794 0.452 6.393
vt 0.645 0.523 7.005
vt 0.639 0.491 7.218
vt 0.658 0.530 6.527
vt 0.332 0.509 6.144
vt 0.342 0.530 6.527
vt 0.332 0.474 6.144
vt 0.342 0.452 6.527
vt 0.645 0.460 7.005
vt 0.658 0.452 6.527
vt 0.543 0.523 5.434
vt 0.527 0.491 5.547
vt 0.577 0.530 5.182
vt 0.395 0.509 4.979
vt 0.423 0.530 5.182
vt 0.395 0.474 4.979
vt 0.423 0.452 5.182
vt 0.543 0.460 5.434
vt 0.577 0.452 5.182
vt 0.432 0.491 5.248
vt 0.473 0.491 5.547
vt 0.457 0.523 5.434
vt 0.457 0.460 5.434
# 149 texture coords

o Box020
g Box020
f 1/1/1 2/2/1 3/3/1 
f 3/3/1 4/4/1 1/1/1 
f 4/4/1 3/3/1 5/5/1 
f 5/5/1 6/6/1 4/4/1 
f 6/6/1 5/5/1 7/7/1 
f 7/7/1 8/8/1 6/6/1 
f 2/2/1 9/9/1 10/10/1 
f 10/10/1 3/3/1 2/2/1 
f 3/3/1 10/10/1 11/11/1 
f 11/11/1 5/5/1 3/3/1 
f 5/5/1 11/11/1 12/12/1 
f 12/12/1 7/7/1 5/5/1 
f 9/9/1 13/13/1 14/14/1 
f 14/14/1 10/10/1 9/9/1 
f 10/10/1 14/14/1 15/15/1 
f 15/15/1 11/11/1 10/10/1 
f 11/11/1 15/15/1 16/16/1 
f 16/16/1 12/12/1 11/11/1 
f 17/17/2 18/18/2 19/19/2 
f 19/19/2 20/20/2 17/17/2 
f 18/18/2 21/21/2 22/22/2 
f 22/22/2 19/19/2 18/18/2 
f 21/21/2 23/23/2 24/24/2 
f 24/24/2 22/22/2 21/21/2 
f 20/20/2 19/19/2 25/25/2 
f 25/25/2 26/26/2 20/20/2 
f 27/27/2 28/28/2 29/29/2 
f 29/29/2 30/30/2 27/27/2 
f 22/22/2 24/24/2 31/31/2 
f 31/31/2 32/32/2 22/22/2 
f 26/26/2 25/25/2 33/33/2 
f 33/33/2 34/34/2 26/26/2 
f 25/25/2 32/32/2 35/35/2 
f 35/35/2 33/33/2 25/25/2 
f 32/32/2 31/31/2 36/36/2 
f 36/36/2 35/35/2 32/32/2 
f 1/8/3 4/37/3 18/38/3 
f 18/38/3 17/16/3 1/8/3 
f 4/37/3 6/39/3 21/40/3 
f 21/40/3 18/38/3 4/37/3 
f 6/39/3 8/1/3 23/13/3 
f 23/13/3 21/40/3 6/39/3 
f 8/17/4 7/41/4 24/42/4 
f 24/42/4 23/34/4 8/17/4 
f 7/41/4 12/43/4 31/44/4 
f 31/44/4 24/42/4 7/41/4 
f 12/43/4 16/23/4 36/36/4 
f 36/36/4 31/44/4 12/43/4 
f 16/17/5 15/45/5 35/46/5 
f 35/46/5 36/34/5 16/17/5 
f 15/45/5 14/47/5 33/48/5 
f 33/48/5 35/46/5 15/45/5 
f 14/47/5 13/23/5 34/36/5 
f 34/36/5 33/48/5 14/47/5 
f 13/8/6 9/49/6 26/50/6 
f 26/50/6 34/16/6 13/8/6 
f 9/49/6 2/51/6 20/52/6 
f 20/52/6 26/50/6 9/49/6 
f 2/51/6 1/1/6 17/13/6 
f 17/13/6 20/52/6 2/51/6 
f 19/53/5 22/54/5 28/55/5 
f 28/55/5 27/56/5 19/53/5 
f 25/57/4 19/58/4 27/59/4 
f 27/59/4 30/60/4 25/57/4 
f 22/61/6 32/62/6 29/63/6 
f 29/63/6 28/64/6 22/61/6 
f 32/65/3 25/66/3 30/67/3 
f 30/67/3 29/68/3 32/65/3 
f 37/69/1 38/70/1 39/71/1 
f 37/69/1 40/72/1 38/70/1 
f 37/69/1 41/73/1 40/72/1 
f 37/69/1 42/74/1 41/73/1 
f 37/69/1 43/75/1 42/74/1 
f 37/69/1 44/76/1 43/75/1 
f 37/69/1 39/71/1 44/76/1 
f 39/77/7 45/78/8 46/79/9 
f 39/77/7 38/80/10 45/78/8 
f 38/81/10 47/82/11 45/83/8 
f 38/81/10 40/84/12 47/82/11 
f 40/84/12 48/85/13 47/82/11 
f 40/84/12 41/86/14 48/85/13 
f 41/87/14 49/88/15 48/89/13 
f 41/87/14 42/90/16 49/88/15 
f 42/91/16 50/92/17 49/93/15 
f 42/91/16 43/94/18 50/92/17 
f 43/94/18 51/95/19 50/92/17 
f 43/94/18 44/96/20 51/95/19 
f 44/97/20 46/79/9 51/98/19 
f 44/97/20 39/77/7 46/79/9 
f 46/99/9 52/100/21 53/101/22 
f 46/99/9 45/102/8 52/100/21 
f 45/83/8 54/103/23 52/104/21 
f 45/83/8 47/82/11 54/103/23 
f 47/105/11 55/106/24 54/107/23 
f 47/105/11 48/108/13 55/106/24 
f 48/108/13 56/109/25 55/106/24 
f 48/108/13 49/110/15 56/109/25 
f 49/110/15 57/111/26 56/109/25 
f 49/110/15 50/112/17 57/111/26 
f 50/92/17 58/113/27 57/114/26 
f 50/92/17 51/95/19 58/113/27 
f 51/115/19 53/101/22 58/116/27 
f 51/115/19 46/99/9 53/101/22 
f 53/101/22 59/117/28 60/118/29 
f 53/101/22 52/100/21 59/117/28 
f 52/100/21 61/119/30 59/117/28 
f 52/100/21 54/120/23 61/119/30 
f 54/107/23 62/121/31 61/122/30 
f 54/107/23 55/106/24 62/121/31 
f 55/106/24 63/123/32 62/121/31 
f 55/106/24 56/109/25 63/123/32 
f 56/109/25 64/124/33 63/123/32 
f 56/109/25 57/111/26 64/124/33 
f 57/125/26 65/126/34 64/127/33 
f 57/125/26 58/116/27 65/126/34 
f 58/116/27 60/118/29 65/126/34 
f 58/116/27 53/101/22 60/118/29 
f 60/118/29 66/128/35 67/129/36 
f 60/118/29 59/117/28 66/128/35 
f 59/117/28 68/130/37 66/128/35 
f 59/117/28 61/119/30 68/130/37 
f 61/122/30 69/131/38 68/132/37 
f 61/122/30 62/121/31 69/131/38 
f 62/121/31 70/133/39 69/131/38 
f 62/121/31 63/123/32 70/133/39 
f 63/123/32 71/134/40 70/133/39 
f 63/123/32 64/124/33 71/134/40 
f 64/127/33 72/135/41 71/136/40 
f 64/127/33 65/126/34 72/135/41 
f 65/126/34 67/129/36 72/135/41 
f 65/126/34 60/118/29 67/129/36 
f 67/129/36 73/137/42 74/138/43 
f 67/129/36 66/128/35 73/137/42 
f 66/128/35 75/139/44 73/137/42 
f 66/128/35 68/130/37 75/139/44 
f 68/132/37 76/140/45 75/141/44 
f 68/132/37 69/131/38 76/140/45 
f 69/131/38 77/142/46 76/140/45 
f 69/131/38 70/133/39 77/142/46 
f 70/133/39 78/143/47 77/142/46 
f 70/133/39 71/134/40 78/143/47 
f 71/136/40 79/144/48 78/145/47 
f 71/136/40 72/135/41 79/144/48 
f 72/135/41 74/138/43 79/144/48 
f 72/135/41 67/129/36 74/138/43 
f 80/146/49 74/147/49 73/148/49 
f 80/146/49 73/148/49 75/141/49 
f 80/146/49 75/141/49 76/140/49 
f 80/146/49 76/140/49 77/142/50 
f 80/146/49 77/142/50 78/143/50 
f 80/146/49 78/143/50 79/149/50 
f 80/146/49 79/149/50 74/147/49 
# 152 faces

