# 3ds Max Wavefront OBJ Exporter v0.99 - (c)2007 guruware
# File Created: 14.08.2022 01:54:01

#
# object Box017
#

v  266.919 -179.357 0.000
v  270.459 -122.897 0.000
v  320.379 -122.897 0.000
v  323.919 -126.437 0.000
v  320.379 -182.897 0.000
v  270.459 -182.897 0.000
v  270.459 -182.897 85.000
v  323.919 -179.357 85.000
v  323.919 -126.437 85.000
v  320.379 -122.897 85.000
v  266.919 -126.437 85.000
v  266.919 -179.357 85.000
v  323.919 -182.897 3.540
v  323.919 -182.897 81.460
v  320.379 -182.897 85.000
v  266.919 -182.897 81.460
v  266.919 -182.897 3.540
v  323.919 -179.357 0.000
v  323.919 -122.897 3.540
v  323.919 -122.897 81.460
v  266.919 -122.897 3.540
v  266.919 -122.897 81.460
v  270.459 -122.897 85.000
v  266.919 -126.437 0.000
# 24 vertices

vn 0.000 0.000 -1.000
vn 0.000 0.000 1.000
vn 0.000 -1.000 0.000
vn 1.000 0.000 0.000
vn 0.000 1.000 0.000
vn -1.000 0.000 0.000
vn -0.577 -0.577 -0.577
vn 0.577 -0.577 -0.577
vn -0.577 0.577 -0.577
vn 0.577 0.577 -0.577
vn -0.577 -0.577 0.577
vn 0.577 -0.577 0.577
vn -0.577 0.577 0.577
vn 0.577 0.577 0.577
# 14 vertex normals

vt 1.000 0.059 0.000
vt 0.938 1.000 0.000
vt 0.062 1.000 0.000
vt 0.000 0.941 0.000
vt 0.062 0.000 0.000
vt 0.938 0.000 0.000
vt 1.000 0.941 0.000
vt 0.000 0.059 0.000
vt 1.000 0.042 0.000
vt 1.000 0.958 0.000
vt 0.000 0.958 0.000
vt 0.000 0.042 0.000
vt 0.059 0.000 0.000
vt 0.941 1.000 0.000
vt 1.031 0.050 0.000
vt 0.940 -0.016 0.000
vt 1.042 0.000 0.000
vt 0.017 0.056 0.000
vt -0.021 -0.036 0.000
vt 1.017 1.056 0.000
vt 0.979 0.964 0.000
vt 1.062 1.000 0.000
vt 0.016 1.060 0.000
vt -0.021 0.964 0.000
vt 0.028 0.948 0.000
vt 0.029 0.055 0.000
vt -0.057 -0.013 0.000
vt 0.042 0.000 0.000
vt 1.016 0.060 0.000
vt 0.979 -0.036 0.000
vt 1.059 0.000 0.000
vt 0.059 1.000 0.000
vt 1.033 0.947 0.000
vt 0.941 0.000 0.000
# 34 texture coords

o Box017
g Box017
f 1/1/1 2/2/1 3/3/1 
f 4/4/1 5/5/1 6/6/1 
f 7/5/2 8/1/2 9/7/2 
f 10/2/2 11/4/2 12/8/2 
f 6/5/3 13/9/3 14/10/3 
f 15/2/3 16/11/3 17/12/3 
f 18/13/4 19/9/4 20/10/4 
f 9/14/4 14/11/4 13/12/4 
f 3/5/5 21/9/5 22/10/5 
f 23/2/5 20/11/5 19/12/5 
f 24/13/6 17/9/6 16/10/6 
f 12/14/6 22/11/6 21/12/6 
f 1/15/7 6/16/7 17/17/7 
f 18/18/8 13/19/8 5/5/8 
f 24/20/9 21/21/9 2/22/9 
f 3/23/10 19/24/10 4/25/10 
f 7/26/11 12/27/11 16/28/11 
f 15/29/12 14/30/12 8/31/12 
f 23/23/13 22/24/13 11/32/13 
f 9/20/14 20/21/14 10/33/14 
f 1/1/1 24/7/1 2/2/1 
f 4/4/1 18/8/1 5/5/1 
f 7/5/2 15/6/2 8/1/2 
f 10/2/2 23/3/2 11/4/2 
f 6/5/3 5/6/3 13/9/3 
f 15/2/3 7/3/3 16/11/3 
f 18/13/4 4/34/4 19/9/4 
f 9/14/4 8/32/4 14/11/4 
f 3/5/5 2/6/5 21/9/5 
f 23/2/5 10/3/5 20/11/5 
f 24/13/6 1/34/6 17/9/6 
f 12/14/6 11/32/6 22/11/6 
f 6/6/1 1/1/1 3/3/1 
f 3/3/1 4/4/1 6/6/1 
f 12/8/2 7/5/2 9/7/2 
f 9/7/2 10/2/2 12/8/2 
f 17/12/3 6/5/3 14/10/3 
f 14/10/3 15/2/3 17/12/3 
f 13/12/4 18/13/4 20/10/4 
f 20/10/4 9/14/4 13/12/4 
f 19/12/5 3/5/5 22/10/5 
f 22/10/5 23/2/5 19/12/5 
f 21/12/6 24/13/6 16/10/6 
f 16/10/6 12/14/6 21/12/6 
# 44 faces

