# 3ds Max Wavefront OBJ Exporter v0.99 - (c)2007 guruware
# File Created: 15.08.2022 01:25:08

#
# object Vanna
#

v  123.918 -169.986 0.000
v  123.918 -84.532 0.000
v  123.918 -84.532 274.500
v  123.918 -169.986 274.500
v  114.360 -84.532 0.000
v  114.360 -84.532 274.500
v  114.325 -85.932 0.000
v  325.243 -85.932 0.000
v  325.243 -85.932 274.500
v  114.325 -85.932 274.500
v  123.918 -337.035 0.000
v  123.918 -251.581 0.000
v  123.918 -251.581 274.500
v  123.918 -337.035 274.500
v  344.945 -332.117 0.000
v  114.377 -332.117 0.000
v  114.377 -332.117 274.500
v  344.945 -332.117 274.500
v  273.448 -122.105 0.000
v  324.658 -122.105 0.000
v  324.658 -122.105 275.000
v  273.448 -122.105 275.000
v  324.658 -85.859 0.000
v  324.658 -85.859 275.000
v  273.448 -85.859 0.000
v  273.448 -85.859 275.000
v  123.918 -251.609 212.196
v  123.918 -169.983 212.196
v  123.918 -169.983 274.500
v  123.918 -251.609 274.500
v  324.594 -121.262 0.000
v  324.594 -355.362 0.000
v  324.594 -355.362 274.500
v  324.594 -121.262 274.500
# 34 vertices

vn 1.000 0.000 -0.000
vn 0.000 1.000 0.000
vn 0.000 -1.000 0.000
vn -0.000 1.000 0.000
vn -0.000 -1.000 0.000
vn 1.000 0.000 0.000
vn -1.000 0.000 0.000
# 7 vertex normals

vt 2.053 0.000 0.125
vt 3.000 0.000 0.125
vt 3.000 2.995 0.125
vt 2.053 2.995 0.125
vt 2.875 0.000 3.000
vt 3.000 0.000 3.000
vt 3.000 2.995 3.000
vt 2.875 2.995 3.000
vt 0.000 0.000 2.984
vt 2.744 0.000 2.984
vt 2.744 2.995 2.984
vt 0.000 2.995 2.984
vt 0.203 0.000 0.125
vt 1.150 0.000 0.125
vt 1.150 2.995 0.125
vt 0.203 2.995 0.125
vt 0.000 0.000 0.257
vt 2.999 0.000 0.257
vt 2.999 2.995 0.257
vt 0.000 2.995 0.257
vt 2.070 0.000 2.584
vt 2.736 0.000 2.584
vt 2.736 3.000 2.584
vt 2.070 3.000 2.584
vt 2.584 0.000 2.736
vt 2.985 0.000 2.736
vt 2.985 3.000 2.736
vt 2.584 3.000 2.736
vt 0.264 0.000 2.985
vt 0.930 0.000 2.985
vt 0.930 3.000 2.985
vt 0.264 3.000 2.985
vt 0.015 0.000 2.070
vt 0.416 0.000 2.070
vt 0.416 3.000 2.070
vt 0.015 3.000 2.070
vt 1.149 2.315 0.125
vt 2.053 2.315 0.125
vt 1.149 2.995 0.125
vt 0.407 0.000 2.735
vt 3.000 0.000 2.735
vt 3.000 2.995 2.735
vt 0.407 2.995 2.735
# 43 texture coords

o Vanna
g Vanna
f 1/1/1 2/2/1 3/3/1 
f 3/3/1 4/4/1 1/1/1 
f 2/5/2 5/6/2 6/7/2 
f 6/7/2 3/8/2 2/5/2 
f 7/9/3 8/10/3 9/11/3 
f 9/11/3 10/12/3 7/9/3 
f 11/13/1 12/14/1 13/15/1 
f 13/15/1 14/16/1 11/13/1 
f 15/17/4 16/18/4 17/19/4 
f 17/19/4 18/20/4 15/17/4 
f 19/21/5 20/22/5 21/23/5 
f 21/23/5 22/24/5 19/21/5 
f 20/25/6 23/26/6 24/27/6 
f 24/27/6 21/28/6 20/25/6 
f 23/29/2 25/30/2 26/31/2 
f 26/31/2 24/32/2 23/29/2 
f 25/33/7 19/34/7 22/35/7 
f 22/35/7 26/36/7 25/33/7 
f 27/37/6 28/38/6 29/4/6 
f 29/4/6 30/39/6 27/37/6 
f 31/40/7 32/41/7 33/42/7 
f 33/42/7 34/43/7 31/40/7 
# 22 faces

