# Blender 3.3.1
# www.blender.org
o Cube
v 0.000000 1.611110 -0.569694
v 0.000000 0.149084 -0.517589
v 0.642065 0.731013 -0.120428
v 0.959409 -0.731013 -0.165664
v -0.642065 0.731013 -0.120428
v -0.959409 -0.731013 -0.165664
v 0.000000 -0.149084 0.517589
v 0.000000 -4.566202 0.250534
vn -0.0000 0.4547 0.8907
vn 0.5590 -0.0500 0.8276
vn -0.5590 -0.0500 0.8276
vn -0.0000 -0.1079 -0.9942
vn 0.4392 0.1229 -0.8900
vn -0.4392 0.1229 -0.8900
vn -0.0000 0.5869 0.8096
vn 0.6202 0.1106 0.7766
vn -0.6202 0.1106 0.7766
vn -0.0000 -0.3713 -0.9285
vn 0.5453 -0.0299 -0.8377
vn -0.5453 -0.0299 -0.8377
vt 0.666474 0.500000
vt 0.333526 0.500000
vt 0.666474 0.750000
vt 0.333526 0.750000
vt 0.999422 0.500000
vt 0.666474 0.250000
vt 0.333526 0.250000
vt 0.000578 0.500000
vt 0.999422 0.750000
vt 0.666474 1.000000
vt 0.666474 0.000000
vt 0.333526 1.000000
vt 0.333526 0.000000
vt 0.000578 0.750000
s 0
f 5/5/1 3/3/1 1/1/1
f 4/4/2 7/10/2 8/12/2
f 7/11/3 6/7/3 8/13/3
f 6/8/4 4/4/4 8/14/4
f 2/2/5 3/3/5 4/4/5
f 5/6/6 2/2/6 6/7/6
f 5/5/7 7/9/7 3/3/7
f 4/4/8 3/3/8 7/10/8
f 7/11/9 5/6/9 6/7/9
f 6/8/10 2/2/10 4/4/10
f 2/2/11 1/1/11 3/3/11
f 5/6/12 1/1/12 2/2/12
