# 3ds Max Wavefront OBJ Exporter v0.99 - (c)2007 guruware
# File Created: 29.11.2022 17:58:32

mtllib Cylinder_down_30x30.mtl

#
# object Cylinder001
#

v  30.0010 -0.0000 0.0001
v  18.4776 7.6537 -0.0001
v  20.0000 0.0000 -0.0001
v  29.9997 12.3624 0.0001
v  14.1421 14.1421 -0.0001
v  29.9998 29.9997 0.0001
v  7.6537 18.4776 -0.0001
v  12.3624 29.9995 0.0001
v  -0.0000 20.0000 -0.0001
v  -0.0000 30.0015 0.0001
v  -7.6537 18.4776 -0.0001
v  -12.3624 29.9995 0.0001
v  -14.1421 14.1421 -0.0001
v  -29.9998 29.9997 0.0001
v  -18.4776 7.6537 -0.0001
v  -29.9997 12.3624 0.0001
v  -20.0000 0.0000 -0.0001
v  -30.0010 0.0000 0.0001
v  -18.4776 -7.6537 -0.0001
v  -29.9997 -12.3624 0.0001
v  -14.1421 -14.1421 -0.0001
v  -29.9998 -29.9997 0.0001
v  -7.6537 -18.4776 -0.0001
v  -12.3624 -29.9995 0.0001
v  0.0000 -20.0000 -0.0001
v  0.0000 -30.0016 0.0001
v  7.6537 -18.4776 -0.0001
v  12.3624 -29.9995 0.0001
v  14.1421 -14.1421 -0.0001
v  29.9998 -29.9997 0.0001
v  18.4776 -7.6537 -0.0001
v  29.9997 -12.3624 0.0001
v  18.4776 7.6537 -100.0000
v  20.0000 0.0000 -100.0000
v  14.1421 14.1421 -100.0000
v  7.6537 18.4776 -100.0000
v  -0.0000 20.0000 -100.0000
v  -7.6537 18.4776 -100.0000
v  -14.1421 14.1421 -100.0000
v  -18.4776 7.6537 -100.0000
v  -20.0000 0.0000 -100.0000
v  -18.4776 -7.6537 -100.0000
v  -14.1421 -14.1421 -100.0000
v  -7.6537 -18.4776 -100.0000
v  0.0000 -20.0000 -100.0000
v  7.6537 -18.4776 -100.0000
v  14.1421 -14.1421 -100.0000
v  18.4776 -7.6537 -100.0000
v  0.0000 0.0000 -100.0000
# 49 vertices

vn -0.0000 -0.0000 1.0000
vn -0.6071 -0.2515 0.7538
vn -0.6571 -0.0000 0.7538
vn -0.4647 -0.4647 0.7538
vn -0.2515 -0.6071 0.7538
vn 0.0000 -0.6571 0.7538
vn 0.0000 -0.0000 1.0000
vn 0.2515 -0.6071 0.7538
vn 0.4647 -0.4647 0.7538
vn 0.6071 -0.2515 0.7538
vn 0.6571 0.0000 0.7538
vn 0.0000 0.0000 1.0000
vn 0.6071 0.2515 0.7538
vn 0.4647 0.4647 0.7538
vn 0.2515 0.6071 0.7538
vn -0.0000 0.6571 0.7538
vn -0.0000 0.0000 1.0000
vn -0.2515 0.6071 0.7538
vn -0.4647 0.4647 0.7538
vn -0.6071 0.2515 0.7538
vn -0.9239 -0.3827 -0.0000
vn -1.0000 -0.0000 0.0000
vn -0.7071 -0.7071 -0.0000
vn -0.3827 -0.9239 -0.0000
vn -0.0000 -1.0000 0.0000
vn 0.3827 -0.9239 0.0000
vn 0.7071 -0.7071 -0.0000
vn 0.9239 -0.3827 -0.0000
vn 1.0000 -0.0000 0.0000
vn 0.9239 0.3827 0.0000
vn 0.7071 0.7071 0.0000
vn 0.3827 0.9239 0.0000
vn -0.0000 1.0000 0.0000
vn -0.3827 0.9239 0.0000
vn -0.7071 0.7071 0.0000
vn -0.9239 0.3827 0.0000
# 36 vertex normals

vt 0.8000 0.5000 1.0000
vt 0.6848 0.5765 1.0000
vt 0.7000 0.5000 1.0000
vt 0.8000 0.6236 1.0000
vt 0.6414 0.6414 1.0000
vt 0.8000 0.8000 1.0000
vt 0.5765 0.6848 1.0000
vt 0.6236 0.8000 1.0000
vt 0.5000 0.7000 1.0000
vt 0.5000 0.8000 1.0000
vt 0.4235 0.6848 1.0000
vt 0.3764 0.8000 1.0000
vt 0.3586 0.6414 1.0000
vt 0.2000 0.8000 1.0000
vt 0.3152 0.5765 1.0000
vt 0.2000 0.6236 1.0000
vt 0.3000 0.5000 1.0000
vt 0.2000 0.5000 1.0000
vt 0.3152 0.4235 1.0000
vt 0.2000 0.3764 1.0000
vt 0.3586 0.3586 1.0000
vt 0.2000 0.2000 1.0000
vt 0.4235 0.3152 1.0000
vt 0.3764 0.2000 1.0000
vt 0.5000 0.3000 1.0000
vt 0.5000 0.2000 1.0000
vt 0.5765 0.3152 1.0000
vt 0.6236 0.2000 1.0000
vt 0.6414 0.3586 1.0000
vt 0.8000 0.2000 1.0000
vt 0.6848 0.4235 1.0000
vt 0.8000 0.3764 1.0000
vt 0.5000 1.0000 0.7000
vt 0.4235 -0.0000 0.6848
vt 0.5000 -0.0000 0.7000
vt 0.4235 1.0000 0.6848
vt 0.3586 -0.0000 0.6414
vt 0.3586 1.0000 0.6414
vt 0.6414 1.0000 0.6414
vt 0.5765 -0.0000 0.6848
vt 0.6414 -0.0000 0.6414
vt 0.5765 1.0000 0.6848
vt 0.6414 1.0000 0.3586
vt 0.5765 -0.0000 0.3152
vt 0.6414 -0.0000 0.3586
vt 0.5765 1.0000 0.3152
vt 0.5000 -0.0000 0.3000
vt 0.5000 1.0000 0.3000
vt 0.4235 -0.0000 0.3152
vt 0.4235 1.0000 0.3152
vt 0.3586 -0.0000 0.3586
vt 0.3586 1.0000 0.3586
vt 0.5000 0.5000 -0.0000
vt 0.7000 0.5000 -0.0000
vt 0.6848 0.5765 -0.0000
vt 0.6414 0.6414 -0.0000
vt 0.5765 0.6848 -0.0000
vt 0.5000 0.7000 -0.0000
vt 0.4235 0.6848 -0.0000
vt 0.3586 0.6414 -0.0000
vt 0.3152 0.5765 -0.0000
vt 0.3000 0.5000 -0.0000
vt 0.3152 0.4235 -0.0000
vt 0.3586 0.3586 -0.0000
vt 0.4235 0.3152 -0.0000
vt 0.5000 0.3000 -0.0000
vt 0.5765 0.3152 -0.0000
vt 0.6414 0.3586 -0.0000
vt 0.6848 0.4235 -0.0000
# 69 texture coords

o Cylinder001
g Cylinder001
usemtl Material__104
s 8
f 1/1/1 2/2/2 3/3/3 
f 1/1/1 4/4/1 2/2/2 
f 4/4/1 5/5/4 2/2/2 
f 4/4/1 6/6/1 5/5/4 
f 6/6/1 7/7/5 5/5/4 
f 6/6/1 8/8/1 7/7/5 
f 8/8/1 9/9/6 7/7/5 
f 8/8/1 10/10/7 9/9/6 
f 10/10/7 11/11/8 9/9/6 
f 10/10/7 12/12/7 11/11/8 
f 12/12/7 13/13/9 11/11/8 
f 12/12/7 14/14/7 13/13/9 
f 14/14/7 15/15/10 13/13/9 
f 14/14/7 16/16/7 15/15/10 
f 16/16/7 17/17/11 15/15/10 
f 16/16/7 18/18/12 17/17/11 
f 18/18/12 19/19/13 17/17/11 
f 18/18/12 20/20/12 19/19/13 
f 20/20/12 21/21/14 19/19/13 
f 20/20/12 22/22/12 21/21/14 
f 22/22/12 23/23/15 21/21/14 
f 22/22/12 24/24/12 23/23/15 
f 24/24/12 25/25/16 23/23/15 
f 24/24/12 26/26/17 25/25/16 
f 26/26/17 27/27/18 25/25/16 
f 26/26/17 28/28/17 27/27/18 
f 28/28/17 29/29/19 27/27/18 
f 28/28/17 30/30/17 29/29/19 
f 30/30/17 31/31/20 29/29/19 
f 30/30/17 32/32/17 31/31/20 
f 32/32/17 3/3/3 31/31/20 
f 32/32/17 1/1/1 3/3/3 
f 3/33/3 33/34/21 34/35/22 
f 3/33/3 2/36/2 33/34/21 
f 2/36/2 35/37/23 33/34/21 
f 2/36/2 5/38/4 35/37/23 
f 5/39/4 36/40/24 35/41/23 
f 5/39/4 7/42/5 36/40/24 
f 7/42/5 37/35/25 36/40/24 
f 7/42/5 9/33/6 37/35/25 
f 9/33/6 38/34/26 37/35/25 
f 9/33/6 11/36/8 38/34/26 
f 11/36/8 39/37/27 38/34/26 
f 11/36/8 13/38/9 39/37/27 
f 13/43/9 40/44/28 39/45/27 
f 13/43/9 15/46/10 40/44/28 
f 15/46/10 41/47/29 40/44/28 
f 15/46/10 17/48/11 41/47/29 
f 17/48/11 42/49/30 41/47/29 
f 17/48/11 19/50/13 42/49/30 
f 19/50/13 43/51/31 42/49/30 
f 19/50/13 21/52/14 43/51/31 
f 21/43/14 44/44/32 43/45/31 
f 21/43/14 23/46/15 44/44/32 
f 23/46/15 45/47/33 44/44/32 
f 23/46/15 25/48/16 45/47/33 
f 25/48/16 46/49/34 45/47/33 
f 25/48/16 27/50/18 46/49/34 
f 27/50/18 47/51/35 46/49/34 
f 27/50/18 29/52/19 47/51/35 
f 29/39/19 48/40/36 47/41/35 
f 29/39/19 31/42/20 48/40/36 
f 31/42/20 34/35/22 48/40/36 
f 31/42/20 3/33/3 34/35/22 
s 1
f 49/53/12 34/54/12 33/55/12 
f 49/53/12 33/55/12 35/56/12 
f 49/53/12 35/56/12 36/57/12 
f 49/53/12 36/57/12 37/58/12 
f 49/53/12 37/58/12 38/59/12 
f 49/53/12 38/59/12 39/60/12 
f 49/53/12 39/60/12 40/61/12 
f 49/53/12 40/61/12 41/62/12 
f 49/53/12 41/62/12 42/63/12 
f 49/53/12 42/63/12 43/64/12 
f 49/53/12 43/64/12 44/65/12 
f 49/53/12 44/65/12 45/66/12 
f 49/53/12 45/66/12 46/67/12 
f 49/53/12 46/67/12 47/68/12 
f 49/53/12 47/68/12 48/69/12 
f 49/53/12 48/69/12 34/54/12 
# 80 faces

