# Blender 3.3.1
# www.blender.org
o Cube
v -20.000000 -20.000000 0.024042
v -20.000000 20.000000 0.024042
v 20.000000 -20.000000 0.024042
v 20.000000 20.000000 0.024042
v -6.363961 6.363961 -39.975956
v -5.000133 7.483227 -39.975956
v -1.755813 8.827067 -39.975956
v -3.444151 8.314916 -39.975956
v 1.755813 8.827067 -39.975956
v 5.000133 7.483227 -39.975956
v 3.444151 8.314916 -39.975956
v 6.363961 -6.363961 -39.975956
v 0.000000 9.000000 -39.975956
v 7.483227 -5.000133 -39.975956
v 7.483227 5.000133 -39.975956
v 9.000000 0.000000 -39.975956
v 8.827067 -1.755813 -39.975956
v 8.827067 1.755813 -39.975956
v 8.314916 -3.444151 -39.975956
v 8.314916 3.444151 -39.975956
v 6.363961 6.363961 -39.975956
v -9.000000 0.000000 -39.975956
v -8.827067 -1.755813 -39.975956
v -8.827067 1.755813 -39.975956
v -7.483227 -5.000133 -39.975956
v -7.483227 5.000133 -39.975956
v -6.363961 -6.363961 -39.975956
v -8.314916 -3.444151 -39.975956
v -8.314916 3.444151 -39.975956
v -5.000133 -7.483227 -39.975956
v -1.755813 -8.827067 -39.975956
v -3.444151 -8.314916 -39.975956
v 1.755813 -8.827067 -39.975956
v 5.000133 -7.483227 -39.975956
v 3.444151 -8.314916 -39.975956
v 0.000000 -9.000000 -39.975956
v -9.000000 0.000000 0.024042
v -8.827067 1.755813 0.024042
v -8.827067 -1.755813 0.024042
v -7.483227 -5.000133 0.024042
v -7.483227 5.000133 0.024042
v -6.363961 -6.363961 0.024042
v -8.314916 -3.444151 0.024042
v -8.314916 3.444151 0.024042
v -5.000133 7.483227 0.024042
v -1.755813 8.827067 0.024042
v -3.444151 8.314916 0.024042
v 1.755813 8.827067 0.024042
v 6.363961 6.363961 0.024042
v 5.000133 7.483227 0.024042
v 3.444151 8.314916 0.024042
v 0.000000 9.000000 0.024042
v -6.363961 6.363961 0.024042
v -5.000133 -7.483227 0.024042
v -1.755813 -8.827067 0.024042
v -3.444151 -8.314916 0.024042
v 1.755813 -8.827067 0.024042
v 5.000133 -7.483227 0.024042
v 3.444151 -8.314916 0.024042
v 0.000000 -9.000000 0.024042
v 7.483227 -5.000133 0.024042
v 7.483227 5.000133 0.024042
v 9.000000 0.000000 0.024042
v 8.827067 -1.755813 0.024042
v 8.827067 1.755813 0.024042
v 8.314916 -3.444151 0.024042
v 8.314916 3.444151 0.024042
v 6.363961 -6.363961 0.024042
vn -0.0000 -0.0000 1.0000
vn -0.0980 -0.9952 -0.0000
vn -0.2903 -0.9569 -0.0000
vn -0.4714 -0.8819 -0.0000
vn -0.6344 -0.7730 -0.0000
vn -0.7730 -0.6344 -0.0000
vn -0.8819 -0.4714 -0.0000
vn -0.9569 -0.2903 -0.0000
vn -0.9952 -0.0980 -0.0000
vn -0.9952 0.0980 -0.0000
vn -0.9569 0.2903 -0.0000
vn -0.8819 0.4714 -0.0000
vn -0.7730 0.6344 -0.0000
vn -0.6344 0.7730 -0.0000
vn -0.4714 0.8819 -0.0000
vn -0.2903 0.9569 -0.0000
vn -0.0980 0.9952 -0.0000
vn 0.0980 0.9952 -0.0000
vn 0.2903 0.9569 -0.0000
vn 0.4714 0.8819 -0.0000
vn 0.6344 0.7730 -0.0000
vn 0.7730 0.6344 -0.0000
vn 0.8819 0.4714 -0.0000
vn 0.9569 0.2903 -0.0000
vn 0.9952 0.0980 -0.0000
vn 0.9952 -0.0980 -0.0000
vn 0.9569 -0.2903 -0.0000
vn 0.8819 -0.4714 -0.0000
vn 0.7730 -0.6344 -0.0000
vn 0.6344 -0.7730 -0.0000
vn 0.4714 -0.8819 -0.0000
vn 0.2903 -0.9569 -0.0000
vn 0.0980 -0.9952 -0.0000
vt 0.875000 0.750000
vt 0.875000 0.500000
vt 0.625000 0.750000
vt 0.625000 0.500000
vt 0.125000 0.525608
vt 0.093750 0.525608
vt 0.031250 0.525608
vt 0.062500 0.525608
vt 0.968750 0.525608
vt 0.906250 0.525608
vt 0.937500 0.525608
vt 0.625000 0.525608
vt 1.000000 0.525608
vt 0.000000 0.525608
vt 0.656250 0.525608
vt 0.843750 0.525608
vt 0.750000 0.525608
vt 0.718750 0.525608
vt 0.781250 0.525608
vt 0.687500 0.525608
vt 0.812500 0.525608
vt 0.875000 0.525608
vt 0.250000 0.525608
vt 0.281250 0.525608
vt 0.218750 0.525608
vt 0.343750 0.525608
vt 0.156250 0.525608
vt 0.375000 0.525608
vt 0.312500 0.525608
vt 0.187500 0.525608
vt 0.406250 0.525608
vt 0.468750 0.525608
vt 0.437500 0.525608
vt 0.531250 0.525608
vt 0.593750 0.525608
vt 0.562500 0.525608
vt 0.500000 0.525608
vt 0.806250 0.625000
vt 0.250000 0.936623
vt 0.805169 0.614026
vt 0.218750 0.936623
vt 0.805169 0.635974
vt 0.281250 0.936623
vt 0.796770 0.656251
vt 0.343750 0.936623
vt 0.796770 0.593749
vt 0.156250 0.936623
vt 0.789775 0.664775
vt 0.375000 0.936623
vt 0.801968 0.646526
vt 0.312500 0.936623
vt 0.801968 0.603474
vt 0.187500 0.936623
vt 0.781251 0.578230
vt 0.093750 0.936623
vt 0.760974 0.569831
vt 0.031250 0.936623
vt 0.771526 0.573032
vt 0.062500 0.936623
vt 0.739026 0.569831
vt 0.968750 0.936623
vt 0.710225 0.585225
vt 0.875000 0.936623
vt 0.718749 0.578230
vt 0.906250 0.936623
vt 0.728474 0.573032
vt 0.937500 0.936623
vt 1.000000 0.936623
vt 0.750000 0.568750
vt 0.000000 0.936623
vt 0.789775 0.585225
vt 0.125000 0.936623
vt 0.781251 0.671770
vt 0.406250 0.936623
vt 0.760974 0.680169
vt 0.468750 0.936623
vt 0.771526 0.676968
vt 0.437500 0.936623
vt 0.739026 0.680169
vt 0.531250 0.936623
vt 0.718749 0.671770
vt 0.593750 0.936623
vt 0.728474 0.676968
vt 0.562500 0.936623
vt 0.750000 0.681250
vt 0.500000 0.936623
vt 0.703230 0.656251
vt 0.656250 0.936623
vt 0.703230 0.593749
vt 0.843750 0.936623
vt 0.693750 0.625000
vt 0.750000 0.936623
vt 0.694831 0.635974
vt 0.718750 0.936623
vt 0.694831 0.614026
vt 0.781250 0.936623
vt 0.698032 0.646526
vt 0.687500 0.936623
vt 0.698032 0.603474
vt 0.812500 0.936623
vt 0.710225 0.664775
vt 0.625000 0.936623
s 0
f 1/1/1 57/79/1 60/85/1
f 4/4/1 46/56/1 52/69/1
f 13/13/2 48/61/2 52/68/2
f 9/9/3 51/67/3 48/61/3
f 11/11/4 50/65/4 51/67/4
f 10/10/5 49/63/5 50/65/5
f 15/16/6 49/63/6 21/22/6
f 20/21/7 62/90/7 15/16/7
f 18/19/8 67/100/8 20/21/8
f 16/17/9 65/96/9 18/19/9
f 17/18/10 63/92/10 16/17/10
f 19/20/11 64/94/11 17/18/11
f 14/15/12 66/98/12 19/20/12
f 12/12/13 61/88/13 14/15/13
f 34/35/14 68/102/14 12/12/14
f 35/36/15 58/82/15 34/35/15
f 33/34/16 59/84/16 35/36/16
f 36/37/17 57/80/17 33/34/17
f 31/32/18 60/86/18 36/37/18
f 32/33/19 55/76/19 31/32/19
f 30/31/20 56/78/20 32/33/20
f 27/28/21 54/74/21 30/31/21
f 27/28/22 40/45/22 42/49/22
f 25/26/23 43/51/23 40/45/23
f 28/29/24 39/43/24 43/51/24
f 23/24/25 37/39/25 39/43/25
f 22/23/26 38/41/26 37/39/26
f 24/25/27 44/53/27 38/41/27
f 29/30/28 41/47/28 44/53/28
f 26/27/29 53/72/29 41/47/29
f 5/5/30 45/55/30 53/72/30
f 6/6/31 47/59/31 45/55/31
f 8/8/32 46/57/32 47/59/32
f 7/7/33 52/70/33 46/57/33
f 54/73/1 42/48/1 1/1/1
f 3/3/1 68/101/1 58/81/1
f 3/3/1 58/81/1 59/83/1
f 56/77/1 54/73/1 1/1/1
f 55/75/1 56/77/1 1/1/1
f 1/1/1 3/3/1 59/83/1
f 1/1/1 59/83/1 57/79/1
f 60/85/1 55/75/1 1/1/1
f 1/1/1 42/48/1 40/44/1
f 1/1/1 40/44/1 43/50/1
f 61/87/1 68/101/1 3/3/1
f 66/97/1 61/87/1 3/3/1
f 2/2/1 1/1/1 43/50/1
f 2/2/1 43/50/1 39/42/1
f 66/97/1 3/3/1 4/4/1
f 64/93/1 66/97/1 4/4/1
f 2/2/1 39/42/1 37/38/1
f 2/2/1 37/38/1 38/40/1
f 63/91/1 64/93/1 4/4/1
f 65/95/1 63/91/1 4/4/1
f 2/2/1 38/40/1 44/52/1
f 2/2/1 44/52/1 41/46/1
f 67/99/1 65/95/1 4/4/1
f 62/89/1 67/99/1 4/4/1
f 2/2/1 41/46/1 53/71/1
f 2/2/1 53/71/1 45/54/1
f 49/62/1 62/89/1 4/4/1
f 50/64/1 49/62/1 4/4/1
f 2/2/1 45/54/1 47/58/1
f 2/2/1 47/58/1 46/56/1
f 51/66/1 50/64/1 4/4/1
f 48/60/1 51/66/1 4/4/1
f 4/4/1 2/2/1 46/56/1
f 52/69/1 48/60/1 4/4/1
f 13/13/2 9/9/2 48/61/2
f 9/9/3 11/11/3 51/67/3
f 11/11/4 10/10/4 50/65/4
f 10/10/5 21/22/5 49/63/5
f 15/16/6 62/90/6 49/63/6
f 20/21/7 67/100/7 62/90/7
f 18/19/8 65/96/8 67/100/8
f 16/17/9 63/92/9 65/96/9
f 17/18/10 64/94/10 63/92/10
f 19/20/11 66/98/11 64/94/11
f 14/15/12 61/88/12 66/98/12
f 12/12/13 68/102/13 61/88/13
f 34/35/14 58/82/14 68/102/14
f 35/36/15 59/84/15 58/82/15
f 33/34/16 57/80/16 59/84/16
f 36/37/17 60/86/17 57/80/17
f 31/32/18 55/76/18 60/86/18
f 32/33/19 56/78/19 55/76/19
f 30/31/20 54/74/20 56/78/20
f 27/28/21 42/49/21 54/74/21
f 27/28/22 25/26/22 40/45/22
f 25/26/23 28/29/23 43/51/23
f 28/29/24 23/24/24 39/43/24
f 23/24/25 22/23/25 37/39/25
f 22/23/26 24/25/26 38/41/26
f 24/25/27 29/30/27 44/53/27
f 29/30/28 26/27/28 41/47/28
f 26/27/29 5/5/29 53/72/29
f 5/5/30 6/6/30 45/55/30
f 6/6/31 8/8/31 47/59/31
f 8/8/32 7/7/32 46/57/32
f 7/7/33 13/14/33 52/70/33
